# Blender 4.2.3 LTS
# www.blender.org
mtllib Angle180CurveRoad.mtl
o Cube
v -14.732395 19.098593 -5.999999
v -14.732395 19.098593 6.000001
v -10.732395 19.098593 -5.999999
v -10.732395 19.098593 6.000001
v 14.732395 19.098593 -5.999999
v 14.732395 19.098593 6.000001
v 10.732395 19.098593 -5.999999
v 10.732395 19.098593 6.000001
v 10.727099 18.592924 -5.999999
v 10.711217 18.087757 -5.999999
v 10.684764 17.583584 -5.999999
v 10.647767 17.080906 -5.999999
v 10.600262 16.580221 -5.999999
v 10.542295 16.082020 -6.000000
v 10.473925 15.586796 -6.000000
v 10.395218 15.095040 -6.000000
v 10.306252 14.607231 -6.000000
v 10.207116 14.123860 -6.000000
v 10.097905 13.645393 -6.000000
v 9.978730 13.172310 -6.000000
v 9.849708 12.705079 -6.000000
v 9.710963 12.244151 -6.000000
v 9.562636 11.789991 -6.000000
v 9.404873 11.343043 -6.000000
v 9.237827 10.903750 -6.000000
v 9.061665 10.472543 -6.000000
v 8.876559 10.049850 -6.000000
v 8.682693 9.636084 -6.000000
v 8.480259 9.231658 -6.000000
v 8.269456 8.836970 -6.000000
v 8.050492 8.452409 -6.000000
v 7.823584 8.078354 -6.000000
v 7.588954 7.715176 -6.000000
v 7.346834 7.363230 -6.000000
v 7.097465 7.022866 -6.000000
v 6.841091 6.694420 -6.000000
v 6.577966 6.378215 -6.000000
v 6.308349 6.074564 -6.000000
v 6.032506 5.783765 -6.000000
v 5.750710 5.506106 -6.000000
v 5.463239 5.241862 -6.000000
v 5.170376 4.991293 -6.000000
v 4.872411 4.754646 -6.000000
v 4.569637 4.532155 -6.000000
v 4.262353 4.324039 -6.000000
v 3.950864 4.130503 -6.000000
v 3.635474 3.951740 -6.000000
v 3.316498 3.787924 -6.000000
v 2.994248 3.639219 -6.000000
v 2.669044 3.505769 -6.000000
v 2.341205 3.387708 -6.000000
v 2.011055 3.285152 -6.000000
v 1.678922 3.198202 -6.000000
v 1.345131 3.126943 -6.000000
v 1.010013 3.071448 -6.000000
v 0.673898 3.031767 -6.000000
v 0.337118 3.007944 -6.000000
v 0.000005 3.000000 -6.000000
v -0.337108 3.007943 -6.000000
v -0.673888 3.031767 -6.000000
v -1.010003 3.071445 -6.000000
v -1.345122 3.126941 -6.000000
v -1.678912 3.198200 -6.000000
v -2.011046 3.285149 -6.000000
v -2.341196 3.387705 -6.000000
v -2.669034 3.505766 -6.000000
v -2.994239 3.639215 -6.000000
v -3.316489 3.787920 -6.000000
v -3.635466 3.951735 -6.000000
v -3.950855 4.130498 -6.000000
v -4.262345 4.324033 -6.000000
v -4.569629 4.532149 -6.000000
v -4.872403 4.754640 -6.000000
v -5.170368 4.991286 -6.000000
v -5.463231 5.241856 -6.000000
v -5.750702 5.506100 -6.000000
v -6.032499 5.783758 -6.000000
v -6.308342 6.074556 -6.000000
v -6.577959 6.378208 -6.000000
v -6.841084 6.694412 -6.000000
v -7.097459 7.022859 -6.000000
v -7.346829 7.363224 -6.000000
v -7.588948 7.715168 -6.000000
v -7.823578 8.078346 -6.000000
v -8.050487 8.452400 -6.000000
v -8.269452 8.836963 -6.000000
v -8.480255 9.231650 -6.000000
v -8.682689 9.636076 -6.000000
v -8.876554 10.049839 -6.000000
v -9.061661 10.472534 -6.000000
v -9.237823 10.903741 -6.000000
v -9.404869 11.343037 -6.000000
v -9.562634 11.789982 -6.000000
v -9.710961 12.244144 -6.000000
v -9.849706 12.705070 -6.000000
v -9.978728 13.172302 -6.000000
v -10.097903 13.645388 -6.000000
v -10.207114 14.123854 -6.000000
v -10.306252 14.607229 -6.000000
v -10.395217 15.095035 -6.000000
v -10.473924 15.586793 -6.000000
v -10.542295 16.082018 -6.000000
v -10.600261 16.580215 -5.999999
v -10.647767 17.080902 -5.999999
v -10.684764 17.583580 -5.999999
v -10.711217 18.087749 -5.999999
v -10.727099 18.592922 -5.999999
v -10.727099 18.592924 6.000001
v -10.711217 18.087757 6.000001
v -10.684764 17.583584 6.000001
v -10.647767 17.080906 6.000001
v -10.600262 16.580221 6.000001
v -10.542295 16.082020 6.000000
v -10.473925 15.586796 6.000000
v -10.395218 15.095040 6.000000
v -10.306252 14.607231 6.000000
v -10.207116 14.123860 6.000000
v -10.097905 13.645393 6.000000
v -9.978730 13.172310 6.000000
v -9.849708 12.705079 6.000000
v -9.710963 12.244151 6.000000
v -9.562636 11.789991 6.000000
v -9.404873 11.343043 6.000000
v -9.237827 10.903750 6.000000
v -9.061665 10.472543 6.000000
v -8.876559 10.049850 6.000000
v -8.682693 9.636084 6.000000
v -8.480259 9.231658 6.000000
v -8.269456 8.836970 6.000000
v -8.050492 8.452409 6.000000
v -7.823584 8.078354 6.000000
v -7.588954 7.715175 6.000000
v -7.346834 7.363229 6.000000
v -7.097465 7.022865 6.000000
v -6.841091 6.694419 6.000000
v -6.577966 6.378214 6.000000
v -6.308349 6.074563 6.000000
v -6.032506 5.783764 6.000000
v -5.750710 5.506105 6.000000
v -5.463239 5.241861 6.000000
v -5.170376 4.991292 6.000000
v -4.872411 4.754645 6.000000
v -4.569637 4.532154 6.000000
v -4.262353 4.324038 6.000000
v -3.950864 4.130502 6.000000
v -3.635474 3.951739 6.000000
v -3.316498 3.787923 6.000000
v -2.994248 3.639218 6.000000
v -2.669044 3.505769 6.000000
v -2.341205 3.387708 6.000000
v -2.011055 3.285151 6.000000
v -1.678922 3.198202 6.000000
v -1.345131 3.126943 6.000000
v -1.010013 3.071447 6.000000
v -0.673898 3.031767 6.000000
v -0.337118 3.007944 6.000000
v -0.000005 3.000000 6.000000
v 0.337108 3.007943 6.000000
v 0.673888 3.031767 6.000000
v 1.010003 3.071445 6.000000
v 1.345122 3.126940 6.000000
v 1.678912 3.198199 6.000000
v 2.011046 3.285149 6.000000
v 2.341196 3.387705 6.000000
v 2.669034 3.505766 6.000000
v 2.994239 3.639214 6.000000
v 3.316489 3.787920 6.000000
v 3.635466 3.951734 6.000000
v 3.950855 4.130497 6.000000
v 4.262345 4.324032 6.000000
v 4.569629 4.532148 6.000000
v 4.872403 4.754639 6.000000
v 5.170368 4.991285 6.000000
v 5.463231 5.241855 6.000000
v 5.750702 5.506099 6.000000
v 6.032499 5.783757 6.000000
v 6.308342 6.074555 6.000000
v 6.577959 6.378207 6.000000
v 6.841084 6.694411 6.000000
v 7.097459 7.022858 6.000000
v 7.346829 7.363223 6.000000
v 7.588948 7.715167 6.000000
v 7.823578 8.078346 6.000000
v 8.050487 8.452400 6.000000
v 8.269452 8.836963 6.000000
v 8.480255 9.231650 6.000000
v 8.682689 9.636076 6.000000
v 8.876554 10.049839 6.000000
v 9.061661 10.472534 6.000000
v 9.237823 10.903741 6.000000
v 9.404869 11.343037 6.000000
v 9.562634 11.789982 6.000000
v 9.710961 12.244144 6.000000
v 9.849706 12.705070 6.000000
v 9.978728 13.172302 6.000000
v 10.097903 13.645388 6.000000
v 10.207114 14.123854 6.000000
v 10.306252 14.607229 6.000000
v 10.395217 15.095035 6.000000
v 10.473924 15.586793 6.000000
v 10.542295 16.082018 6.000000
v 10.600261 16.580215 6.000001
v 10.647767 17.080902 6.000001
v 10.684764 17.583580 6.000001
v 10.711217 18.087749 6.000001
v 10.727099 18.592922 6.000001
v -14.725125 18.404461 -5.999999
v -14.703324 17.711014 -5.999999
v -14.667012 17.018936 -5.999999
v -14.616226 16.328907 -6.000000
v -14.551015 15.641617 -6.000000
v -14.471444 14.957733 -6.000000
v -14.377592 14.277938 -6.000000
v -14.269551 13.602902 -6.000000
v -14.147428 12.933287 -6.000000
v -14.011343 12.269760 -6.000000
v -13.861429 11.612968 -6.000000
v -13.697837 10.963565 -6.000000
v -13.520727 10.322194 -6.000000
v -13.330273 9.689479 -6.000000
v -13.126663 9.066051 -6.000000
v -12.910100 8.452524 -6.000000
v -12.680797 7.849504 -6.000000
v -12.438977 7.257586 -6.000000
v -12.184883 6.677352 -6.000000
v -11.918762 6.109376 -6.000000
v -11.640880 5.554218 -6.000000
v -11.351511 5.012430 -6.000000
v -11.050939 4.484541 -6.000000
v -10.739460 3.971074 -6.000000
v -10.417383 3.472538 -6.000000
v -10.085024 2.989420 -6.000000
v -9.742714 2.522201 -6.000000
v -9.390788 2.071343 -6.000000
v -9.029596 1.637287 -6.000000
v -8.659492 1.220464 -6.000000
v -8.280842 0.821283 -6.000000
v -7.894019 0.440141 -6.000000
v -7.499406 0.077412 -6.000000
v -7.097393 -0.266546 -6.000000
v -6.688375 -0.591392 -6.000000
v -6.272756 -0.896806 -6.000000
v -5.850947 -1.182488 -6.000000
v -5.423364 -1.448155 -6.000000
v -4.990428 -1.693544 -6.000000
v -4.552568 -1.918414 -6.000000
v -4.110215 -2.122543 -6.000000
v -3.663805 -2.305729 -6.000000
v -3.213780 -2.467791 -6.000000
v -2.760583 -2.608571 -6.000000
v -2.304662 -2.727927 -6.000000
v -1.846466 -2.825745 -6.000000
v -1.386448 -2.901924 -6.000000
v -0.925062 -2.956393 -6.000000
v -0.462762 -2.989095 -6.000000
v -0.000007 -3.000000 -6.000000
v 0.462749 -2.989096 -6.000000
v 0.925049 -2.956393 -6.000000
v 1.386435 -2.901927 -6.000000
v 1.846453 -2.825747 -6.000000
v 2.304649 -2.727931 -6.000000
v 2.760570 -2.608575 -6.000000
v 3.213767 -2.467796 -6.000000
v 3.663792 -2.305733 -6.000000
v 4.110202 -2.122548 -6.000000
v 4.552556 -1.918419 -6.000000
v 4.990417 -1.693551 -6.000000
v 5.423352 -1.448162 -6.000000
v 5.850935 -1.182496 -6.000000
v 6.272745 -0.896814 -6.000000
v 6.688364 -0.591400 -6.000000
v 7.097382 -0.266555 -6.000000
v 7.499396 0.077403 -6.000000
v 7.894009 0.440131 -6.000000
v 8.280831 0.821273 -6.000000
v 8.659482 1.220453 -6.000000
v 9.029586 1.637277 -6.000000
v 9.390779 2.071332 -6.000000
v 9.742706 2.522192 -6.000000
v 10.085017 2.989411 -6.000000
v 10.417375 3.472526 -6.000000
v 10.739452 3.971064 -6.000000
v 11.050931 4.484529 -6.000000
v 11.351504 5.012419 -6.000000
v 11.640875 5.554208 -6.000000
v 11.918756 6.109365 -6.000000
v 12.184876 6.677339 -6.000000
v 12.438972 7.257573 -6.000000
v 12.680791 7.849493 -6.000000
v 12.910096 8.452513 -6.000000
v 13.126659 9.066038 -6.000000
v 13.330270 9.689468 -6.000000
v 13.520724 10.322184 -6.000000
v 13.697834 10.963555 -6.000000
v 13.861426 11.612959 -6.000000
v 14.011340 12.269751 -6.000000
v 14.147427 12.933281 -6.000000
v 14.269550 13.602894 -6.000000
v 14.377591 14.277932 -6.000000
v 14.471443 14.957729 -6.000000
v 14.551014 15.641609 -6.000000
v 14.616225 16.328903 -6.000000
v 14.667012 17.018932 -5.999999
v 14.703324 17.711008 -5.999999
v 14.725125 18.404457 -5.999999
v 14.725125 18.404461 6.000001
v 14.703324 17.711014 6.000001
v 14.667012 17.018936 6.000001
v 14.616226 16.328907 6.000000
v 14.551015 15.641617 6.000000
v 14.471444 14.957733 6.000000
v 14.377592 14.277938 6.000000
v 14.269551 13.602902 6.000000
v 14.147428 12.933287 6.000000
v 14.011343 12.269760 6.000000
v 13.861429 11.612968 6.000000
v 13.697837 10.963565 6.000000
v 13.520727 10.322194 6.000000
v 13.330273 9.689479 6.000000
v 13.126663 9.066051 6.000000
v 12.910100 8.452524 6.000000
v 12.680797 7.849504 6.000000
v 12.438977 7.257585 6.000000
v 12.184883 6.677351 6.000000
v 11.918762 6.109375 6.000000
v 11.640880 5.554217 6.000000
v 11.351511 5.012429 6.000000
v 11.050939 4.484540 6.000000
v 10.739460 3.971074 6.000000
v 10.417383 3.472537 6.000000
v 10.085024 2.989420 6.000000
v 9.742714 2.522201 6.000000
v 9.390788 2.071342 6.000000
v 9.029596 1.637287 6.000000
v 8.659492 1.220463 6.000000
v 8.280842 0.821283 6.000000
v 7.894019 0.440140 6.000000
v 7.499406 0.077411 6.000000
v 7.097393 -0.266546 6.000000
v 6.688375 -0.591393 6.000000
v 6.272756 -0.896807 6.000000
v 5.850947 -1.182489 6.000000
v 5.423364 -1.448156 6.000000
v 4.990428 -1.693545 6.000000
v 4.552568 -1.918415 6.000000
v 4.110215 -2.122543 6.000000
v 3.663805 -2.305730 6.000000
v 3.213780 -2.467792 6.000000
v 2.760583 -2.608572 6.000000
v 2.304662 -2.727928 6.000000
v 1.846466 -2.825745 6.000000
v 1.386448 -2.901924 6.000000
v 0.925062 -2.956394 6.000000
v 0.462762 -2.989095 6.000000
v 0.000007 -3.000000 6.000000
v -0.462749 -2.989097 6.000000
v -0.925049 -2.956394 6.000000
v -1.386435 -2.901927 6.000000
v -1.846453 -2.825748 6.000000
v -2.304649 -2.727932 6.000000
v -2.760570 -2.608576 6.000000
v -3.213767 -2.467797 6.000000
v -3.663792 -2.305734 6.000000
v -4.110202 -2.122548 6.000000
v -4.552556 -1.918420 6.000000
v -4.990417 -1.693551 6.000000
v -5.423352 -1.448162 6.000000
v -5.850935 -1.182496 6.000000
v -6.272745 -0.896815 6.000000
v -6.688364 -0.591401 6.000000
v -7.097382 -0.266555 6.000000
v -7.499396 0.077402 6.000000
v -7.894009 0.440131 6.000000
v -8.280831 0.821272 6.000000
v -8.659482 1.220453 6.000000
v -9.029586 1.637276 6.000000
v -9.390779 2.071332 6.000000
v -9.742706 2.522191 6.000000
v -10.085017 2.989411 6.000000
v -10.417375 3.472526 6.000000
v -10.739452 3.971063 6.000000
v -11.050931 4.484528 6.000000
v -11.351504 5.012418 6.000000
v -11.640875 5.554207 6.000000
v -11.918756 6.109364 6.000000
v -12.184876 6.677338 6.000000
v -12.438972 7.257572 6.000000
v -12.680791 7.849492 6.000000
v -12.910096 8.452513 6.000000
v -13.126659 9.066038 6.000000
v -13.330270 9.689468 6.000000
v -13.520724 10.322184 6.000000
v -13.697834 10.963555 6.000000
v -13.861426 11.612959 6.000000
v -14.011340 12.269751 6.000000
v -14.147427 12.933281 6.000000
v -14.269550 13.602894 6.000000
v -14.377591 14.277932 6.000000
v -14.471443 14.957729 6.000000
v -14.551014 15.641609 6.000000
v -14.616225 16.328903 6.000000
v -14.667012 17.018932 6.000001
v -14.703324 17.711008 6.000001
v -14.725125 18.404457 6.000001
vn -0.0000 1.0000 -0.0000
vn -0.9999 0.0105 -0.0000
vn -0.9999 -0.0105 -0.0000
vn -0.0000 -0.0000 -1.0000
vn -0.0000 -0.0000 1.0000
vn 0.9999 -0.0105 -0.0000
vn 0.9995 -0.0314 -0.0000
vn 0.9986 -0.0524 -0.0000
vn 0.9973 -0.0734 -0.0000
vn 0.9955 -0.0945 -0.0000
vn 0.9933 -0.1156 -0.0000
vn 0.9906 -0.1368 -0.0000
vn 0.9874 -0.1580 -0.0000
vn 0.9838 -0.1794 -0.0000
vn 0.9796 -0.2009 -0.0000
vn 0.9749 -0.2225 -0.0000
vn 0.9697 -0.2443 -0.0000
vn 0.9639 -0.2662 -0.0000
vn 0.9576 -0.2882 -0.0000
vn 0.9506 -0.3105 -0.0000
vn 0.9430 -0.3329 -0.0000
vn 0.9347 -0.3554 -0.0000
vn 0.9257 -0.3782 -0.0000
vn 0.9160 -0.4011 -0.0000
vn 0.9055 -0.4243 -0.0000
vn 0.8942 -0.4476 -0.0000
vn 0.8821 -0.4711 -0.0000
vn 0.8690 -0.4948 -0.0000
vn 0.8550 -0.5187 -0.0000
vn 0.8400 -0.5427 -0.0000
vn 0.8239 -0.5668 -0.0000
vn 0.8067 -0.5910 -0.0000
vn 0.7883 -0.6153 -0.0000
vn 0.7687 -0.6396 -0.0000
vn 0.7478 -0.6640 -0.0000
vn 0.7255 -0.6882 -0.0000
vn 0.7019 -0.7123 -0.0000
vn 0.6767 -0.7362 -0.0000
vn 0.6501 -0.7598 -0.0000
vn 0.6219 -0.7831 -0.0000
vn 0.5922 -0.8058 -0.0000
vn 0.5608 -0.8280 -0.0000
vn 0.5277 -0.8494 -0.0000
vn 0.4931 -0.8700 -0.0000
vn 0.4568 -0.8895 -0.0000
vn 0.4190 -0.9080 -0.0000
vn 0.3796 -0.9251 -0.0000
vn 0.3388 -0.9409 -0.0000
vn 0.2967 -0.9550 -0.0000
vn 0.2533 -0.9674 -0.0000
vn 0.2088 -0.9780 -0.0000
vn 0.1634 -0.9866 -0.0000
vn 0.1172 -0.9931 -0.0000
vn 0.0706 -0.9975 -0.0000
vn 0.0236 -0.9997 -0.0000
vn -0.0236 -0.9997 -0.0000
vn -0.0706 -0.9975 -0.0000
vn -0.1172 -0.9931 -0.0000
vn -0.1634 -0.9866 -0.0000
vn -0.2088 -0.9780 -0.0000
vn -0.2533 -0.9674 -0.0000
vn -0.2967 -0.9550 -0.0000
vn -0.3388 -0.9409 -0.0000
vn -0.3796 -0.9251 -0.0000
vn -0.4190 -0.9080 -0.0000
vn -0.4568 -0.8895 -0.0000
vn -0.4931 -0.8700 -0.0000
vn -0.5277 -0.8494 -0.0000
vn -0.5608 -0.8280 -0.0000
vn -0.5922 -0.8058 -0.0000
vn -0.6219 -0.7831 -0.0000
vn -0.6501 -0.7598 -0.0000
vn -0.6767 -0.7362 -0.0000
vn -0.7019 -0.7123 -0.0000
vn -0.7255 -0.6882 -0.0000
vn -0.7478 -0.6640 -0.0000
vn -0.7687 -0.6396 -0.0000
vn -0.7883 -0.6153 -0.0000
vn -0.8067 -0.5910 -0.0000
vn -0.8239 -0.5668 -0.0000
vn -0.8400 -0.5427 -0.0000
vn -0.8550 -0.5187 -0.0000
vn -0.8690 -0.4948 -0.0000
vn -0.8821 -0.4711 -0.0000
vn -0.8942 -0.4476 -0.0000
vn -0.9055 -0.4243 -0.0000
vn -0.9160 -0.4011 -0.0000
vn -0.9257 -0.3782 -0.0000
vn -0.9347 -0.3554 -0.0000
vn -0.9430 -0.3329 -0.0000
vn -0.9506 -0.3105 -0.0000
vn -0.9576 -0.2882 -0.0000
vn -0.9639 -0.2662 -0.0000
vn -0.9697 -0.2443 -0.0000
vn -0.9749 -0.2225 -0.0000
vn -0.9796 -0.2009 -0.0000
vn -0.9838 -0.1794 -0.0000
vn -0.9874 -0.1580 -0.0000
vn -0.9906 -0.1368 -0.0000
vn -0.9933 -0.1156 -0.0000
vn -0.9955 -0.0945 -0.0000
vn -0.9973 -0.0734 -0.0000
vn -0.9986 -0.0524 -0.0000
vn -0.9995 -0.0314 -0.0000
vn 0.9999 0.0105 -0.0000
vn 0.9995 0.0314 -0.0000
vn 0.9986 0.0524 -0.0000
vn 0.9973 0.0734 -0.0000
vn 0.9955 0.0945 -0.0000
vn 0.9933 0.1156 -0.0000
vn 0.9906 0.1368 -0.0000
vn 0.9874 0.1580 -0.0000
vn 0.9838 0.1794 -0.0000
vn 0.9796 0.2009 -0.0000
vn 0.9749 0.2225 -0.0000
vn 0.9697 0.2443 -0.0000
vn 0.9639 0.2662 -0.0000
vn 0.9576 0.2882 -0.0000
vn 0.9506 0.3105 -0.0000
vn 0.9430 0.3329 -0.0000
vn 0.9347 0.3554 -0.0000
vn 0.9257 0.3782 -0.0000
vn 0.9160 0.4011 -0.0000
vn 0.9055 0.4243 -0.0000
vn 0.8942 0.4476 -0.0000
vn 0.8821 0.4711 -0.0000
vn 0.8690 0.4948 -0.0000
vn 0.8550 0.5187 -0.0000
vn 0.8400 0.5426 -0.0000
vn 0.8239 0.5668 -0.0000
vn 0.8067 0.5910 -0.0000
vn 0.7883 0.6153 -0.0000
vn 0.7687 0.6396 -0.0000
vn 0.7478 0.6640 -0.0000
vn 0.7255 0.6882 -0.0000
vn 0.7019 0.7123 -0.0000
vn 0.6767 0.7362 -0.0000
vn 0.6501 0.7598 -0.0000
vn 0.6219 0.7831 -0.0000
vn 0.5922 0.8058 -0.0000
vn 0.5608 0.8280 -0.0000
vn 0.5277 0.8494 -0.0000
vn 0.4931 0.8700 -0.0000
vn 0.4568 0.8895 -0.0000
vn 0.4190 0.9080 -0.0000
vn 0.3796 0.9251 -0.0000
vn 0.3388 0.9409 -0.0000
vn 0.2967 0.9550 -0.0000
vn 0.2533 0.9674 -0.0000
vn 0.2088 0.9780 -0.0000
vn 0.1634 0.9866 -0.0000
vn 0.1172 0.9931 -0.0000
vn 0.0706 0.9975 -0.0000
vn 0.0236 0.9997 -0.0000
vn -0.0236 0.9997 -0.0000
vn -0.0706 0.9975 -0.0000
vn -0.1172 0.9931 -0.0000
vn -0.1634 0.9866 -0.0000
vn -0.2088 0.9780 -0.0000
vn -0.2533 0.9674 -0.0000
vn -0.2967 0.9550 -0.0000
vn -0.3388 0.9409 -0.0000
vn -0.3796 0.9251 -0.0000
vn -0.4190 0.9080 -0.0000
vn -0.4568 0.8895 -0.0000
vn -0.4931 0.8700 -0.0000
vn -0.5277 0.8494 -0.0000
vn -0.5608 0.8280 -0.0000
vn -0.5922 0.8058 -0.0000
vn -0.6219 0.7831 -0.0000
vn -0.6501 0.7598 -0.0000
vn -0.6767 0.7362 -0.0000
vn -0.7019 0.7123 -0.0000
vn -0.7255 0.6882 -0.0000
vn -0.7478 0.6640 -0.0000
vn -0.7687 0.6396 -0.0000
vn -0.7883 0.6153 -0.0000
vn -0.8067 0.5910 -0.0000
vn -0.8239 0.5668 -0.0000
vn -0.8400 0.5426 -0.0000
vn -0.8550 0.5187 -0.0000
vn -0.8690 0.4948 -0.0000
vn -0.8821 0.4711 -0.0000
vn -0.8942 0.4476 -0.0000
vn -0.9055 0.4243 -0.0000
vn -0.9160 0.4011 -0.0000
vn -0.9257 0.3782 -0.0000
vn -0.9347 0.3554 -0.0000
vn -0.9430 0.3329 -0.0000
vn -0.9506 0.3105 -0.0000
vn -0.9576 0.2882 -0.0000
vn -0.9639 0.2662 -0.0000
vn -0.9697 0.2443 -0.0000
vn -0.9749 0.2225 -0.0000
vn -0.9796 0.2009 -0.0000
vn -0.9838 0.1794 -0.0000
vn -0.9874 0.1580 -0.0000
vn -0.9906 0.1368 -0.0000
vn -0.9933 0.1156 -0.0000
vn -0.9955 0.0945 -0.0000
vn -0.9973 0.0734 -0.0000
vn -0.9986 0.0524 -0.0000
vn -0.9995 0.0314 -0.0000
vt 0.375000 0.000000
vt 0.625000 0.000000
vt 0.625000 0.250000
vt 0.375000 0.250000
vt 0.375000 0.497500
vt 0.625000 0.497500
vt 0.625000 0.500000
vt 0.375000 0.500000
vt 0.625000 0.750000
vt 0.375000 0.750000
vt 0.375000 0.997500
vt 0.625000 0.997500
vt 0.625000 1.000000
vt 0.375000 1.000000
vt 0.372500 0.500000
vt 0.372500 0.750000
vt 0.872500 0.500000
vt 0.875000 0.500000
vt 0.875000 0.750000
vt 0.872500 0.750000
vt 0.627500 0.500000
vt 0.627500 0.750000
vt 0.630000 0.500000
vt 0.630000 0.750000
vt 0.632500 0.500000
vt 0.632500 0.750000
vt 0.635000 0.500000
vt 0.635000 0.750000
vt 0.637500 0.500000
vt 0.637500 0.750000
vt 0.640000 0.500000
vt 0.640000 0.750000
vt 0.642500 0.500000
vt 0.642500 0.750000
vt 0.645000 0.500000
vt 0.645000 0.750000
vt 0.647500 0.500000
vt 0.647500 0.750000
vt 0.650000 0.500000
vt 0.650000 0.750000
vt 0.652500 0.500000
vt 0.652500 0.750000
vt 0.655000 0.500000
vt 0.655000 0.750000
vt 0.657500 0.500000
vt 0.657500 0.750000
vt 0.660000 0.500000
vt 0.660000 0.750000
vt 0.662500 0.500000
vt 0.662500 0.750000
vt 0.665000 0.500000
vt 0.665000 0.750000
vt 0.667500 0.500000
vt 0.667500 0.750000
vt 0.670000 0.500000
vt 0.670000 0.750000
vt 0.672500 0.500000
vt 0.672500 0.750000
vt 0.675000 0.500000
vt 0.675000 0.750000
vt 0.677500 0.500000
vt 0.677500 0.750000
vt 0.680000 0.500000
vt 0.680000 0.750000
vt 0.682500 0.500000
vt 0.682500 0.750000
vt 0.685000 0.500000
vt 0.685000 0.750000
vt 0.687500 0.500000
vt 0.687500 0.750000
vt 0.690000 0.500000
vt 0.690000 0.750000
vt 0.692500 0.500000
vt 0.692500 0.750000
vt 0.695000 0.500000
vt 0.695000 0.750000
vt 0.697500 0.500000
vt 0.697500 0.750000
vt 0.700000 0.500000
vt 0.700000 0.750000
vt 0.702500 0.500000
vt 0.702500 0.750000
vt 0.705000 0.500000
vt 0.705000 0.750000
vt 0.707500 0.500000
vt 0.707500 0.750000
vt 0.710000 0.500000
vt 0.710000 0.750000
vt 0.712500 0.500000
vt 0.712500 0.750000
vt 0.715000 0.500000
vt 0.715000 0.750000
vt 0.717500 0.500000
vt 0.717500 0.750000
vt 0.720000 0.500000
vt 0.720000 0.750000
vt 0.722500 0.500000
vt 0.722500 0.750000
vt 0.725000 0.500000
vt 0.725000 0.750000
vt 0.727500 0.500000
vt 0.727500 0.750000
vt 0.730000 0.500000
vt 0.730000 0.750000
vt 0.732500 0.500000
vt 0.732500 0.750000
vt 0.735000 0.500000
vt 0.735000 0.750000
vt 0.737500 0.500000
vt 0.737500 0.750000
vt 0.740000 0.500000
vt 0.740000 0.750000
vt 0.742500 0.500000
vt 0.742500 0.750000
vt 0.745000 0.500000
vt 0.745000 0.750000
vt 0.747500 0.500000
vt 0.747500 0.750000
vt 0.750000 0.500000
vt 0.750000 0.750000
vt 0.752500 0.500000
vt 0.752500 0.750000
vt 0.755000 0.500000
vt 0.755000 0.750000
vt 0.757500 0.500000
vt 0.757500 0.750000
vt 0.760000 0.500000
vt 0.760000 0.750000
vt 0.762500 0.500000
vt 0.762500 0.750000
vt 0.765000 0.500000
vt 0.765000 0.750000
vt 0.767500 0.500000
vt 0.767500 0.750000
vt 0.770000 0.500000
vt 0.770000 0.750000
vt 0.772500 0.500000
vt 0.772500 0.750000
vt 0.775000 0.500000
vt 0.775000 0.750000
vt 0.777500 0.500000
vt 0.777500 0.750000
vt 0.780000 0.500000
vt 0.780000 0.750000
vt 0.782500 0.500000
vt 0.782500 0.750000
vt 0.785000 0.500000
vt 0.785000 0.750000
vt 0.787500 0.500000
vt 0.787500 0.750000
vt 0.790000 0.500000
vt 0.790000 0.750000
vt 0.792500 0.500000
vt 0.792500 0.750000
vt 0.795000 0.500000
vt 0.795000 0.750000
vt 0.797500 0.500000
vt 0.797500 0.750000
vt 0.800000 0.500000
vt 0.800000 0.750000
vt 0.802500 0.500000
vt 0.802500 0.750000
vt 0.805000 0.500000
vt 0.805000 0.750000
vt 0.807500 0.500000
vt 0.807500 0.750000
vt 0.810000 0.500000
vt 0.810000 0.750000
vt 0.812500 0.500000
vt 0.812500 0.750000
vt 0.815000 0.500000
vt 0.815000 0.750000
vt 0.817500 0.500000
vt 0.817500 0.750000
vt 0.820000 0.500000
vt 0.820000 0.750000
vt 0.822500 0.500000
vt 0.822500 0.750000
vt 0.825000 0.500000
vt 0.825000 0.750000
vt 0.827500 0.500000
vt 0.827500 0.750000
vt 0.830000 0.500000
vt 0.830000 0.750000
vt 0.832500 0.500000
vt 0.832500 0.750000
vt 0.835000 0.500000
vt 0.835000 0.750000
vt 0.837500 0.500000
vt 0.837500 0.750000
vt 0.840000 0.500000
vt 0.840000 0.750000
vt 0.842500 0.500000
vt 0.842500 0.750000
vt 0.845000 0.500000
vt 0.845000 0.750000
vt 0.847500 0.500000
vt 0.847500 0.750000
vt 0.850000 0.500000
vt 0.850000 0.750000
vt 0.852500 0.500000
vt 0.852500 0.750000
vt 0.855000 0.500000
vt 0.855000 0.750000
vt 0.857500 0.500000
vt 0.857500 0.750000
vt 0.860000 0.500000
vt 0.860000 0.750000
vt 0.862500 0.500000
vt 0.862500 0.750000
vt 0.865000 0.500000
vt 0.865000 0.750000
vt 0.867500 0.500000
vt 0.867500 0.750000
vt 0.870000 0.500000
vt 0.870000 0.750000
vt 0.125000 0.500000
vt 0.127500 0.500000
vt 0.127500 0.750000
vt 0.125000 0.750000
vt 0.130000 0.500000
vt 0.130000 0.750000
vt 0.132500 0.500000
vt 0.132500 0.750000
vt 0.135000 0.500000
vt 0.135000 0.750000
vt 0.137500 0.500000
vt 0.137500 0.750000
vt 0.140000 0.500000
vt 0.140000 0.750000
vt 0.142500 0.500000
vt 0.142500 0.750000
vt 0.145000 0.500000
vt 0.145000 0.750000
vt 0.147500 0.500000
vt 0.147500 0.750000
vt 0.150000 0.500000
vt 0.150000 0.750000
vt 0.152500 0.500000
vt 0.152500 0.750000
vt 0.155000 0.500000
vt 0.155000 0.750000
vt 0.157500 0.500000
vt 0.157500 0.750000
vt 0.160000 0.500000
vt 0.160000 0.750000
vt 0.162500 0.500000
vt 0.162500 0.750000
vt 0.165000 0.500000
vt 0.165000 0.750000
vt 0.167500 0.500000
vt 0.167500 0.750000
vt 0.170000 0.500000
vt 0.170000 0.750000
vt 0.172500 0.500000
vt 0.172500 0.750000
vt 0.175000 0.500000
vt 0.175000 0.750000
vt 0.177500 0.500000
vt 0.177500 0.750000
vt 0.180000 0.500000
vt 0.180000 0.750000
vt 0.182500 0.500000
vt 0.182500 0.750000
vt 0.185000 0.500000
vt 0.185000 0.750000
vt 0.187500 0.500000
vt 0.187500 0.750000
vt 0.190000 0.500000
vt 0.190000 0.750000
vt 0.192500 0.500000
vt 0.192500 0.750000
vt 0.195000 0.500000
vt 0.195000 0.750000
vt 0.197500 0.500000
vt 0.197500 0.750000
vt 0.200000 0.500000
vt 0.200000 0.750000
vt 0.202500 0.500000
vt 0.202500 0.750000
vt 0.205000 0.500000
vt 0.205000 0.750000
vt 0.207500 0.500000
vt 0.207500 0.750000
vt 0.210000 0.500000
vt 0.210000 0.750000
vt 0.212500 0.500000
vt 0.212500 0.750000
vt 0.215000 0.500000
vt 0.215000 0.750000
vt 0.217500 0.500000
vt 0.217500 0.750000
vt 0.220000 0.500000
vt 0.220000 0.750000
vt 0.222500 0.500000
vt 0.222500 0.750000
vt 0.225000 0.500000
vt 0.225000 0.750000
vt 0.227500 0.500000
vt 0.227500 0.750000
vt 0.230000 0.500000
vt 0.230000 0.750000
vt 0.232500 0.500000
vt 0.232500 0.750000
vt 0.235000 0.500000
vt 0.235000 0.750000
vt 0.237500 0.500000
vt 0.237500 0.750000
vt 0.240000 0.500000
vt 0.240000 0.750000
vt 0.242500 0.500000
vt 0.242500 0.750000
vt 0.245000 0.500000
vt 0.245000 0.750000
vt 0.247500 0.500000
vt 0.247500 0.750000
vt 0.250000 0.500000
vt 0.250000 0.750000
vt 0.252500 0.500000
vt 0.252500 0.750000
vt 0.255000 0.500000
vt 0.255000 0.750000
vt 0.257500 0.500000
vt 0.257500 0.750000
vt 0.260000 0.500000
vt 0.260000 0.750000
vt 0.262500 0.500000
vt 0.262500 0.750000
vt 0.265000 0.500000
vt 0.265000 0.750000
vt 0.267500 0.500000
vt 0.267500 0.750000
vt 0.270000 0.500000
vt 0.270000 0.750000
vt 0.272500 0.500000
vt 0.272500 0.750000
vt 0.275000 0.500000
vt 0.275000 0.750000
vt 0.277500 0.500000
vt 0.277500 0.750000
vt 0.280000 0.500000
vt 0.280000 0.750000
vt 0.282500 0.500000
vt 0.282500 0.750000
vt 0.285000 0.500000
vt 0.285000 0.750000
vt 0.287500 0.500000
vt 0.287500 0.750000
vt 0.290000 0.500000
vt 0.290000 0.750000
vt 0.292500 0.500000
vt 0.292500 0.750000
vt 0.295000 0.500000
vt 0.295000 0.750000
vt 0.297500 0.500000
vt 0.297500 0.750000
vt 0.300000 0.500000
vt 0.300000 0.750000
vt 0.302500 0.500000
vt 0.302500 0.750000
vt 0.305000 0.500000
vt 0.305000 0.750000
vt 0.307500 0.500000
vt 0.307500 0.750000
vt 0.310000 0.500000
vt 0.310000 0.750000
vt 0.312500 0.500000
vt 0.312500 0.750000
vt 0.315000 0.500000
vt 0.315000 0.750000
vt 0.317500 0.500000
vt 0.317500 0.750000
vt 0.320000 0.500000
vt 0.320000 0.750000
vt 0.322500 0.500000
vt 0.322500 0.750000
vt 0.325000 0.500000
vt 0.325000 0.750000
vt 0.327500 0.500000
vt 0.327500 0.750000
vt 0.330000 0.500000
vt 0.330000 0.750000
vt 0.332500 0.500000
vt 0.332500 0.750000
vt 0.335000 0.500000
vt 0.335000 0.750000
vt 0.337500 0.500000
vt 0.337500 0.750000
vt 0.340000 0.500000
vt 0.340000 0.750000
vt 0.342500 0.500000
vt 0.342500 0.750000
vt 0.345000 0.500000
vt 0.345000 0.750000
vt 0.347500 0.500000
vt 0.347500 0.750000
vt 0.350000 0.500000
vt 0.350000 0.750000
vt 0.352500 0.500000
vt 0.352500 0.750000
vt 0.355000 0.500000
vt 0.355000 0.750000
vt 0.357500 0.500000
vt 0.357500 0.750000
vt 0.360000 0.500000
vt 0.360000 0.750000
vt 0.362500 0.500000
vt 0.362500 0.750000
vt 0.365000 0.500000
vt 0.365000 0.750000
vt 0.367500 0.500000
vt 0.367500 0.750000
vt 0.370000 0.500000
vt 0.370000 0.750000
vt 0.625000 0.752500
vt 0.375000 0.752500
vt 0.625000 0.755000
vt 0.375000 0.755000
vt 0.625000 0.757500
vt 0.375000 0.757500
vt 0.625000 0.760000
vt 0.375000 0.760000
vt 0.625000 0.762500
vt 0.375000 0.762500
vt 0.625000 0.765000
vt 0.375000 0.765000
vt 0.625000 0.767500
vt 0.375000 0.767500
vt 0.625000 0.770000
vt 0.375000 0.770000
vt 0.625000 0.772500
vt 0.375000 0.772500
vt 0.625000 0.775000
vt 0.375000 0.775000
vt 0.625000 0.777500
vt 0.375000 0.777500
vt 0.625000 0.780000
vt 0.375000 0.780000
vt 0.625000 0.782500
vt 0.375000 0.782500
vt 0.625000 0.785000
vt 0.375000 0.785000
vt 0.625000 0.787500
vt 0.375000 0.787500
vt 0.625000 0.790000
vt 0.375000 0.790000
vt 0.625000 0.792500
vt 0.375000 0.792500
vt 0.625000 0.795000
vt 0.375000 0.795000
vt 0.625000 0.797500
vt 0.375000 0.797500
vt 0.625000 0.800000
vt 0.375000 0.800000
vt 0.625000 0.802500
vt 0.375000 0.802500
vt 0.625000 0.805000
vt 0.375000 0.805000
vt 0.625000 0.807500
vt 0.375000 0.807500
vt 0.625000 0.810000
vt 0.375000 0.810000
vt 0.625000 0.812500
vt 0.375000 0.812500
vt 0.625000 0.815000
vt 0.375000 0.815000
vt 0.625000 0.817500
vt 0.375000 0.817500
vt 0.625000 0.820000
vt 0.375000 0.820000
vt 0.625000 0.822500
vt 0.375000 0.822500
vt 0.625000 0.825000
vt 0.375000 0.825000
vt 0.625000 0.827500
vt 0.375000 0.827500
vt 0.625000 0.830000
vt 0.375000 0.830000
vt 0.625000 0.832500
vt 0.375000 0.832500
vt 0.625000 0.835000
vt 0.375000 0.835000
vt 0.625000 0.837500
vt 0.375000 0.837500
vt 0.625000 0.840000
vt 0.375000 0.840000
vt 0.625000 0.842500
vt 0.375000 0.842500
vt 0.625000 0.845000
vt 0.375000 0.845000
vt 0.625000 0.847500
vt 0.375000 0.847500
vt 0.625000 0.850000
vt 0.375000 0.850000
vt 0.625000 0.852500
vt 0.375000 0.852500
vt 0.625000 0.855000
vt 0.375000 0.855000
vt 0.625000 0.857500
vt 0.375000 0.857500
vt 0.625000 0.860000
vt 0.375000 0.860000
vt 0.625000 0.862500
vt 0.375000 0.862500
vt 0.625000 0.865000
vt 0.375000 0.865000
vt 0.625000 0.867500
vt 0.375000 0.867500
vt 0.625000 0.870000
vt 0.375000 0.870000
vt 0.625000 0.872500
vt 0.375000 0.872500
vt 0.625000 0.875000
vt 0.375000 0.875000
vt 0.625000 0.877500
vt 0.375000 0.877500
vt 0.625000 0.880000
vt 0.375000 0.880000
vt 0.625000 0.882500
vt 0.375000 0.882500
vt 0.625000 0.885000
vt 0.375000 0.885000
vt 0.625000 0.887500
vt 0.375000 0.887500
vt 0.625000 0.890000
vt 0.375000 0.890000
vt 0.625000 0.892500
vt 0.375000 0.892500
vt 0.625000 0.895000
vt 0.375000 0.895000
vt 0.625000 0.897500
vt 0.375000 0.897500
vt 0.625000 0.900000
vt 0.375000 0.900000
vt 0.625000 0.902500
vt 0.375000 0.902500
vt 0.625000 0.905000
vt 0.375000 0.905000
vt 0.625000 0.907500
vt 0.375000 0.907500
vt 0.625000 0.910000
vt 0.375000 0.910000
vt 0.625000 0.912500
vt 0.375000 0.912500
vt 0.625000 0.915000
vt 0.375000 0.915000
vt 0.625000 0.917500
vt 0.375000 0.917500
vt 0.625000 0.920000
vt 0.375000 0.920000
vt 0.625000 0.922500
vt 0.375000 0.922500
vt 0.625000 0.925000
vt 0.375000 0.925000
vt 0.625000 0.927500
vt 0.375000 0.927500
vt 0.625000 0.930000
vt 0.375000 0.930000
vt 0.625000 0.932500
vt 0.375000 0.932500
vt 0.625000 0.935000
vt 0.375000 0.935000
vt 0.625000 0.937500
vt 0.375000 0.937500
vt 0.625000 0.940000
vt 0.375000 0.940000
vt 0.625000 0.942500
vt 0.375000 0.942500
vt 0.625000 0.945000
vt 0.375000 0.945000
vt 0.625000 0.947500
vt 0.375000 0.947500
vt 0.625000 0.950000
vt 0.375000 0.950000
vt 0.625000 0.952500
vt 0.375000 0.952500
vt 0.625000 0.955000
vt 0.375000 0.955000
vt 0.625000 0.957500
vt 0.375000 0.957500
vt 0.625000 0.960000
vt 0.375000 0.960000
vt 0.625000 0.962500
vt 0.375000 0.962500
vt 0.625000 0.965000
vt 0.375000 0.965000
vt 0.625000 0.967500
vt 0.375000 0.967500
vt 0.625000 0.970000
vt 0.375000 0.970000
vt 0.625000 0.972500
vt 0.375000 0.972500
vt 0.625000 0.975000
vt 0.375000 0.975000
vt 0.625000 0.977500
vt 0.375000 0.977500
vt 0.625000 0.980000
vt 0.375000 0.980000
vt 0.625000 0.982500
vt 0.375000 0.982500
vt 0.625000 0.985000
vt 0.375000 0.985000
vt 0.625000 0.987500
vt 0.375000 0.987500
vt 0.625000 0.990000
vt 0.375000 0.990000
vt 0.625000 0.992500
vt 0.375000 0.992500
vt 0.625000 0.995000
vt 0.375000 0.995000
vt 0.625000 0.252500
vt 0.375000 0.252500
vt 0.625000 0.255000
vt 0.375000 0.255000
vt 0.625000 0.257500
vt 0.375000 0.257500
vt 0.625000 0.260000
vt 0.375000 0.260000
vt 0.625000 0.262500
vt 0.375000 0.262500
vt 0.625000 0.265000
vt 0.375000 0.265000
vt 0.625000 0.267500
vt 0.375000 0.267500
vt 0.625000 0.270000
vt 0.375000 0.270000
vt 0.625000 0.272500
vt 0.375000 0.272500
vt 0.625000 0.275000
vt 0.375000 0.275000
vt 0.625000 0.277500
vt 0.375000 0.277500
vt 0.625000 0.280000
vt 0.375000 0.280000
vt 0.625000 0.282500
vt 0.375000 0.282500
vt 0.625000 0.285000
vt 0.375000 0.285000
vt 0.625000 0.287500
vt 0.375000 0.287500
vt 0.625000 0.290000
vt 0.375000 0.290000
vt 0.625000 0.292500
vt 0.375000 0.292500
vt 0.625000 0.295000
vt 0.375000 0.295000
vt 0.625000 0.297500
vt 0.375000 0.297500
vt 0.625000 0.300000
vt 0.375000 0.300000
vt 0.625000 0.302500
vt 0.375000 0.302500
vt 0.625000 0.305000
vt 0.375000 0.305000
vt 0.625000 0.307500
vt 0.375000 0.307500
vt 0.625000 0.310000
vt 0.375000 0.310000
vt 0.625000 0.312500
vt 0.375000 0.312500
vt 0.625000 0.315000
vt 0.375000 0.315000
vt 0.625000 0.317500
vt 0.375000 0.317500
vt 0.625000 0.320000
vt 0.375000 0.320000
vt 0.625000 0.322500
vt 0.375000 0.322500
vt 0.625000 0.325000
vt 0.375000 0.325000
vt 0.625000 0.327500
vt 0.375000 0.327500
vt 0.625000 0.330000
vt 0.375000 0.330000
vt 0.625000 0.332500
vt 0.375000 0.332500
vt 0.625000 0.335000
vt 0.375000 0.335000
vt 0.625000 0.337500
vt 0.375000 0.337500
vt 0.625000 0.340000
vt 0.375000 0.340000
vt 0.625000 0.342500
vt 0.375000 0.342500
vt 0.625000 0.345000
vt 0.375000 0.345000
vt 0.625000 0.347500
vt 0.375000 0.347500
vt 0.625000 0.350000
vt 0.375000 0.350000
vt 0.625000 0.352500
vt 0.375000 0.352500
vt 0.625000 0.355000
vt 0.375000 0.355000
vt 0.625000 0.357500
vt 0.375000 0.357500
vt 0.625000 0.360000
vt 0.375000 0.360000
vt 0.625000 0.362500
vt 0.375000 0.362500
vt 0.625000 0.365000
vt 0.375000 0.365000
vt 0.625000 0.367500
vt 0.375000 0.367500
vt 0.625000 0.370000
vt 0.375000 0.370000
vt 0.625000 0.372500
vt 0.375000 0.372500
vt 0.625000 0.375000
vt 0.375000 0.375000
vt 0.625000 0.377500
vt 0.375000 0.377500
vt 0.625000 0.380000
vt 0.375000 0.380000
vt 0.625000 0.382500
vt 0.375000 0.382500
vt 0.625000 0.385000
vt 0.375000 0.385000
vt 0.625000 0.387500
vt 0.375000 0.387500
vt 0.625000 0.390000
vt 0.375000 0.390000
vt 0.625000 0.392500
vt 0.375000 0.392500
vt 0.625000 0.395000
vt 0.375000 0.395000
vt 0.625000 0.397500
vt 0.375000 0.397500
vt 0.625000 0.400000
vt 0.375000 0.400000
vt 0.625000 0.402500
vt 0.375000 0.402500
vt 0.625000 0.405000
vt 0.375000 0.405000
vt 0.625000 0.407500
vt 0.375000 0.407500
vt 0.625000 0.410000
vt 0.375000 0.410000
vt 0.625000 0.412500
vt 0.375000 0.412500
vt 0.625000 0.415000
vt 0.375000 0.415000
vt 0.625000 0.417500
vt 0.375000 0.417500
vt 0.625000 0.420000
vt 0.375000 0.420000
vt 0.625000 0.422500
vt 0.375000 0.422500
vt 0.625000 0.425000
vt 0.375000 0.425000
vt 0.625000 0.427500
vt 0.375000 0.427500
vt 0.625000 0.430000
vt 0.375000 0.430000
vt 0.625000 0.432500
vt 0.375000 0.432500
vt 0.625000 0.435000
vt 0.375000 0.435000
vt 0.625000 0.437500
vt 0.375000 0.437500
vt 0.625000 0.440000
vt 0.375000 0.440000
vt 0.625000 0.442500
vt 0.375000 0.442500
vt 0.625000 0.445000
vt 0.375000 0.445000
vt 0.625000 0.447500
vt 0.375000 0.447500
vt 0.625000 0.450000
vt 0.375000 0.450000
vt 0.625000 0.452500
vt 0.375000 0.452500
vt 0.625000 0.455000
vt 0.375000 0.455000
vt 0.625000 0.457500
vt 0.375000 0.457500
vt 0.625000 0.460000
vt 0.375000 0.460000
vt 0.625000 0.462500
vt 0.375000 0.462500
vt 0.625000 0.465000
vt 0.375000 0.465000
vt 0.625000 0.467500
vt 0.375000 0.467500
vt 0.625000 0.470000
vt 0.375000 0.470000
vt 0.625000 0.472500
vt 0.375000 0.472500
vt 0.625000 0.475000
vt 0.375000 0.475000
vt 0.625000 0.477500
vt 0.375000 0.477500
vt 0.625000 0.480000
vt 0.375000 0.480000
vt 0.625000 0.482500
vt 0.375000 0.482500
vt 0.625000 0.485000
vt 0.375000 0.485000
vt 0.625000 0.487500
vt 0.375000 0.487500
vt 0.625000 0.490000
vt 0.375000 0.490000
vt 0.625000 0.492500
vt 0.375000 0.492500
vt 0.625000 0.495000
vt 0.375000 0.495000
s 0
f 1/1/1 2/2/1 4/3/1 3/4/1
f 9/5/2 206/6/2 8/7/2 7/8/2
f 7/8/1 8/7/1 6/9/1 5/10/1
f 207/11/3 404/12/3 2/13/3 1/14/3
f 9/15/4 7/8/4 5/10/4 305/16/4
f 108/17/5 4/18/5 2/19/5 404/20/5
f 8/7/5 206/21/5 306/22/5 6/9/5
f 206/21/5 205/23/5 307/24/5 306/22/5
f 205/23/5 204/25/5 308/26/5 307/24/5
f 204/25/5 203/27/5 309/28/5 308/26/5
f 203/27/5 202/29/5 310/30/5 309/28/5
f 202/29/5 201/31/5 311/32/5 310/30/5
f 201/31/5 200/33/5 312/34/5 311/32/5
f 200/33/5 199/35/5 313/36/5 312/34/5
f 199/35/5 198/37/5 314/38/5 313/36/5
f 198/37/5 197/39/5 315/40/5 314/38/5
f 197/39/5 196/41/5 316/42/5 315/40/5
f 196/41/5 195/43/5 317/44/5 316/42/5
f 195/43/5 194/45/5 318/46/5 317/44/5
f 194/45/5 193/47/5 319/48/5 318/46/5
f 193/47/5 192/49/5 320/50/5 319/48/5
f 192/49/5 191/51/5 321/52/5 320/50/5
f 191/51/5 190/53/5 322/54/5 321/52/5
f 190/53/5 189/55/5 323/56/5 322/54/5
f 189/55/5 188/57/5 324/58/5 323/56/5
f 188/57/5 187/59/5 325/60/5 324/58/5
f 187/59/5 186/61/5 326/62/5 325/60/5
f 186/61/5 185/63/5 327/64/5 326/62/5
f 185/63/5 184/65/5 328/66/5 327/64/5
f 184/65/5 183/67/5 329/68/5 328/66/5
f 183/67/5 182/69/5 330/70/5 329/68/5
f 182/69/5 181/71/5 331/72/5 330/70/5
f 181/71/5 180/73/5 332/74/5 331/72/5
f 180/73/5 179/75/5 333/76/5 332/74/5
f 179/75/5 178/77/5 334/78/5 333/76/5
f 178/77/5 177/79/5 335/80/5 334/78/5
f 177/79/5 176/81/5 336/82/5 335/80/5
f 176/81/5 175/83/5 337/84/5 336/82/5
f 175/83/5 174/85/5 338/86/5 337/84/5
f 174/85/5 173/87/5 339/88/5 338/86/5
f 173/87/5 172/89/5 340/90/5 339/88/5
f 172/89/5 171/91/5 341/92/5 340/90/5
f 171/91/5 170/93/5 342/94/5 341/92/5
f 170/93/5 169/95/5 343/96/5 342/94/5
f 169/95/5 168/97/5 344/98/5 343/96/5
f 168/97/5 167/99/5 345/100/5 344/98/5
f 167/99/5 166/101/5 346/102/5 345/100/5
f 166/101/5 165/103/5 347/104/5 346/102/5
f 165/103/5 164/105/5 348/106/5 347/104/5
f 164/105/5 163/107/5 349/108/5 348/106/5
f 163/107/5 162/109/5 350/110/5 349/108/5
f 162/109/5 161/111/5 351/112/5 350/110/5
f 161/111/5 160/113/5 352/114/5 351/112/5
f 160/113/5 159/115/5 353/116/5 352/114/5
f 159/115/5 158/117/5 354/118/5 353/116/5
f 158/117/5 157/119/5 355/120/5 354/118/5
f 157/119/5 156/121/5 356/122/5 355/120/5
f 156/121/5 155/123/5 357/124/5 356/122/5
f 155/123/5 154/125/5 358/126/5 357/124/5
f 154/125/5 153/127/5 359/128/5 358/126/5
f 153/127/5 152/129/5 360/130/5 359/128/5
f 152/129/5 151/131/5 361/132/5 360/130/5
f 151/131/5 150/133/5 362/134/5 361/132/5
f 150/133/5 149/135/5 363/136/5 362/134/5
f 149/135/5 148/137/5 364/138/5 363/136/5
f 148/137/5 147/139/5 365/140/5 364/138/5
f 147/139/5 146/141/5 366/142/5 365/140/5
f 146/141/5 145/143/5 367/144/5 366/142/5
f 145/143/5 144/145/5 368/146/5 367/144/5
f 144/145/5 143/147/5 369/148/5 368/146/5
f 143/147/5 142/149/5 370/150/5 369/148/5
f 142/149/5 141/151/5 371/152/5 370/150/5
f 141/151/5 140/153/5 372/154/5 371/152/5
f 140/153/5 139/155/5 373/156/5 372/154/5
f 139/155/5 138/157/5 374/158/5 373/156/5
f 138/157/5 137/159/5 375/160/5 374/158/5
f 137/159/5 136/161/5 376/162/5 375/160/5
f 136/161/5 135/163/5 377/164/5 376/162/5
f 135/163/5 134/165/5 378/166/5 377/164/5
f 134/165/5 133/167/5 379/168/5 378/166/5
f 133/167/5 132/169/5 380/170/5 379/168/5
f 132/169/5 131/171/5 381/172/5 380/170/5
f 131/171/5 130/173/5 382/174/5 381/172/5
f 130/173/5 129/175/5 383/176/5 382/174/5
f 129/175/5 128/177/5 384/178/5 383/176/5
f 128/177/5 127/179/5 385/180/5 384/178/5
f 127/179/5 126/181/5 386/182/5 385/180/5
f 126/181/5 125/183/5 387/184/5 386/182/5
f 125/183/5 124/185/5 388/186/5 387/184/5
f 124/185/5 123/187/5 389/188/5 388/186/5
f 123/187/5 122/189/5 390/190/5 389/188/5
f 122/189/5 121/191/5 391/192/5 390/190/5
f 121/191/5 120/193/5 392/194/5 391/192/5
f 120/193/5 119/195/5 393/196/5 392/194/5
f 119/195/5 118/197/5 394/198/5 393/196/5
f 118/197/5 117/199/5 395/200/5 394/198/5
f 117/199/5 116/201/5 396/202/5 395/200/5
f 116/201/5 115/203/5 397/204/5 396/202/5
f 115/203/5 114/205/5 398/206/5 397/204/5
f 114/205/5 113/207/5 399/208/5 398/206/5
f 113/207/5 112/209/5 400/210/5 399/208/5
f 112/209/5 111/211/5 401/212/5 400/210/5
f 111/211/5 110/213/5 402/214/5 401/212/5
f 110/213/5 109/215/5 403/216/5 402/214/5
f 109/215/5 108/17/5 404/20/5 403/216/5
f 3/217/4 107/218/4 207/219/4 1/220/4
f 107/218/4 106/221/4 208/222/4 207/219/4
f 106/221/4 105/223/4 209/224/4 208/222/4
f 105/223/4 104/225/4 210/226/4 209/224/4
f 104/225/4 103/227/4 211/228/4 210/226/4
f 103/227/4 102/229/4 212/230/4 211/228/4
f 102/229/4 101/231/4 213/232/4 212/230/4
f 101/231/4 100/233/4 214/234/4 213/232/4
f 100/233/4 99/235/4 215/236/4 214/234/4
f 99/235/4 98/237/4 216/238/4 215/236/4
f 98/237/4 97/239/4 217/240/4 216/238/4
f 97/239/4 96/241/4 218/242/4 217/240/4
f 96/241/4 95/243/4 219/244/4 218/242/4
f 95/243/4 94/245/4 220/246/4 219/244/4
f 94/245/4 93/247/4 221/248/4 220/246/4
f 93/247/4 92/249/4 222/250/4 221/248/4
f 92/249/4 91/251/4 223/252/4 222/250/4
f 91/251/4 90/253/4 224/254/4 223/252/4
f 90/253/4 89/255/4 225/256/4 224/254/4
f 89/255/4 88/257/4 226/258/4 225/256/4
f 88/257/4 87/259/4 227/260/4 226/258/4
f 87/259/4 86/261/4 228/262/4 227/260/4
f 86/261/4 85/263/4 229/264/4 228/262/4
f 85/263/4 84/265/4 230/266/4 229/264/4
f 84/265/4 83/267/4 231/268/4 230/266/4
f 83/267/4 82/269/4 232/270/4 231/268/4
f 82/269/4 81/271/4 233/272/4 232/270/4
f 81/271/4 80/273/4 234/274/4 233/272/4
f 80/273/4 79/275/4 235/276/4 234/274/4
f 79/275/4 78/277/4 236/278/4 235/276/4
f 78/277/4 77/279/4 237/280/4 236/278/4
f 77/279/4 76/281/4 238/282/4 237/280/4
f 76/281/4 75/283/4 239/284/4 238/282/4
f 75/283/4 74/285/4 240/286/4 239/284/4
f 74/285/4 73/287/4 241/288/4 240/286/4
f 73/287/4 72/289/4 242/290/4 241/288/4
f 72/289/4 71/291/4 243/292/4 242/290/4
f 71/291/4 70/293/4 244/294/4 243/292/4
f 70/293/4 69/295/4 245/296/4 244/294/4
f 69/295/4 68/297/4 246/298/4 245/296/4
f 68/297/4 67/299/4 247/300/4 246/298/4
f 67/299/4 66/301/4 248/302/4 247/300/4
f 66/301/4 65/303/4 249/304/4 248/302/4
f 65/303/4 64/305/4 250/306/4 249/304/4
f 64/305/4 63/307/4 251/308/4 250/306/4
f 63/307/4 62/309/4 252/310/4 251/308/4
f 62/309/4 61/311/4 253/312/4 252/310/4
f 61/311/4 60/313/4 254/314/4 253/312/4
f 60/313/4 59/315/4 255/316/4 254/314/4
f 59/315/4 58/317/4 256/318/4 255/316/4
f 58/317/4 57/319/4 257/320/4 256/318/4
f 57/319/4 56/321/4 258/322/4 257/320/4
f 56/321/4 55/323/4 259/324/4 258/322/4
f 55/323/4 54/325/4 260/326/4 259/324/4
f 54/325/4 53/327/4 261/328/4 260/326/4
f 53/327/4 52/329/4 262/330/4 261/328/4
f 52/329/4 51/331/4 263/332/4 262/330/4
f 51/331/4 50/333/4 264/334/4 263/332/4
f 50/333/4 49/335/4 265/336/4 264/334/4
f 49/335/4 48/337/4 266/338/4 265/336/4
f 48/337/4 47/339/4 267/340/4 266/338/4
f 47/339/4 46/341/4 268/342/4 267/340/4
f 46/341/4 45/343/4 269/344/4 268/342/4
f 45/343/4 44/345/4 270/346/4 269/344/4
f 44/345/4 43/347/4 271/348/4 270/346/4
f 43/347/4 42/349/4 272/350/4 271/348/4
f 42/349/4 41/351/4 273/352/4 272/350/4
f 41/351/4 40/353/4 274/354/4 273/352/4
f 40/353/4 39/355/4 275/356/4 274/354/4
f 39/355/4 38/357/4 276/358/4 275/356/4
f 38/357/4 37/359/4 277/360/4 276/358/4
f 37/359/4 36/361/4 278/362/4 277/360/4
f 36/361/4 35/363/4 279/364/4 278/362/4
f 35/363/4 34/365/4 280/366/4 279/364/4
f 34/365/4 33/367/4 281/368/4 280/366/4
f 33/367/4 32/369/4 282/370/4 281/368/4
f 32/369/4 31/371/4 283/372/4 282/370/4
f 31/371/4 30/373/4 284/374/4 283/372/4
f 30/373/4 29/375/4 285/376/4 284/374/4
f 29/375/4 28/377/4 286/378/4 285/376/4
f 28/377/4 27/379/4 287/380/4 286/378/4
f 27/379/4 26/381/4 288/382/4 287/380/4
f 26/381/4 25/383/4 289/384/4 288/382/4
f 25/383/4 24/385/4 290/386/4 289/384/4
f 24/385/4 23/387/4 291/388/4 290/386/4
f 23/387/4 22/389/4 292/390/4 291/388/4
f 22/389/4 21/391/4 293/392/4 292/390/4
f 21/391/4 20/393/4 294/394/4 293/392/4
f 20/393/4 19/395/4 295/396/4 294/394/4
f 19/395/4 18/397/4 296/398/4 295/396/4
f 18/397/4 17/399/4 297/400/4 296/398/4
f 17/399/4 16/401/4 298/402/4 297/400/4
f 16/401/4 15/403/4 299/404/4 298/402/4
f 15/403/4 14/405/4 300/406/4 299/404/4
f 14/405/4 13/407/4 301/408/4 300/406/4
f 13/407/4 12/409/4 302/410/4 301/408/4
f 12/409/4 11/411/4 303/412/4 302/410/4
f 11/411/4 10/413/4 304/414/4 303/412/4
f 10/413/4 9/15/4 305/16/4 304/414/4
f 5/10/6 6/9/6 306/415/6 305/416/6
f 305/416/7 306/415/7 307/417/7 304/418/7
f 304/418/8 307/417/8 308/419/8 303/420/8
f 303/420/9 308/419/9 309/421/9 302/422/9
f 302/422/10 309/421/10 310/423/10 301/424/10
f 301/424/11 310/423/11 311/425/11 300/426/11
f 300/426/12 311/425/12 312/427/12 299/428/12
f 299/428/13 312/427/13 313/429/13 298/430/13
f 298/430/14 313/429/14 314/431/14 297/432/14
f 297/432/15 314/431/15 315/433/15 296/434/15
f 296/434/16 315/433/16 316/435/16 295/436/16
f 295/436/17 316/435/17 317/437/17 294/438/17
f 294/438/18 317/437/18 318/439/18 293/440/18
f 293/440/19 318/439/19 319/441/19 292/442/19
f 292/442/20 319/441/20 320/443/20 291/444/20
f 291/444/21 320/443/21 321/445/21 290/446/21
f 290/446/22 321/445/22 322/447/22 289/448/22
f 289/448/23 322/447/23 323/449/23 288/450/23
f 288/450/24 323/449/24 324/451/24 287/452/24
f 287/452/25 324/451/25 325/453/25 286/454/25
f 286/454/26 325/453/26 326/455/26 285/456/26
f 285/456/27 326/455/27 327/457/27 284/458/27
f 284/458/28 327/457/28 328/459/28 283/460/28
f 283/460/29 328/459/29 329/461/29 282/462/29
f 282/462/30 329/461/30 330/463/30 281/464/30
f 281/464/31 330/463/31 331/465/31 280/466/31
f 280/466/32 331/465/32 332/467/32 279/468/32
f 279/468/33 332/467/33 333/469/33 278/470/33
f 278/470/34 333/469/34 334/471/34 277/472/34
f 277/472/35 334/471/35 335/473/35 276/474/35
f 276/474/36 335/473/36 336/475/36 275/476/36
f 275/476/37 336/475/37 337/477/37 274/478/37
f 274/478/38 337/477/38 338/479/38 273/480/38
f 273/480/39 338/479/39 339/481/39 272/482/39
f 272/482/40 339/481/40 340/483/40 271/484/40
f 271/484/41 340/483/41 341/485/41 270/486/41
f 270/486/42 341/485/42 342/487/42 269/488/42
f 269/488/43 342/487/43 343/489/43 268/490/43
f 268/490/44 343/489/44 344/491/44 267/492/44
f 267/492/45 344/491/45 345/493/45 266/494/45
f 266/494/46 345/493/46 346/495/46 265/496/46
f 265/496/47 346/495/47 347/497/47 264/498/47
f 264/498/48 347/497/48 348/499/48 263/500/48
f 263/500/49 348/499/49 349/501/49 262/502/49
f 262/502/50 349/501/50 350/503/50 261/504/50
f 261/504/51 350/503/51 351/505/51 260/506/51
f 260/506/52 351/505/52 352/507/52 259/508/52
f 259/508/53 352/507/53 353/509/53 258/510/53
f 258/510/54 353/509/54 354/511/54 257/512/54
f 257/512/55 354/511/55 355/513/55 256/514/55
f 256/514/56 355/513/56 356/515/56 255/516/56
f 255/516/57 356/515/57 357/517/57 254/518/57
f 254/518/58 357/517/58 358/519/58 253/520/58
f 253/520/59 358/519/59 359/521/59 252/522/59
f 252/522/60 359/521/60 360/523/60 251/524/60
f 251/524/61 360/523/61 361/525/61 250/526/61
f 250/526/62 361/525/62 362/527/62 249/528/62
f 249/528/63 362/527/63 363/529/63 248/530/63
f 248/530/64 363/529/64 364/531/64 247/532/64
f 247/532/65 364/531/65 365/533/65 246/534/65
f 246/534/66 365/533/66 366/535/66 245/536/66
f 245/536/67 366/535/67 367/537/67 244/538/67
f 244/538/68 367/537/68 368/539/68 243/540/68
f 243/540/69 368/539/69 369/541/69 242/542/69
f 242/542/70 369/541/70 370/543/70 241/544/70
f 241/544/71 370/543/71 371/545/71 240/546/71
f 240/546/72 371/545/72 372/547/72 239/548/72
f 239/548/73 372/547/73 373/549/73 238/550/73
f 238/550/74 373/549/74 374/551/74 237/552/74
f 237/552/75 374/551/75 375/553/75 236/554/75
f 236/554/76 375/553/76 376/555/76 235/556/76
f 235/556/77 376/555/77 377/557/77 234/558/77
f 234/558/78 377/557/78 378/559/78 233/560/78
f 233/560/79 378/559/79 379/561/79 232/562/79
f 232/562/80 379/561/80 380/563/80 231/564/80
f 231/564/81 380/563/81 381/565/81 230/566/81
f 230/566/82 381/565/82 382/567/82 229/568/82
f 229/568/83 382/567/83 383/569/83 228/570/83
f 228/570/84 383/569/84 384/571/84 227/572/84
f 227/572/85 384/571/85 385/573/85 226/574/85
f 226/574/86 385/573/86 386/575/86 225/576/86
f 225/576/87 386/575/87 387/577/87 224/578/87
f 224/578/88 387/577/88 388/579/88 223/580/88
f 223/580/89 388/579/89 389/581/89 222/582/89
f 222/582/90 389/581/90 390/583/90 221/584/90
f 221/584/91 390/583/91 391/585/91 220/586/91
f 220/586/92 391/585/92 392/587/92 219/588/92
f 219/588/93 392/587/93 393/589/93 218/590/93
f 218/590/94 393/589/94 394/591/94 217/592/94
f 217/592/95 394/591/95 395/593/95 216/594/95
f 216/594/96 395/593/96 396/595/96 215/596/96
f 215/596/97 396/595/97 397/597/97 214/598/97
f 214/598/98 397/597/98 398/599/98 213/600/98
f 213/600/99 398/599/99 399/601/99 212/602/99
f 212/602/100 399/601/100 400/603/100 211/604/100
f 211/604/101 400/603/101 401/605/101 210/606/101
f 210/606/102 401/605/102 402/607/102 209/608/102
f 209/608/103 402/607/103 403/609/103 208/610/103
f 208/610/104 403/609/104 404/12/104 207/11/104
f 3/4/105 4/3/105 108/611/105 107/612/105
f 107/612/106 108/611/106 109/613/106 106/614/106
f 106/614/107 109/613/107 110/615/107 105/616/107
f 105/616/108 110/615/108 111/617/108 104/618/108
f 104/618/109 111/617/109 112/619/109 103/620/109
f 103/620/110 112/619/110 113/621/110 102/622/110
f 102/622/111 113/621/111 114/623/111 101/624/111
f 101/624/112 114/623/112 115/625/112 100/626/112
f 100/626/113 115/625/113 116/627/113 99/628/113
f 99/628/114 116/627/114 117/629/114 98/630/114
f 98/630/115 117/629/115 118/631/115 97/632/115
f 97/632/116 118/631/116 119/633/116 96/634/116
f 96/634/117 119/633/117 120/635/117 95/636/117
f 95/636/118 120/635/118 121/637/118 94/638/118
f 94/638/119 121/637/119 122/639/119 93/640/119
f 93/640/120 122/639/120 123/641/120 92/642/120
f 92/642/121 123/641/121 124/643/121 91/644/121
f 91/644/122 124/643/122 125/645/122 90/646/122
f 90/646/123 125/645/123 126/647/123 89/648/123
f 89/648/124 126/647/124 127/649/124 88/650/124
f 88/650/125 127/649/125 128/651/125 87/652/125
f 87/652/126 128/651/126 129/653/126 86/654/126
f 86/654/127 129/653/127 130/655/127 85/656/127
f 85/656/128 130/655/128 131/657/128 84/658/128
f 84/658/129 131/657/129 132/659/129 83/660/129
f 83/660/130 132/659/130 133/661/130 82/662/130
f 82/662/131 133/661/131 134/663/131 81/664/131
f 81/664/132 134/663/132 135/665/132 80/666/132
f 80/666/133 135/665/133 136/667/133 79/668/133
f 79/668/134 136/667/134 137/669/134 78/670/134
f 78/670/135 137/669/135 138/671/135 77/672/135
f 77/672/136 138/671/136 139/673/136 76/674/136
f 76/674/137 139/673/137 140/675/137 75/676/137
f 75/676/138 140/675/138 141/677/138 74/678/138
f 74/678/139 141/677/139 142/679/139 73/680/139
f 73/680/140 142/679/140 143/681/140 72/682/140
f 72/682/141 143/681/141 144/683/141 71/684/141
f 71/684/142 144/683/142 145/685/142 70/686/142
f 70/686/143 145/685/143 146/687/143 69/688/143
f 69/688/144 146/687/144 147/689/144 68/690/144
f 68/690/145 147/689/145 148/691/145 67/692/145
f 67/692/146 148/691/146 149/693/146 66/694/146
f 66/694/147 149/693/147 150/695/147 65/696/147
f 65/696/148 150/695/148 151/697/148 64/698/148
f 64/698/149 151/697/149 152/699/149 63/700/149
f 63/700/150 152/699/150 153/701/150 62/702/150
f 62/702/151 153/701/151 154/703/151 61/704/151
f 61/704/152 154/703/152 155/705/152 60/706/152
f 60/706/153 155/705/153 156/707/153 59/708/153
f 59/708/154 156/707/154 157/709/154 58/710/154
f 58/710/155 157/709/155 158/711/155 57/712/155
f 57/712/156 158/711/156 159/713/156 56/714/156
f 56/714/157 159/713/157 160/715/157 55/716/157
f 55/716/158 160/715/158 161/717/158 54/718/158
f 54/718/159 161/717/159 162/719/159 53/720/159
f 53/720/160 162/719/160 163/721/160 52/722/160
f 52/722/161 163/721/161 164/723/161 51/724/161
f 51/724/162 164/723/162 165/725/162 50/726/162
f 50/726/163 165/725/163 166/727/163 49/728/163
f 49/728/164 166/727/164 167/729/164 48/730/164
f 48/730/165 167/729/165 168/731/165 47/732/165
f 47/732/166 168/731/166 169/733/166 46/734/166
f 46/734/167 169/733/167 170/735/167 45/736/167
f 45/736/168 170/735/168 171/737/168 44/738/168
f 44/738/169 171/737/169 172/739/169 43/740/169
f 43/740/170 172/739/170 173/741/170 42/742/170
f 42/742/171 173/741/171 174/743/171 41/744/171
f 41/744/172 174/743/172 175/745/172 40/746/172
f 40/746/173 175/745/173 176/747/173 39/748/173
f 39/748/174 176/747/174 177/749/174 38/750/174
f 38/750/175 177/749/175 178/751/175 37/752/175
f 37/752/176 178/751/176 179/753/176 36/754/176
f 36/754/177 179/753/177 180/755/177 35/756/177
f 35/756/178 180/755/178 181/757/178 34/758/178
f 34/758/179 181/757/179 182/759/179 33/760/179
f 33/760/180 182/759/180 183/761/180 32/762/180
f 32/762/181 183/761/181 184/763/181 31/764/181
f 31/764/182 184/763/182 185/765/182 30/766/182
f 30/766/183 185/765/183 186/767/183 29/768/183
f 29/768/184 186/767/184 187/769/184 28/770/184
f 28/770/185 187/769/185 188/771/185 27/772/185
f 27/772/186 188/771/186 189/773/186 26/774/186
f 26/774/187 189/773/187 190/775/187 25/776/187
f 25/776/188 190/775/188 191/777/188 24/778/188
f 24/778/189 191/777/189 192/779/189 23/780/189
f 23/780/190 192/779/190 193/781/190 22/782/190
f 22/782/191 193/781/191 194/783/191 21/784/191
f 21/784/192 194/783/192 195/785/192 20/786/192
f 20/786/193 195/785/193 196/787/193 19/788/193
f 19/788/194 196/787/194 197/789/194 18/790/194
f 18/790/195 197/789/195 198/791/195 17/792/195
f 17/792/196 198/791/196 199/793/196 16/794/196
f 16/794/197 199/793/197 200/795/197 15/796/197
f 15/796/198 200/795/198 201/797/198 14/798/198
f 14/798/199 201/797/199 202/799/199 13/800/199
f 13/800/200 202/799/200 203/801/200 12/802/200
f 12/802/201 203/801/201 204/803/201 11/804/201
f 11/804/202 204/803/202 205/805/202 10/806/202
f 10/806/203 205/805/203 206/6/203 9/5/203
