# Blender 4.2.3 LTS
# www.blender.org
mtllib Angle45Curve3.mtl
o Cube.001
v -48.551350 12.088503 -30.000000
v -48.551350 12.088501 30.000000
v -41.480278 17.745358 -30.000000
v -41.480278 17.745354 30.000000
v 48.551350 12.088503 -30.000000
v 48.551350 12.088501 30.000000
v 41.480278 17.745358 -30.000000
v 41.480278 17.745354 30.000000
v 40.979927 17.349848 -30.000000
v 40.473686 16.959166 -30.000000
v 39.961620 16.573364 -30.000000
v 39.443813 16.192507 -30.000000
v 38.920330 15.816640 -30.000000
v 38.391258 15.445827 -30.000000
v 37.856659 15.080112 -30.000000
v 37.316620 14.719553 -30.000000
v 36.771214 14.364197 -30.000000
v 36.220528 14.014102 -30.000000
v 35.664623 13.669312 -30.000000
v 35.103600 13.329883 -30.000000
v 34.537521 12.995855 -30.000000
v 33.966488 12.667285 -30.000000
v 33.390560 12.344214 -30.000000
v 32.809837 12.026690 -30.000000
v 32.224396 11.714762 -30.000000
v 31.634321 11.408471 -30.000000
v 31.039698 11.107862 -30.000000
v 30.440615 10.812980 -30.000000
v 29.837149 10.523864 -30.000000
v 29.229397 10.240559 -30.000000
v 28.617443 9.963102 -30.000000
v 28.001373 9.691537 -30.000000
v 27.381277 9.425899 -30.000000
v 26.757244 9.166230 -30.000000
v 26.129364 8.912567 -30.000000
v 25.497730 8.664943 -30.000000
v 24.862427 8.423398 -30.000000
v 24.223553 8.187961 -30.000000
v 23.581192 7.958673 -30.000000
v 22.935440 7.735561 -30.000000
v 22.286394 7.518659 -30.000000
v 21.634140 7.308001 -30.000000
v 20.978777 7.103611 -30.000000
v 20.320398 6.905525 -30.000000
v 19.659100 6.713768 -30.000000
v 18.994972 6.528368 -30.000000
v 18.328112 6.349351 -30.000000
v 17.658619 6.176746 -30.000000
v 16.986588 6.010574 -30.000000
v 16.312113 5.850861 -30.000000
v 15.635294 5.697629 -30.000000
v 14.956225 5.550901 -30.000000
v 14.275007 5.410696 -30.000000
v 13.591737 5.277036 -30.000000
v 12.906512 5.149942 -30.000000
v 12.219431 5.029426 -30.000000
v 11.530594 4.915512 -30.000000
v 10.840099 4.808214 -30.000000
v 10.148045 4.707547 -30.000000
v 9.454533 4.613524 -30.000000
v 8.759660 4.526165 -30.000000
v 8.063530 4.445473 -30.000000
v 7.366240 4.371467 -30.000000
v 6.667890 4.304152 -30.000000
v 5.968581 4.243544 -30.000000
v 5.268415 4.189647 -30.000000
v 4.567491 4.142469 -30.000000
v 3.865911 4.102019 -30.000000
v 3.163774 4.068304 -30.000000
v 2.461183 4.041325 -30.000000
v 1.758237 4.021087 -30.000000
v 1.055039 4.007593 -30.000000
v 0.351690 4.000846 -30.000000
v -0.351711 4.000846 -30.000000
v -1.055060 4.007593 -30.000000
v -1.758259 4.021087 -30.000000
v -2.461204 4.041325 -30.000000
v -3.163795 4.068304 -30.000000
v -3.865932 4.102022 -30.000000
v -4.567513 4.142472 -30.000000
v -5.268436 4.189647 -30.000000
v -5.968603 4.243544 -30.000000
v -6.667911 4.304154 -30.000000
v -7.366261 4.371467 -30.000000
v -8.063552 4.445476 -30.000000
v -8.759682 4.526167 -30.000000
v -9.454555 4.613527 -30.000000
v -10.148067 4.707550 -30.000000
v -10.840120 4.808217 -30.000000
v -11.530617 4.915515 -30.000000
v -12.219453 5.029429 -30.000000
v -12.906533 5.149945 -30.000000
v -13.591759 5.277039 -30.000000
v -14.275028 5.410701 -30.000000
v -14.956247 5.550904 -30.000000
v -15.635315 5.697635 -30.000000
v -16.312134 5.850867 -30.000000
v -16.986609 6.010580 -30.000000
v -17.658642 6.176751 -30.000000
v -18.328135 6.349357 -30.000000
v -18.994993 6.528373 -30.000000
v -19.659119 6.713773 -30.000000
v -20.320417 6.905530 -30.000000
v -20.978798 7.103619 -30.000000
v -21.634159 7.308006 -30.000000
v -22.286413 7.518665 -30.000000
v -22.935459 7.735567 -30.000000
v -23.581211 7.958679 -30.000000
v -24.223572 8.187969 -30.000000
v -24.862446 8.423404 -30.000000
v -25.497749 8.664951 -30.000000
v -26.129387 8.912576 -30.000000
v -26.757263 9.166239 -30.000000
v -27.381296 9.425907 -30.000000
v -28.001394 9.691545 -30.000000
v -28.617460 9.963111 -30.000000
v -29.229416 10.240567 -30.000000
v -29.837166 10.523872 -30.000000
v -30.440632 10.812988 -30.000000
v -31.039715 11.107871 -30.000000
v -31.634335 11.408481 -30.000000
v -32.224411 11.714770 -30.000000
v -32.809853 12.026700 -30.000000
v -33.390575 12.344220 -30.000000
v -33.966496 12.667291 -30.000000
v -34.537537 12.995860 -30.000000
v -35.103611 13.329888 -30.000000
v -35.664635 13.669319 -30.000000
v -36.220535 14.014108 -30.000000
v -36.771225 14.364205 -30.000000
v -37.316631 14.719559 -30.000000
v -37.856670 15.080117 -30.000000
v -38.391270 15.445832 -30.000000
v -38.920338 15.816646 -30.000000
v -39.443813 16.192513 -30.000000
v -39.961628 16.573370 -30.000000
v -40.473686 16.959166 -30.000000
v -40.979927 17.349848 -30.000000
v -40.979927 17.349844 30.000000
v -40.473686 16.959162 30.000000
v -39.961620 16.573360 30.000000
v -39.443813 16.192503 30.000000
v -38.920330 15.816638 30.000000
v -38.391258 15.445825 30.000000
v -37.856659 15.080110 30.000000
v -37.316620 14.719551 30.000000
v -36.771214 14.364195 30.000000
v -36.220528 14.014100 30.000000
v -35.664623 13.669310 30.000000
v -35.103600 13.329881 30.000000
v -34.537521 12.995853 30.000000
v -33.966488 12.667283 30.000000
v -33.390560 12.344213 30.000000
v -32.809837 12.026689 30.000000
v -32.224396 11.714760 30.000000
v -31.634321 11.408469 30.000000
v -31.039698 11.107861 30.000000
v -30.440615 10.812978 30.000000
v -29.837149 10.523862 30.000000
v -29.229397 10.240557 30.000000
v -28.617443 9.963100 30.000000
v -28.001373 9.691535 30.000000
v -27.381277 9.425897 30.000000
v -26.757244 9.166228 30.000000
v -26.129364 8.912565 30.000000
v -25.497730 8.664941 30.000000
v -24.862427 8.423396 30.000000
v -24.223553 8.187959 30.000000
v -23.581192 7.958671 30.000000
v -22.935440 7.735559 30.000000
v -22.286394 7.518656 30.000000
v -21.634140 7.307998 30.000000
v -20.978777 7.103608 30.000000
v -20.320398 6.905522 30.000000
v -19.659100 6.713765 30.000000
v -18.994972 6.528365 30.000000
v -18.328112 6.349348 30.000000
v -17.658619 6.176743 30.000000
v -16.986588 6.010571 30.000000
v -16.312113 5.850858 30.000000
v -15.635294 5.697627 30.000000
v -14.956225 5.550898 30.000000
v -14.275007 5.410693 30.000000
v -13.591737 5.277033 30.000000
v -12.906512 5.149939 30.000000
v -12.219431 5.029423 30.000000
v -11.530594 4.915509 30.000000
v -10.840099 4.808211 30.000000
v -10.148045 4.707544 30.000000
v -9.454533 4.613522 30.000000
v -8.759660 4.526162 30.000000
v -8.063530 4.445470 30.000000
v -7.366240 4.371464 30.000000
v -6.667890 4.304149 30.000000
v -5.968581 4.243541 30.000000
v -5.268415 4.189644 30.000000
v -4.567491 4.142467 30.000000
v -3.865911 4.102016 30.000000
v -3.163774 4.068301 30.000000
v -2.461183 4.041322 30.000000
v -1.758237 4.021084 30.000000
v -1.055039 4.007590 30.000000
v -0.351690 4.000844 30.000000
v 0.351711 4.000844 30.000000
v 1.055060 4.007590 30.000000
v 1.758259 4.021084 30.000000
v 2.461204 4.041322 30.000000
v 3.163795 4.068301 30.000000
v 3.865932 4.102019 30.000000
v 4.567513 4.142469 30.000000
v 5.268436 4.189644 30.000000
v 5.968603 4.243541 30.000000
v 6.667911 4.304152 30.000000
v 7.366261 4.371464 30.000000
v 8.063552 4.445473 30.000000
v 8.759682 4.526164 30.000000
v 9.454555 4.613524 30.000000
v 10.148067 4.707547 30.000000
v 10.840120 4.808214 30.000000
v 11.530617 4.915512 30.000000
v 12.219453 5.029426 30.000000
v 12.906533 5.149942 30.000000
v 13.591759 5.277036 30.000000
v 14.275028 5.410698 30.000000
v 14.956247 5.550901 30.000000
v 15.635315 5.697632 30.000000
v 16.312134 5.850864 30.000000
v 16.986609 6.010577 30.000000
v 17.658642 6.176748 30.000000
v 18.328135 6.349354 30.000000
v 18.994993 6.528370 30.000000
v 19.659119 6.713770 30.000000
v 20.320417 6.905528 30.000000
v 20.978798 7.103616 30.000000
v 21.634159 7.308003 30.000000
v 22.286413 7.518662 30.000000
v 22.935459 7.735564 30.000000
v 23.581211 7.958676 30.000000
v 24.223572 8.187967 30.000000
v 24.862446 8.423402 30.000000
v 25.497749 8.664949 30.000000
v 26.129387 8.912574 30.000000
v 26.757263 9.166237 30.000000
v 27.381296 9.425905 30.000000
v 28.001394 9.691544 30.000000
v 28.617460 9.963109 30.000000
v 29.229416 10.240565 30.000000
v 29.837166 10.523870 30.000000
v 30.440632 10.812986 30.000000
v 31.039715 11.107869 30.000000
v 31.634335 11.408479 30.000000
v 32.224411 11.714768 30.000000
v 32.809853 12.026698 30.000000
v 33.390575 12.344218 30.000000
v 33.966496 12.667289 30.000000
v 34.537537 12.995858 30.000000
v 35.103611 13.329886 30.000000
v 35.664635 13.669317 30.000000
v 36.220535 14.014106 30.000000
v 36.771225 14.364203 30.000000
v 37.316631 14.719557 30.000000
v 37.856670 15.080115 30.000000
v 38.391270 15.445830 30.000000
v 38.920338 15.816644 30.000000
v 39.443813 16.192509 30.000000
v 39.961628 16.573366 30.000000
v 40.473686 16.959162 30.000000
v 40.979927 17.349844 30.000000
v -47.965702 11.625571 -30.000000
v -47.373161 11.168290 -30.000000
v -46.773804 10.716722 -30.000000
v -46.167725 10.270939 -30.000000
v -45.555008 9.831000 -30.000000
v -44.935745 9.396976 -30.000000
v -44.310017 8.968919 -30.000000
v -43.677917 8.546896 -30.000000
v -43.039536 8.130962 -30.000000
v -42.394974 7.721189 -30.000000
v -41.744308 7.317622 -30.000000
v -41.087646 6.920331 -30.000000
v -40.425072 6.529362 -30.000000
v -39.756691 6.144782 -30.000000
v -39.082588 5.766637 -30.000000
v -38.402870 5.394987 -30.000000
v -37.717628 5.029883 -30.000000
v -37.026966 4.671381 -30.000000
v -36.330978 4.319527 -30.000000
v -35.629772 3.974376 -30.000000
v -34.923431 3.635976 -30.000000
v -34.212082 3.304376 -30.000000
v -33.495804 2.979622 -30.000000
v -32.774715 2.661763 -30.000000
v -32.048916 2.350842 -30.000000
v -31.318504 2.046909 -30.000000
v -30.583591 1.750003 -30.000000
v -29.844282 1.460168 -30.000000
v -29.100681 1.177446 -30.000000
v -28.352894 0.901875 -30.000000
v -27.601034 0.633501 -30.000000
v -26.845205 0.372355 -30.000000
v -26.085514 0.118478 -30.000000
v -25.322073 -0.128091 -30.000000
v -24.554993 -0.367323 -30.000000
v -23.784380 -0.599176 -30.000000
v -23.010351 -0.823622 -30.000000
v -22.233011 -1.040627 -30.000000
v -21.452473 -1.250160 -30.000000
v -20.668852 -1.452189 -30.000000
v -19.882261 -1.646688 -30.000000
v -19.092810 -1.833626 -30.000000
v -18.300613 -2.012979 -30.000000
v -17.505785 -2.184720 -30.000000
v -16.708443 -2.348825 -30.000000
v -15.908695 -2.505270 -30.000000
v -15.106661 -2.654030 -30.000000
v -14.302456 -2.795089 -30.000000
v -13.496194 -2.928422 -30.000000
v -12.687992 -3.054012 -30.000000
v -11.877964 -3.171839 -30.000000
v -11.066229 -3.281889 -30.000000
v -10.252904 -3.384142 -30.000000
v -9.438105 -3.478588 -30.000000
v -8.621949 -3.565210 -30.000000
v -7.804552 -3.644001 -30.000000
v -6.986034 -3.714939 -30.000000
v -6.166512 -3.778024 -30.000000
v -5.346103 -3.833244 -30.000000
v -4.524925 -3.880590 -30.000000
v -3.703097 -3.920053 -30.000000
v -2.880736 -3.951631 -30.000000
v -2.057961 -3.975319 -30.000000
v -1.234890 -3.991113 -30.000000
v -0.411642 -3.999010 -30.000000
v 0.411666 -3.999010 -30.000000
v 1.234915 -3.991113 -30.000000
v 2.057986 -3.975319 -30.000000
v 2.880761 -3.951631 -30.000000
v 3.703122 -3.920053 -30.000000
v 4.524951 -3.880587 -30.000000
v 5.346128 -3.833241 -30.000000
v 6.166537 -3.778024 -30.000000
v 6.986060 -3.714939 -30.000000
v 7.804577 -3.643997 -30.000000
v 8.621973 -3.565210 -30.000000
v 9.438130 -3.478585 -30.000000
v 10.252929 -3.384138 -30.000000
v 11.066256 -3.281886 -30.000000
v 11.877990 -3.171835 -30.000000
v 12.688016 -3.054008 -30.000000
v 13.496219 -2.928419 -30.000000
v 14.302481 -2.795086 -30.000000
v 15.106687 -2.654027 -30.000000
v 15.908722 -2.505267 -30.000000
v 16.708467 -2.348819 -30.000000
v 17.505812 -2.184717 -30.000000
v 18.300638 -2.012973 -30.000000
v 19.092834 -1.833620 -30.000000
v 19.882284 -1.646681 -30.000000
v 20.668879 -1.452182 -30.000000
v 21.452499 -1.250153 -30.000000
v 22.233032 -1.040620 -30.000000
v 23.010372 -0.823615 -30.000000
v 23.784405 -0.599169 -30.000000
v 24.555016 -0.367313 -30.000000
v 25.322096 -0.128085 -30.000000
v 26.085537 0.118485 -30.000000
v 26.845226 0.372362 -30.000000
v 27.601055 0.633507 -30.000000
v 28.352919 0.901885 -30.000000
v 29.100702 1.177453 -30.000000
v 29.844303 1.460178 -30.000000
v 30.583614 1.750014 -30.000000
v 31.318527 2.046918 -30.000000
v 32.048935 2.350852 -30.000000
v 32.774738 2.661773 -30.000000
v 33.495827 2.979632 -30.000000
v 34.212105 3.304386 -30.000000
v 34.923454 3.635986 -30.000000
v 35.629791 3.974386 -30.000000
v 36.331001 4.319537 -30.000000
v 37.026981 4.671391 -30.000000
v 37.717644 5.029893 -30.000000
v 38.402889 5.394997 -30.000000
v 39.082603 5.766645 -30.000000
v 39.756702 6.144788 -30.000000
v 40.425087 6.529369 -30.000000
v 41.087654 6.920337 -30.000000
v 41.744316 7.317631 -30.000000
v 42.394985 7.721195 -30.000000
v 43.039551 8.130973 -30.000000
v 43.677933 8.546902 -30.000000
v 44.310028 8.968925 -30.000000
v 44.935757 9.396981 -30.000000
v 45.555016 9.831008 -30.000000
v 46.167732 10.270946 -30.000000
v 46.773811 10.716729 -30.000000
v 47.373161 11.168290 -30.000000
v 47.965702 11.625571 -30.000000
v 47.965702 11.625569 30.000000
v 47.373161 11.168288 30.000000
v 46.773804 10.716720 30.000000
v 46.167725 10.270937 30.000000
v 45.555008 9.830998 30.000000
v 44.935745 9.396974 30.000000
v 44.310017 8.968917 30.000000
v 43.677917 8.546894 30.000000
v 43.039536 8.130960 30.000000
v 42.394974 7.721186 30.000000
v 41.744308 7.317619 30.000000
v 41.087646 6.920329 30.000000
v 40.425072 6.529359 30.000000
v 39.756691 6.144779 30.000000
v 39.082588 5.766634 30.000000
v 38.402870 5.394984 30.000000
v 37.717628 5.029880 30.000000
v 37.026966 4.671378 30.000000
v 36.330978 4.319524 30.000000
v 35.629772 3.974373 30.000000
v 34.923431 3.635973 30.000000
v 34.212082 3.304373 30.000000
v 33.495804 2.979619 30.000000
v 32.774715 2.661761 30.000000
v 32.048916 2.350840 30.000000
v 31.318504 2.046906 30.000000
v 30.583591 1.750001 30.000000
v 29.844282 1.460165 30.000000
v 29.100681 1.177444 30.000000
v 28.352894 0.901873 30.000000
v 27.601034 0.633498 30.000000
v 26.845205 0.372353 30.000000
v 26.085514 0.118476 30.000000
v 25.322073 -0.128094 30.000000
v 24.554993 -0.367326 30.000000
v 23.784380 -0.599178 30.000000
v 23.010351 -0.823625 30.000000
v 22.233011 -1.040629 30.000000
v 21.452473 -1.250162 30.000000
v 20.668852 -1.452191 30.000000
v 19.882261 -1.646690 30.000000
v 19.092810 -1.833629 30.000000
v 18.300613 -2.012982 30.000000
v 17.505785 -2.184723 30.000000
v 16.708443 -2.348828 30.000000
v 15.908695 -2.505273 30.000000
v 15.106661 -2.654033 30.000000
v 14.302456 -2.795092 30.000000
v 13.496194 -2.928425 30.000000
v 12.687992 -3.054015 30.000000
v 11.877964 -3.171842 30.000000
v 11.066229 -3.281892 30.000000
v 10.252904 -3.384145 30.000000
v 9.438105 -3.478591 30.000000
v 8.621949 -3.565213 30.000000
v 7.804552 -3.644003 30.000000
v 6.986034 -3.714942 30.000000
v 6.166512 -3.778027 30.000000
v 5.346103 -3.833247 30.000000
v 4.524925 -3.880593 30.000000
v 3.703097 -3.920055 30.000000
v 2.880736 -3.951634 30.000000
v 2.057961 -3.975322 30.000000
v 1.234890 -3.991116 30.000000
v 0.411642 -3.999013 30.000000
v -0.411666 -3.999013 30.000000
v -1.234915 -3.991116 30.000000
v -2.057986 -3.975322 30.000000
v -2.880761 -3.951634 30.000000
v -3.703122 -3.920055 30.000000
v -4.524951 -3.880590 30.000000
v -5.346128 -3.833244 30.000000
v -6.166537 -3.778027 30.000000
v -6.986060 -3.714942 30.000000
v -7.804577 -3.644000 30.000000
v -8.621973 -3.565213 30.000000
v -9.438130 -3.478588 30.000000
v -10.252929 -3.384141 30.000000
v -11.066256 -3.281889 30.000000
v -11.877990 -3.171838 30.000000
v -12.688016 -3.054011 30.000000
v -13.496219 -2.928422 30.000000
v -14.302481 -2.795089 30.000000
v -15.106687 -2.654030 30.000000
v -15.908722 -2.505270 30.000000
v -16.708467 -2.348822 30.000000
v -17.505812 -2.184720 30.000000
v -18.300638 -2.012976 30.000000
v -19.092834 -1.833623 30.000000
v -19.882284 -1.646684 30.000000
v -20.668879 -1.452185 30.000000
v -21.452499 -1.250156 30.000000
v -22.233032 -1.040623 30.000000
v -23.010372 -0.823618 30.000000
v -23.784405 -0.599172 30.000000
v -24.555016 -0.367316 30.000000
v -25.322096 -0.128087 30.000000
v -26.085537 0.118482 30.000000
v -26.845226 0.372359 30.000000
v -27.601055 0.633505 30.000000
v -28.352919 0.901883 30.000000
v -29.100702 1.177450 30.000000
v -29.844303 1.460175 30.000000
v -30.583614 1.750011 30.000000
v -31.318527 2.046916 30.000000
v -32.048935 2.350849 30.000000
v -32.774738 2.661770 30.000000
v -33.495827 2.979629 30.000000
v -34.212105 3.304383 30.000000
v -34.923454 3.635983 30.000000
v -35.629791 3.974383 30.000000
v -36.331001 4.319534 30.000000
v -37.026981 4.671388 30.000000
v -37.717644 5.029891 30.000000
v -38.402889 5.394994 30.000000
v -39.082603 5.766642 30.000000
v -39.756702 6.144785 30.000000
v -40.425087 6.529366 30.000000
v -41.087654 6.920334 30.000000
v -41.744316 7.317628 30.000000
v -42.394985 7.721192 30.000000
v -43.039551 8.130971 30.000000
v -43.677933 8.546900 30.000000
v -44.310028 8.968923 30.000000
v -44.935757 9.396979 30.000000
v -45.555016 9.831006 30.000000
v -46.167732 10.270944 30.000000
v -46.773811 10.716727 30.000000
v -47.373161 11.168288 30.000000
v -47.965702 11.625569 30.000000
vn -0.6247 0.7809 -0.0000
vn -0.6201 0.7845 -0.0000
vn 0.6247 0.7809 -0.0000
vn -0.6201 -0.7845 -0.0000
vn -0.0000 -0.0000 -1.0000
vn -0.0000 -0.0000 1.0000
vn 0.6201 -0.7845 -0.0000
vn 0.6110 -0.7917 -0.0000
vn 0.6017 -0.7987 -0.0000
vn 0.5925 -0.8056 -0.0000
vn 0.5832 -0.8123 -0.0000
vn 0.5739 -0.8189 -0.0000
vn 0.5646 -0.8254 -0.0000
vn 0.5553 -0.8317 -0.0000
vn 0.5459 -0.8379 -0.0000
vn 0.5365 -0.8439 -0.0000
vn 0.5271 -0.8498 -0.0000
vn 0.5176 -0.8556 -0.0000
vn 0.5082 -0.8612 -0.0000
vn 0.4987 -0.8668 -0.0000
vn 0.4892 -0.8721 -0.0000
vn 0.4797 -0.8774 -0.0000
vn 0.4702 -0.8825 -0.0000
vn 0.4607 -0.8876 -0.0000
vn 0.4512 -0.8924 -0.0000
vn 0.4416 -0.8972 -0.0000
vn 0.4321 -0.9018 -0.0000
vn 0.4225 -0.9064 -0.0000
vn 0.4129 -0.9108 -0.0000
vn 0.4034 -0.9150 -0.0000
vn 0.3938 -0.9192 -0.0000
vn 0.3842 -0.9233 -0.0000
vn 0.3746 -0.9272 -0.0000
vn 0.3650 -0.9310 -0.0000
vn 0.3554 -0.9347 -0.0000
vn 0.3458 -0.9383 -0.0000
vn 0.3362 -0.9418 -0.0000
vn 0.3266 -0.9452 -0.0000
vn 0.3170 -0.9484 -0.0000
vn 0.3073 -0.9516 -0.0000
vn 0.2977 -0.9547 -0.0000
vn 0.2881 -0.9576 -0.0000
vn 0.2785 -0.9604 -0.0000
vn 0.2689 -0.9632 -0.0000
vn 0.2593 -0.9658 -0.0000
vn 0.2497 -0.9683 -0.0000
vn 0.2400 -0.9708 -0.0000
vn 0.2304 -0.9731 -0.0000
vn 0.2208 -0.9753 -0.0000
vn 0.2112 -0.9774 -0.0000
vn 0.2016 -0.9795 -0.0000
vn 0.1920 -0.9814 -0.0000
vn 0.1824 -0.9832 -0.0000
vn 0.1728 -0.9850 -0.0000
vn 0.1632 -0.9866 -0.0000
vn 0.1536 -0.9881 -0.0000
vn 0.1439 -0.9896 -0.0000
vn 0.1343 -0.9909 -0.0000
vn 0.1247 -0.9922 -0.0000
vn 0.1151 -0.9933 -0.0000
vn 0.1055 -0.9944 -0.0000
vn 0.0959 -0.9954 -0.0000
vn 0.0863 -0.9963 -0.0000
vn 0.0768 -0.9971 -0.0000
vn 0.0672 -0.9977 -0.0000
vn 0.0576 -0.9983 -0.0000
vn 0.0480 -0.9988 -0.0000
vn 0.0384 -0.9993 -0.0000
vn 0.0288 -0.9996 -0.0000
vn 0.0192 -0.9998 -0.0000
vn 0.0096 -1.0000 -0.0000
vn -0.0000 -1.0000 -0.0000
vn -0.0096 -1.0000 -0.0000
vn -0.0192 -0.9998 -0.0000
vn -0.0288 -0.9996 -0.0000
vn -0.0384 -0.9993 -0.0000
vn -0.0480 -0.9988 -0.0000
vn -0.0576 -0.9983 -0.0000
vn -0.0672 -0.9977 -0.0000
vn -0.0768 -0.9971 -0.0000
vn -0.0863 -0.9963 -0.0000
vn -0.0959 -0.9954 -0.0000
vn -0.1055 -0.9944 -0.0000
vn -0.1151 -0.9933 -0.0000
vn -0.1247 -0.9922 -0.0000
vn -0.1343 -0.9909 -0.0000
vn -0.1439 -0.9896 -0.0000
vn -0.1536 -0.9881 -0.0000
vn -0.1632 -0.9866 -0.0000
vn -0.1728 -0.9850 -0.0000
vn -0.1824 -0.9832 -0.0000
vn -0.1920 -0.9814 -0.0000
vn -0.2016 -0.9795 -0.0000
vn -0.2112 -0.9774 -0.0000
vn -0.2208 -0.9753 -0.0000
vn -0.2304 -0.9731 -0.0000
vn -0.2400 -0.9708 -0.0000
vn -0.2497 -0.9683 -0.0000
vn -0.2593 -0.9658 -0.0000
vn -0.2689 -0.9632 -0.0000
vn -0.2785 -0.9604 -0.0000
vn -0.2881 -0.9576 -0.0000
vn -0.2977 -0.9547 -0.0000
vn -0.3073 -0.9516 -0.0000
vn -0.3170 -0.9484 -0.0000
vn -0.3266 -0.9452 -0.0000
vn -0.3362 -0.9418 -0.0000
vn -0.3458 -0.9383 -0.0000
vn -0.3554 -0.9347 -0.0000
vn -0.3650 -0.9310 -0.0000
vn -0.3746 -0.9272 -0.0000
vn -0.3842 -0.9233 -0.0000
vn -0.3938 -0.9192 -0.0000
vn -0.4034 -0.9150 -0.0000
vn -0.4129 -0.9108 -0.0000
vn -0.4225 -0.9064 -0.0000
vn -0.4321 -0.9018 -0.0000
vn -0.4416 -0.8972 -0.0000
vn -0.4512 -0.8924 -0.0000
vn -0.4607 -0.8876 -0.0000
vn -0.4702 -0.8825 -0.0000
vn -0.4797 -0.8774 -0.0000
vn -0.4892 -0.8721 -0.0000
vn -0.4987 -0.8668 -0.0000
vn -0.5082 -0.8612 -0.0000
vn -0.5176 -0.8556 -0.0000
vn -0.5271 -0.8498 -0.0000
vn -0.5365 -0.8439 -0.0000
vn -0.5459 -0.8379 -0.0000
vn -0.5553 -0.8317 -0.0000
vn -0.5646 -0.8254 -0.0000
vn -0.5739 -0.8189 -0.0000
vn -0.5832 -0.8123 -0.0000
vn -0.5925 -0.8056 -0.0000
vn -0.6017 -0.7987 -0.0000
vn -0.6110 -0.7917 -0.0000
vn 0.6201 0.7845 -0.0000
vn 0.6110 0.7917 -0.0000
vn 0.6017 0.7987 -0.0000
vn 0.5925 0.8056 -0.0000
vn 0.5832 0.8123 -0.0000
vn 0.5739 0.8189 -0.0000
vn 0.5646 0.8254 -0.0000
vn 0.5553 0.8317 -0.0000
vn 0.5459 0.8379 -0.0000
vn 0.5365 0.8439 -0.0000
vn 0.5271 0.8498 -0.0000
vn 0.5176 0.8556 -0.0000
vn 0.5082 0.8612 -0.0000
vn 0.4987 0.8668 -0.0000
vn 0.4892 0.8721 -0.0000
vn 0.4797 0.8774 -0.0000
vn 0.4702 0.8825 -0.0000
vn 0.4607 0.8876 -0.0000
vn 0.4512 0.8924 -0.0000
vn 0.4416 0.8972 -0.0000
vn 0.4321 0.9018 -0.0000
vn 0.4225 0.9064 -0.0000
vn 0.4129 0.9108 -0.0000
vn 0.4034 0.9150 -0.0000
vn 0.3938 0.9192 -0.0000
vn 0.3842 0.9233 -0.0000
vn 0.3746 0.9272 -0.0000
vn 0.3650 0.9310 -0.0000
vn 0.3554 0.9347 -0.0000
vn 0.3458 0.9383 -0.0000
vn 0.3362 0.9418 -0.0000
vn 0.3266 0.9452 -0.0000
vn 0.3170 0.9484 -0.0000
vn 0.3073 0.9516 -0.0000
vn 0.2977 0.9547 -0.0000
vn 0.2881 0.9576 -0.0000
vn 0.2785 0.9604 -0.0000
vn 0.2689 0.9632 -0.0000
vn 0.2593 0.9658 -0.0000
vn 0.2497 0.9683 -0.0000
vn 0.2400 0.9708 -0.0000
vn 0.2304 0.9731 -0.0000
vn 0.2208 0.9753 -0.0000
vn 0.2112 0.9774 -0.0000
vn 0.2016 0.9795 -0.0000
vn 0.1920 0.9814 -0.0000
vn 0.1824 0.9832 -0.0000
vn 0.1728 0.9850 -0.0000
vn 0.1632 0.9866 -0.0000
vn 0.1536 0.9881 -0.0000
vn 0.1439 0.9896 -0.0000
vn 0.1343 0.9909 -0.0000
vn 0.1247 0.9922 -0.0000
vn 0.1151 0.9933 -0.0000
vn 0.1055 0.9944 -0.0000
vn 0.0959 0.9954 -0.0000
vn 0.0863 0.9963 -0.0000
vn 0.0768 0.9971 -0.0000
vn 0.0672 0.9977 -0.0000
vn 0.0576 0.9983 -0.0000
vn 0.0480 0.9988 -0.0000
vn 0.0384 0.9993 -0.0000
vn 0.0288 0.9996 -0.0000
vn 0.0192 0.9998 -0.0000
vn 0.0096 1.0000 -0.0000
vn -0.0000 1.0000 -0.0000
vn -0.0096 1.0000 -0.0000
vn -0.0192 0.9998 -0.0000
vn -0.0288 0.9996 -0.0000
vn -0.0384 0.9993 -0.0000
vn -0.0480 0.9988 -0.0000
vn -0.0576 0.9983 -0.0000
vn -0.0672 0.9977 -0.0000
vn -0.0768 0.9971 -0.0000
vn -0.0863 0.9963 -0.0000
vn -0.0959 0.9954 -0.0000
vn -0.1055 0.9944 -0.0000
vn -0.1151 0.9933 -0.0000
vn -0.1247 0.9922 -0.0000
vn -0.1343 0.9909 -0.0000
vn -0.1439 0.9896 -0.0000
vn -0.1536 0.9881 -0.0000
vn -0.1632 0.9866 -0.0000
vn -0.1728 0.9850 -0.0000
vn -0.1824 0.9832 -0.0000
vn -0.1920 0.9814 -0.0000
vn -0.2016 0.9795 -0.0000
vn -0.2112 0.9774 -0.0000
vn -0.2208 0.9753 -0.0000
vn -0.2304 0.9731 -0.0000
vn -0.2400 0.9708 -0.0000
vn -0.2497 0.9683 -0.0000
vn -0.2593 0.9658 -0.0000
vn -0.2689 0.9632 -0.0000
vn -0.2785 0.9604 -0.0000
vn -0.2881 0.9576 -0.0000
vn -0.2977 0.9547 -0.0000
vn -0.3073 0.9516 -0.0000
vn -0.3170 0.9484 -0.0000
vn -0.3266 0.9452 -0.0000
vn -0.3362 0.9418 -0.0000
vn -0.3458 0.9383 -0.0000
vn -0.3554 0.9347 -0.0000
vn -0.3650 0.9310 -0.0000
vn -0.3746 0.9272 -0.0000
vn -0.3842 0.9233 -0.0000
vn -0.3938 0.9192 -0.0000
vn -0.4034 0.9150 -0.0000
vn -0.4129 0.9108 -0.0000
vn -0.4225 0.9064 -0.0000
vn -0.4321 0.9018 -0.0000
vn -0.4416 0.8972 -0.0000
vn -0.4512 0.8924 -0.0000
vn -0.4607 0.8876 -0.0000
vn -0.4702 0.8825 -0.0000
vn -0.4797 0.8774 -0.0000
vn -0.4892 0.8721 -0.0000
vn -0.4987 0.8668 -0.0000
vn -0.5082 0.8612 -0.0000
vn -0.5176 0.8556 -0.0000
vn -0.5271 0.8498 -0.0000
vn -0.5365 0.8439 -0.0000
vn -0.5459 0.8379 -0.0000
vn -0.5553 0.8317 -0.0000
vn -0.5646 0.8254 -0.0000
vn -0.5739 0.8189 -0.0000
vn -0.5832 0.8123 -0.0000
vn -0.5925 0.8056 -0.0000
vn -0.6017 0.7987 -0.0000
vn -0.6110 0.7917 -0.0000
vt 0.375000 0.000000
vt 0.625000 0.000000
vt 0.625000 0.250000
vt 0.375000 0.250000
vt 0.374046 0.499046
vt 0.625954 0.499046
vt 0.625000 0.500000
vt 0.375000 0.500000
vt 0.625000 0.750000
vt 0.375000 0.750000
vt 0.375000 0.998092
vt 0.625000 0.998092
vt 0.625000 1.000000
vt 0.375000 1.000000
vt 0.374046 0.750954
vt 0.873092 0.500000
vt 0.875000 0.500000
vt 0.875000 0.750000
vt 0.873092 0.750000
vt 0.625954 0.750954
vt 0.628817 0.500000
vt 0.628817 0.750000
vt 0.630725 0.500000
vt 0.630725 0.750000
vt 0.632634 0.500000
vt 0.632634 0.750000
vt 0.634542 0.500000
vt 0.634542 0.750000
vt 0.636450 0.500000
vt 0.636450 0.750000
vt 0.638359 0.500000
vt 0.638359 0.750000
vt 0.640267 0.500000
vt 0.640267 0.750000
vt 0.642175 0.500000
vt 0.642176 0.750000
vt 0.644084 0.500000
vt 0.644084 0.750000
vt 0.645992 0.500000
vt 0.645993 0.750000
vt 0.647901 0.500000
vt 0.647901 0.750000
vt 0.649809 0.500000
vt 0.649809 0.750000
vt 0.651717 0.500000
vt 0.651718 0.750000
vt 0.653626 0.500000
vt 0.653626 0.750000
vt 0.655534 0.500000
vt 0.655535 0.750000
vt 0.657443 0.500000
vt 0.657443 0.750000
vt 0.659351 0.500000
vt 0.659351 0.750000
vt 0.661259 0.500000
vt 0.661260 0.750000
vt 0.663168 0.500000
vt 0.663168 0.750000
vt 0.665076 0.500000
vt 0.665076 0.750000
vt 0.666985 0.500000
vt 0.666985 0.750000
vt 0.668893 0.500000
vt 0.668893 0.750000
vt 0.670801 0.500000
vt 0.670802 0.750000
vt 0.672710 0.500000
vt 0.672710 0.750000
vt 0.674618 0.500000
vt 0.674618 0.750000
vt 0.676527 0.500000
vt 0.676527 0.750000
vt 0.678435 0.500000
vt 0.678435 0.750000
vt 0.680343 0.500000
vt 0.680344 0.750000
vt 0.682252 0.500000
vt 0.682252 0.750000
vt 0.684160 0.500000
vt 0.684160 0.750000
vt 0.686069 0.500000
vt 0.686069 0.750000
vt 0.687977 0.500000
vt 0.687977 0.750000
vt 0.689885 0.500000
vt 0.689885 0.750000
vt 0.691794 0.500000
vt 0.691794 0.750000
vt 0.693702 0.500000
vt 0.693702 0.750000
vt 0.695611 0.500000
vt 0.695611 0.750000
vt 0.697519 0.500000
vt 0.697519 0.750000
vt 0.699427 0.500000
vt 0.699427 0.750000
vt 0.701336 0.500000
vt 0.701336 0.750000
vt 0.703244 0.500000
vt 0.703244 0.750000
vt 0.705153 0.500000
vt 0.705153 0.750000
vt 0.707061 0.500000
vt 0.707061 0.750000
vt 0.708969 0.500000
vt 0.708969 0.750000
vt 0.710878 0.500000
vt 0.710878 0.750000
vt 0.712786 0.500000
vt 0.712786 0.750000
vt 0.714695 0.500000
vt 0.714695 0.750000
vt 0.716603 0.500000
vt 0.716603 0.750000
vt 0.718512 0.500000
vt 0.718511 0.750000
vt 0.720420 0.500000
vt 0.720420 0.750000
vt 0.722328 0.500000
vt 0.722328 0.750000
vt 0.724237 0.500000
vt 0.724237 0.750000
vt 0.726145 0.500000
vt 0.726145 0.750000
vt 0.728054 0.500000
vt 0.728053 0.750000
vt 0.729962 0.500000
vt 0.729962 0.750000
vt 0.731870 0.500000
vt 0.731870 0.750000
vt 0.733779 0.500000
vt 0.733779 0.750000
vt 0.735687 0.500000
vt 0.735687 0.750000
vt 0.737595 0.500000
vt 0.737595 0.750000
vt 0.739504 0.500000
vt 0.739504 0.750000
vt 0.741412 0.500000
vt 0.741412 0.750000
vt 0.743321 0.500000
vt 0.743321 0.750000
vt 0.745229 0.500000
vt 0.745229 0.750000
vt 0.747137 0.500000
vt 0.747137 0.750000
vt 0.749046 0.500000
vt 0.749046 0.750000
vt 0.750954 0.500000
vt 0.750954 0.750000
vt 0.752863 0.500000
vt 0.752862 0.750000
vt 0.754771 0.500000
vt 0.754771 0.750000
vt 0.756679 0.500000
vt 0.756679 0.750000
vt 0.758588 0.500000
vt 0.758588 0.750000
vt 0.760496 0.500000
vt 0.760496 0.750000
vt 0.762405 0.500000
vt 0.762405 0.750000
vt 0.764313 0.500000
vt 0.764313 0.750000
vt 0.766221 0.500000
vt 0.766221 0.750000
vt 0.768130 0.500000
vt 0.768130 0.750000
vt 0.770038 0.500000
vt 0.770038 0.750000
vt 0.771946 0.500000
vt 0.771947 0.750000
vt 0.773855 0.500000
vt 0.773855 0.750000
vt 0.775763 0.500000
vt 0.775763 0.750000
vt 0.777672 0.500000
vt 0.777672 0.750000
vt 0.779580 0.500000
vt 0.779580 0.750000
vt 0.781488 0.500000
vt 0.781489 0.750000
vt 0.783397 0.500000
vt 0.783397 0.750000
vt 0.785305 0.500000
vt 0.785305 0.750000
vt 0.787214 0.500000
vt 0.787214 0.750000
vt 0.789122 0.500000
vt 0.789122 0.750000
vt 0.791030 0.500000
vt 0.791031 0.750000
vt 0.792939 0.500000
vt 0.792939 0.750000
vt 0.794847 0.500000
vt 0.794848 0.750000
vt 0.796756 0.500000
vt 0.796756 0.750000
vt 0.798664 0.500000
vt 0.798664 0.750000
vt 0.800572 0.500000
vt 0.800573 0.750000
vt 0.802481 0.500000
vt 0.802481 0.750000
vt 0.804389 0.500000
vt 0.804389 0.750000
vt 0.806298 0.500000
vt 0.806298 0.750000
vt 0.808206 0.500000
vt 0.808206 0.750000
vt 0.810114 0.500000
vt 0.810115 0.750000
vt 0.812023 0.500000
vt 0.812023 0.750000
vt 0.813931 0.500000
vt 0.813931 0.750000
vt 0.815840 0.500000
vt 0.815840 0.750000
vt 0.817748 0.500000
vt 0.817748 0.750000
vt 0.819656 0.500000
vt 0.819657 0.750000
vt 0.821565 0.500000
vt 0.821565 0.750000
vt 0.823473 0.500000
vt 0.823473 0.750000
vt 0.825382 0.500000
vt 0.825382 0.750000
vt 0.827290 0.500000
vt 0.827290 0.750000
vt 0.829198 0.500000
vt 0.829199 0.750000
vt 0.831107 0.500000
vt 0.831107 0.750000
vt 0.833015 0.500000
vt 0.833015 0.750000
vt 0.834924 0.500000
vt 0.834924 0.750000
vt 0.836832 0.500000
vt 0.836832 0.750000
vt 0.838740 0.500000
vt 0.838741 0.750000
vt 0.840649 0.500000
vt 0.840649 0.750000
vt 0.842557 0.500000
vt 0.842557 0.750000
vt 0.844465 0.500000
vt 0.844466 0.750000
vt 0.846374 0.500000
vt 0.846374 0.750000
vt 0.848282 0.500000
vt 0.848283 0.750000
vt 0.850191 0.500000
vt 0.850191 0.750000
vt 0.852099 0.500000
vt 0.852099 0.750000
vt 0.854008 0.500000
vt 0.854008 0.750000
vt 0.855916 0.500000
vt 0.855916 0.750000
vt 0.857824 0.500000
vt 0.857825 0.750000
vt 0.859733 0.500000
vt 0.859733 0.750000
vt 0.861641 0.500000
vt 0.861641 0.750000
vt 0.863550 0.500000
vt 0.863550 0.750000
vt 0.865458 0.500000
vt 0.865458 0.750000
vt 0.867366 0.500000
vt 0.867367 0.750000
vt 0.869275 0.500000
vt 0.869275 0.750000
vt 0.871183 0.500000
vt 0.871183 0.750000
vt 0.125000 0.500000
vt 0.126908 0.500000
vt 0.126908 0.750000
vt 0.125000 0.750000
vt 0.128817 0.500000
vt 0.128817 0.750000
vt 0.130725 0.500000
vt 0.130725 0.750000
vt 0.132634 0.500000
vt 0.132634 0.750000
vt 0.134542 0.500000
vt 0.134542 0.750000
vt 0.136450 0.500000
vt 0.136450 0.750000
vt 0.138359 0.500000
vt 0.138359 0.750000
vt 0.140267 0.500000
vt 0.140267 0.750000
vt 0.142176 0.500000
vt 0.142176 0.750000
vt 0.144084 0.500000
vt 0.144084 0.750000
vt 0.145992 0.500000
vt 0.145992 0.750000
vt 0.147901 0.500000
vt 0.147901 0.750000
vt 0.149809 0.500000
vt 0.149809 0.750000
vt 0.151718 0.500000
vt 0.151718 0.750000
vt 0.153626 0.500000
vt 0.153626 0.750000
vt 0.155534 0.500000
vt 0.155534 0.750000
vt 0.157443 0.500000
vt 0.157443 0.750000
vt 0.159351 0.500000
vt 0.159351 0.750000
vt 0.161260 0.500000
vt 0.161260 0.750000
vt 0.163168 0.500000
vt 0.163168 0.750000
vt 0.165076 0.500000
vt 0.165076 0.750000
vt 0.166985 0.500000
vt 0.166985 0.750000
vt 0.168893 0.500000
vt 0.168893 0.750000
vt 0.170802 0.500000
vt 0.170802 0.750000
vt 0.172710 0.500000
vt 0.172710 0.750000
vt 0.174618 0.500000
vt 0.174618 0.750000
vt 0.176527 0.500000
vt 0.176527 0.750000
vt 0.178435 0.500000
vt 0.178435 0.750000
vt 0.180344 0.500000
vt 0.180344 0.750000
vt 0.182252 0.500000
vt 0.182252 0.750000
vt 0.184160 0.500000
vt 0.184160 0.750000
vt 0.186069 0.500000
vt 0.186069 0.750000
vt 0.187977 0.500000
vt 0.187977 0.750000
vt 0.189886 0.500000
vt 0.189885 0.750000
vt 0.191794 0.500000
vt 0.191794 0.750000
vt 0.193702 0.500000
vt 0.193702 0.750000
vt 0.195611 0.500000
vt 0.195611 0.750000
vt 0.197519 0.500000
vt 0.197519 0.750000
vt 0.199428 0.500000
vt 0.199427 0.750000
vt 0.201336 0.500000
vt 0.201336 0.750000
vt 0.203244 0.500000
vt 0.203244 0.750000
vt 0.205153 0.500000
vt 0.205153 0.750000
vt 0.207061 0.500000
vt 0.207061 0.750000
vt 0.208970 0.500000
vt 0.208969 0.750000
vt 0.210878 0.500000
vt 0.210878 0.750000
vt 0.212786 0.500000
vt 0.212786 0.750000
vt 0.214695 0.500000
vt 0.214695 0.750000
vt 0.216603 0.500000
vt 0.216603 0.750000
vt 0.218511 0.500000
vt 0.218511 0.750000
vt 0.220420 0.500000
vt 0.220420 0.750000
vt 0.222328 0.500000
vt 0.222328 0.750000
vt 0.224237 0.500000
vt 0.224237 0.750000
vt 0.226145 0.500000
vt 0.226145 0.750000
vt 0.228053 0.500000
vt 0.228053 0.750000
vt 0.229962 0.500000
vt 0.229962 0.750000
vt 0.231870 0.500000
vt 0.231870 0.750000
vt 0.233779 0.500000
vt 0.233779 0.750000
vt 0.235687 0.500000
vt 0.235687 0.750000
vt 0.237595 0.500000
vt 0.237595 0.750000
vt 0.239504 0.500000
vt 0.239504 0.750000
vt 0.241412 0.500000
vt 0.241412 0.750000
vt 0.243321 0.500000
vt 0.243321 0.750000
vt 0.245229 0.500000
vt 0.245229 0.750000
vt 0.247137 0.500000
vt 0.247137 0.750000
vt 0.249046 0.500000
vt 0.249046 0.750000
vt 0.250954 0.500000
vt 0.250954 0.750000
vt 0.252863 0.500000
vt 0.252863 0.750000
vt 0.254771 0.500000
vt 0.254771 0.750000
vt 0.256679 0.500000
vt 0.256679 0.750000
vt 0.258588 0.500000
vt 0.258588 0.750000
vt 0.260496 0.500000
vt 0.260496 0.750000
vt 0.262405 0.500000
vt 0.262405 0.750000
vt 0.264313 0.500000
vt 0.264313 0.750000
vt 0.266221 0.500000
vt 0.266221 0.750000
vt 0.268130 0.500000
vt 0.268130 0.750000
vt 0.270038 0.500000
vt 0.270038 0.750000
vt 0.271947 0.500000
vt 0.271946 0.750000
vt 0.273855 0.500000
vt 0.273855 0.750000
vt 0.275763 0.500000
vt 0.275763 0.750000
vt 0.277672 0.500000
vt 0.277672 0.750000
vt 0.279580 0.500000
vt 0.279580 0.750000
vt 0.281489 0.500000
vt 0.281488 0.750000
vt 0.283397 0.500000
vt 0.283397 0.750000
vt 0.285305 0.500000
vt 0.285305 0.750000
vt 0.287214 0.500000
vt 0.287214 0.750000
vt 0.289122 0.500000
vt 0.289122 0.750000
vt 0.291031 0.500000
vt 0.291030 0.750000
vt 0.292939 0.500000
vt 0.292939 0.750000
vt 0.294847 0.500000
vt 0.294847 0.750000
vt 0.296756 0.500000
vt 0.296756 0.750000
vt 0.298664 0.500000
vt 0.298664 0.750000
vt 0.300573 0.500000
vt 0.300572 0.750000
vt 0.302481 0.500000
vt 0.302481 0.750000
vt 0.304389 0.500000
vt 0.304389 0.750000
vt 0.306298 0.500000
vt 0.306298 0.750000
vt 0.308206 0.500000
vt 0.308206 0.750000
vt 0.310115 0.500000
vt 0.310114 0.750000
vt 0.312023 0.500000
vt 0.312023 0.750000
vt 0.313931 0.500000
vt 0.313931 0.750000
vt 0.315840 0.500000
vt 0.315840 0.750000
vt 0.317748 0.500000
vt 0.317748 0.750000
vt 0.319656 0.500000
vt 0.319656 0.750000
vt 0.321565 0.500000
vt 0.321565 0.750000
vt 0.323473 0.500000
vt 0.323473 0.750000
vt 0.325382 0.500000
vt 0.325382 0.750000
vt 0.327290 0.500000
vt 0.327290 0.750000
vt 0.329198 0.500000
vt 0.329198 0.750000
vt 0.331107 0.500000
vt 0.331107 0.750000
vt 0.333015 0.500000
vt 0.333015 0.750000
vt 0.334924 0.500000
vt 0.334924 0.750000
vt 0.336832 0.500000
vt 0.336832 0.750000
vt 0.338740 0.500000
vt 0.338740 0.750000
vt 0.340649 0.500000
vt 0.340649 0.750000
vt 0.342557 0.500000
vt 0.342557 0.750000
vt 0.344466 0.500000
vt 0.344466 0.750000
vt 0.346374 0.500000
vt 0.346374 0.750000
vt 0.348282 0.500000
vt 0.348282 0.750000
vt 0.350191 0.500000
vt 0.350191 0.750000
vt 0.352099 0.500000
vt 0.352099 0.750000
vt 0.354008 0.500000
vt 0.354008 0.750000
vt 0.355916 0.500000
vt 0.355916 0.750000
vt 0.357824 0.500000
vt 0.357824 0.750000
vt 0.359733 0.500000
vt 0.359733 0.750000
vt 0.361641 0.500000
vt 0.361641 0.750000
vt 0.363550 0.500000
vt 0.363550 0.750000
vt 0.365458 0.500000
vt 0.365458 0.750000
vt 0.367366 0.500000
vt 0.367366 0.750000
vt 0.369275 0.500000
vt 0.369275 0.750000
vt 0.371183 0.500000
vt 0.371183 0.750000
vt 0.625000 0.753817
vt 0.375000 0.753817
vt 0.625000 0.755725
vt 0.375000 0.755725
vt 0.625000 0.757634
vt 0.375000 0.757634
vt 0.625000 0.759542
vt 0.375000 0.759542
vt 0.625000 0.761451
vt 0.375000 0.761450
vt 0.625000 0.763359
vt 0.375000 0.763359
vt 0.625000 0.765267
vt 0.375000 0.765267
vt 0.625000 0.767176
vt 0.375000 0.767175
vt 0.625000 0.769084
vt 0.375000 0.769084
vt 0.625000 0.770993
vt 0.375000 0.770992
vt 0.625000 0.772901
vt 0.375000 0.772901
vt 0.625000 0.774809
vt 0.375000 0.774809
vt 0.625000 0.776718
vt 0.375000 0.776717
vt 0.625000 0.778626
vt 0.375000 0.778626
vt 0.625000 0.780535
vt 0.375000 0.780534
vt 0.625000 0.782443
vt 0.375000 0.782443
vt 0.625000 0.784352
vt 0.375000 0.784351
vt 0.625000 0.786260
vt 0.375000 0.786259
vt 0.625000 0.788168
vt 0.375000 0.788168
vt 0.625000 0.790077
vt 0.375000 0.790076
vt 0.625000 0.791985
vt 0.375000 0.791985
vt 0.625000 0.793894
vt 0.375000 0.793893
vt 0.625000 0.795802
vt 0.375000 0.795801
vt 0.625000 0.797710
vt 0.375000 0.797710
vt 0.625000 0.799619
vt 0.375000 0.799618
vt 0.625000 0.801527
vt 0.375000 0.801527
vt 0.625000 0.803436
vt 0.375000 0.803435
vt 0.625000 0.805344
vt 0.375000 0.805343
vt 0.625000 0.807252
vt 0.375000 0.807252
vt 0.625000 0.809161
vt 0.375000 0.809160
vt 0.625000 0.811069
vt 0.375000 0.811069
vt 0.625000 0.812978
vt 0.375000 0.812977
vt 0.625000 0.814886
vt 0.375000 0.814885
vt 0.625000 0.816794
vt 0.375000 0.816794
vt 0.625000 0.818703
vt 0.375000 0.818702
vt 0.625000 0.820611
vt 0.375000 0.820611
vt 0.625000 0.822520
vt 0.375000 0.822519
vt 0.625000 0.824428
vt 0.375000 0.824427
vt 0.625000 0.826336
vt 0.375000 0.826336
vt 0.625000 0.828245
vt 0.375000 0.828244
vt 0.625000 0.830153
vt 0.375000 0.830153
vt 0.625000 0.832062
vt 0.375000 0.832061
vt 0.625000 0.833970
vt 0.375000 0.833969
vt 0.625000 0.835878
vt 0.375000 0.835878
vt 0.625000 0.837787
vt 0.375000 0.837786
vt 0.625000 0.839695
vt 0.375000 0.839694
vt 0.625000 0.841604
vt 0.375000 0.841603
vt 0.625000 0.843512
vt 0.375000 0.843511
vt 0.625000 0.845420
vt 0.375000 0.845420
vt 0.625000 0.847329
vt 0.375000 0.847328
vt 0.625000 0.849237
vt 0.375000 0.849236
vt 0.625000 0.851145
vt 0.375000 0.851145
vt 0.625000 0.853054
vt 0.375000 0.853053
vt 0.625000 0.854962
vt 0.375000 0.854962
vt 0.625000 0.856871
vt 0.375000 0.856870
vt 0.625000 0.858779
vt 0.375000 0.858778
vt 0.625000 0.860687
vt 0.375000 0.860687
vt 0.625000 0.862596
vt 0.375000 0.862595
vt 0.625000 0.864504
vt 0.375000 0.864504
vt 0.625000 0.866413
vt 0.375000 0.866412
vt 0.625000 0.868321
vt 0.375000 0.868320
vt 0.625000 0.870229
vt 0.375000 0.870229
vt 0.625000 0.872138
vt 0.375000 0.872137
vt 0.625000 0.874046
vt 0.375000 0.874046
vt 0.625000 0.875955
vt 0.375000 0.875954
vt 0.625000 0.877863
vt 0.375000 0.877862
vt 0.625000 0.879771
vt 0.375000 0.879771
vt 0.625000 0.881680
vt 0.375000 0.881679
vt 0.625000 0.883588
vt 0.375000 0.883588
vt 0.625000 0.885496
vt 0.375000 0.885496
vt 0.625000 0.887405
vt 0.375000 0.887404
vt 0.625000 0.889313
vt 0.375000 0.889313
vt 0.625000 0.891222
vt 0.375000 0.891221
vt 0.625000 0.893130
vt 0.375000 0.893129
vt 0.625000 0.895038
vt 0.375000 0.895038
vt 0.625000 0.896947
vt 0.375000 0.896946
vt 0.625000 0.898855
vt 0.375000 0.898855
vt 0.625000 0.900764
vt 0.375000 0.900763
vt 0.625000 0.902672
vt 0.375000 0.902672
vt 0.625000 0.904580
vt 0.375000 0.904580
vt 0.625000 0.906489
vt 0.375000 0.906488
vt 0.625000 0.908397
vt 0.375000 0.908397
vt 0.625000 0.910306
vt 0.375000 0.910305
vt 0.625000 0.912214
vt 0.375000 0.912214
vt 0.625000 0.914122
vt 0.375000 0.914122
vt 0.625000 0.916031
vt 0.375000 0.916030
vt 0.625000 0.917939
vt 0.375000 0.917939
vt 0.625000 0.919848
vt 0.375000 0.919847
vt 0.625000 0.921756
vt 0.375000 0.921756
vt 0.625000 0.923664
vt 0.375000 0.923664
vt 0.625000 0.925573
vt 0.375000 0.925572
vt 0.625000 0.927481
vt 0.375000 0.927481
vt 0.625000 0.929390
vt 0.375000 0.929389
vt 0.625000 0.931298
vt 0.375000 0.931297
vt 0.625000 0.933206
vt 0.375000 0.933206
vt 0.625000 0.935115
vt 0.375000 0.935114
vt 0.625000 0.937023
vt 0.375000 0.937023
vt 0.625000 0.938931
vt 0.375000 0.938931
vt 0.625000 0.940840
vt 0.375000 0.940839
vt 0.625000 0.942748
vt 0.375000 0.942748
vt 0.625000 0.944657
vt 0.375000 0.944656
vt 0.625000 0.946565
vt 0.375000 0.946565
vt 0.625000 0.948473
vt 0.375000 0.948473
vt 0.625000 0.950382
vt 0.375000 0.950382
vt 0.625000 0.952290
vt 0.375000 0.952290
vt 0.625000 0.954199
vt 0.375000 0.954198
vt 0.625000 0.956107
vt 0.375000 0.956107
vt 0.625000 0.958015
vt 0.375000 0.958015
vt 0.625000 0.959924
vt 0.375000 0.959924
vt 0.625000 0.961832
vt 0.375000 0.961832
vt 0.625000 0.963741
vt 0.375000 0.963740
vt 0.625000 0.965649
vt 0.375000 0.965649
vt 0.625000 0.967557
vt 0.375000 0.967557
vt 0.625000 0.969466
vt 0.375000 0.969465
vt 0.625000 0.971374
vt 0.375000 0.971374
vt 0.625000 0.973283
vt 0.375000 0.973282
vt 0.625000 0.975191
vt 0.375000 0.975191
vt 0.625000 0.977099
vt 0.375000 0.977099
vt 0.625000 0.979008
vt 0.375000 0.979007
vt 0.625000 0.980916
vt 0.375000 0.980916
vt 0.625000 0.982824
vt 0.375000 0.982824
vt 0.625000 0.984733
vt 0.375000 0.984733
vt 0.625000 0.986641
vt 0.375000 0.986641
vt 0.625000 0.988550
vt 0.375000 0.988550
vt 0.625000 0.990458
vt 0.375000 0.990458
vt 0.625000 0.992366
vt 0.375000 0.992366
vt 0.625000 0.994275
vt 0.375000 0.994275
vt 0.625000 0.996183
vt 0.375000 0.996183
vt 0.625000 0.251908
vt 0.375000 0.251908
vt 0.625000 0.253817
vt 0.375000 0.253817
vt 0.625000 0.255725
vt 0.375000 0.255725
vt 0.625000 0.257634
vt 0.375000 0.257634
vt 0.625000 0.259542
vt 0.375000 0.259542
vt 0.625000 0.261450
vt 0.375000 0.261450
vt 0.625000 0.263359
vt 0.375000 0.263359
vt 0.625000 0.265267
vt 0.375000 0.265267
vt 0.625000 0.267176
vt 0.375000 0.267176
vt 0.625000 0.269084
vt 0.375000 0.269084
vt 0.625000 0.270992
vt 0.375000 0.270992
vt 0.625000 0.272901
vt 0.375000 0.272901
vt 0.625000 0.274809
vt 0.375000 0.274809
vt 0.625000 0.276717
vt 0.375000 0.276717
vt 0.625000 0.278626
vt 0.375000 0.278626
vt 0.625000 0.280534
vt 0.375000 0.280534
vt 0.625000 0.282443
vt 0.375000 0.282443
vt 0.625000 0.284351
vt 0.375000 0.284351
vt 0.625000 0.286259
vt 0.375000 0.286259
vt 0.625000 0.288168
vt 0.375000 0.288168
vt 0.625000 0.290076
vt 0.375000 0.290076
vt 0.625000 0.291985
vt 0.375000 0.291985
vt 0.625000 0.293893
vt 0.375000 0.293893
vt 0.625000 0.295801
vt 0.375000 0.295801
vt 0.625000 0.297710
vt 0.375000 0.297710
vt 0.625000 0.299618
vt 0.375000 0.299618
vt 0.625000 0.301527
vt 0.375000 0.301527
vt 0.625000 0.303435
vt 0.375000 0.303435
vt 0.625000 0.305343
vt 0.375000 0.305343
vt 0.625000 0.307252
vt 0.375000 0.307252
vt 0.625000 0.309160
vt 0.375000 0.309160
vt 0.625000 0.311069
vt 0.375000 0.311069
vt 0.625000 0.312977
vt 0.375000 0.312977
vt 0.625000 0.314885
vt 0.375000 0.314885
vt 0.625000 0.316794
vt 0.375000 0.316794
vt 0.625000 0.318702
vt 0.375000 0.318702
vt 0.625000 0.320610
vt 0.375000 0.320611
vt 0.625000 0.322519
vt 0.375000 0.322519
vt 0.625000 0.324427
vt 0.375000 0.324427
vt 0.625000 0.326336
vt 0.375000 0.326336
vt 0.625000 0.328244
vt 0.375000 0.328244
vt 0.625000 0.330152
vt 0.375000 0.330153
vt 0.625000 0.332061
vt 0.375000 0.332061
vt 0.625000 0.333969
vt 0.375000 0.333969
vt 0.625000 0.335878
vt 0.375000 0.335878
vt 0.625000 0.337786
vt 0.375000 0.337786
vt 0.625000 0.339694
vt 0.375000 0.339695
vt 0.625000 0.341603
vt 0.375000 0.341603
vt 0.625000 0.343511
vt 0.375000 0.343511
vt 0.625000 0.345420
vt 0.375000 0.345420
vt 0.625000 0.347328
vt 0.375000 0.347328
vt 0.625000 0.349236
vt 0.375000 0.349237
vt 0.625000 0.351145
vt 0.375000 0.351145
vt 0.625000 0.353053
vt 0.375000 0.353053
vt 0.625000 0.354962
vt 0.375000 0.354962
vt 0.625000 0.356870
vt 0.375000 0.356870
vt 0.625000 0.358778
vt 0.375000 0.358779
vt 0.625000 0.360687
vt 0.375000 0.360687
vt 0.625000 0.362595
vt 0.375000 0.362595
vt 0.625000 0.364504
vt 0.375000 0.364504
vt 0.625000 0.366412
vt 0.375000 0.366412
vt 0.625000 0.368320
vt 0.375000 0.368320
vt 0.625000 0.370229
vt 0.375000 0.370229
vt 0.625000 0.372137
vt 0.375000 0.372137
vt 0.625000 0.374045
vt 0.375000 0.374046
vt 0.625000 0.375954
vt 0.375000 0.375954
vt 0.625000 0.377862
vt 0.375000 0.377862
vt 0.625000 0.379771
vt 0.375000 0.379771
vt 0.625000 0.381679
vt 0.375000 0.381679
vt 0.625000 0.383587
vt 0.375000 0.383588
vt 0.625000 0.385496
vt 0.375000 0.385496
vt 0.625000 0.387404
vt 0.375000 0.387404
vt 0.625000 0.389313
vt 0.375000 0.389313
vt 0.625000 0.391221
vt 0.375000 0.391221
vt 0.625000 0.393129
vt 0.375000 0.393130
vt 0.625000 0.395038
vt 0.375000 0.395038
vt 0.625000 0.396946
vt 0.375000 0.396946
vt 0.625000 0.398855
vt 0.375000 0.398855
vt 0.625000 0.400763
vt 0.375000 0.400763
vt 0.625000 0.402671
vt 0.375000 0.402672
vt 0.625000 0.404580
vt 0.375000 0.404580
vt 0.625000 0.406488
vt 0.375000 0.406488
vt 0.625000 0.408397
vt 0.375000 0.408397
vt 0.625000 0.410305
vt 0.375000 0.410305
vt 0.625000 0.412213
vt 0.375000 0.412214
vt 0.625000 0.414122
vt 0.375000 0.414122
vt 0.625000 0.416030
vt 0.375000 0.416030
vt 0.625000 0.417939
vt 0.375000 0.417939
vt 0.625000 0.419847
vt 0.375000 0.419847
vt 0.625000 0.421755
vt 0.375000 0.421756
vt 0.625000 0.423664
vt 0.375000 0.423664
vt 0.625000 0.425572
vt 0.375000 0.425572
vt 0.625000 0.427481
vt 0.375000 0.427481
vt 0.625000 0.429389
vt 0.375000 0.429389
vt 0.625000 0.431297
vt 0.375000 0.431298
vt 0.625000 0.433206
vt 0.375000 0.433206
vt 0.625000 0.435114
vt 0.375000 0.435114
vt 0.625000 0.437023
vt 0.375000 0.437023
vt 0.625000 0.438931
vt 0.375000 0.438931
vt 0.625000 0.440839
vt 0.375000 0.440840
vt 0.625000 0.442748
vt 0.375000 0.442748
vt 0.625000 0.444656
vt 0.375000 0.444656
vt 0.625000 0.446565
vt 0.375000 0.446565
vt 0.625000 0.448473
vt 0.375000 0.448473
vt 0.625000 0.450381
vt 0.375000 0.450382
vt 0.625000 0.452290
vt 0.375000 0.452290
vt 0.625000 0.454198
vt 0.375000 0.454198
vt 0.625000 0.456107
vt 0.375000 0.456107
vt 0.625000 0.458015
vt 0.375000 0.458015
vt 0.625000 0.459923
vt 0.375000 0.459924
vt 0.625000 0.461832
vt 0.375000 0.461832
vt 0.625000 0.463740
vt 0.375000 0.463740
vt 0.625000 0.465649
vt 0.375000 0.465649
vt 0.625000 0.467557
vt 0.375000 0.467557
vt 0.625000 0.469465
vt 0.375000 0.469466
vt 0.625000 0.471374
vt 0.375000 0.471374
vt 0.625000 0.473282
vt 0.375000 0.473282
vt 0.625000 0.475191
vt 0.375000 0.475191
vt 0.625000 0.477099
vt 0.375000 0.477099
vt 0.625000 0.479008
vt 0.375000 0.479008
vt 0.625000 0.480916
vt 0.375000 0.480916
vt 0.625000 0.482824
vt 0.375000 0.482824
vt 0.625000 0.484733
vt 0.375000 0.484733
vt 0.625000 0.486641
vt 0.375000 0.486641
vt 0.625000 0.488550
vt 0.375000 0.488550
vt 0.625000 0.490458
vt 0.375000 0.490458
vt 0.625000 0.492366
vt 0.375000 0.492366
vt 0.625000 0.494275
vt 0.375000 0.494275
vt 0.625000 0.496183
vt 0.375000 0.496183
s 0
f 1/1/1 2/2/1 4/3/1 3/4/1
f 9/5/2 268/6/2 8/7/2 7/8/2
f 7/8/3 8/7/3 6/9/3 5/10/3
f 269/11/4 528/12/4 2/13/4 1/14/4
f 9/5/5 7/8/5 5/10/5 398/15/5
f 139/16/6 4/17/6 2/18/6 528/19/6
f 8/7/6 268/6/6 399/20/6 6/9/6
f 268/6/6 267/21/6 400/22/6 399/20/6
f 267/21/6 266/23/6 401/24/6 400/22/6
f 266/23/6 265/25/6 402/26/6 401/24/6
f 265/25/6 264/27/6 403/28/6 402/26/6
f 264/27/6 263/29/6 404/30/6 403/28/6
f 263/29/6 262/31/6 405/32/6 404/30/6
f 262/31/6 261/33/6 406/34/6 405/32/6
f 261/33/6 260/35/6 407/36/6 406/34/6
f 260/35/6 259/37/6 408/38/6 407/36/6
f 259/37/6 258/39/6 409/40/6 408/38/6
f 258/39/6 257/41/6 410/42/6 409/40/6
f 257/41/6 256/43/6 411/44/6 410/42/6
f 256/43/6 255/45/6 412/46/6 411/44/6
f 255/45/6 254/47/6 413/48/6 412/46/6
f 254/47/6 253/49/6 414/50/6 413/48/6
f 253/49/6 252/51/6 415/52/6 414/50/6
f 252/51/6 251/53/6 416/54/6 415/52/6
f 251/53/6 250/55/6 417/56/6 416/54/6
f 250/55/6 249/57/6 418/58/6 417/56/6
f 249/57/6 248/59/6 419/60/6 418/58/6
f 248/59/6 247/61/6 420/62/6 419/60/6
f 247/61/6 246/63/6 421/64/6 420/62/6
f 246/63/6 245/65/6 422/66/6 421/64/6
f 245/65/6 244/67/6 423/68/6 422/66/6
f 244/67/6 243/69/6 424/70/6 423/68/6
f 243/69/6 242/71/6 425/72/6 424/70/6
f 242/71/6 241/73/6 426/74/6 425/72/6
f 241/73/6 240/75/6 427/76/6 426/74/6
f 240/75/6 239/77/6 428/78/6 427/76/6
f 239/77/6 238/79/6 429/80/6 428/78/6
f 238/79/6 237/81/6 430/82/6 429/80/6
f 237/81/6 236/83/6 431/84/6 430/82/6
f 236/83/6 235/85/6 432/86/6 431/84/6
f 235/85/6 234/87/6 433/88/6 432/86/6
f 234/87/6 233/89/6 434/90/6 433/88/6
f 233/89/6 232/91/6 435/92/6 434/90/6
f 232/91/6 231/93/6 436/94/6 435/92/6
f 231/93/6 230/95/6 437/96/6 436/94/6
f 230/95/6 229/97/6 438/98/6 437/96/6
f 229/97/6 228/99/6 439/100/6 438/98/6
f 228/99/6 227/101/6 440/102/6 439/100/6
f 227/101/6 226/103/6 441/104/6 440/102/6
f 226/103/6 225/105/6 442/106/6 441/104/6
f 225/105/6 224/107/6 443/108/6 442/106/6
f 224/107/6 223/109/6 444/110/6 443/108/6
f 223/109/6 222/111/6 445/112/6 444/110/6
f 222/111/6 221/113/6 446/114/6 445/112/6
f 221/113/6 220/115/6 447/116/6 446/114/6
f 220/115/6 219/117/6 448/118/6 447/116/6
f 219/117/6 218/119/6 449/120/6 448/118/6
f 218/119/6 217/121/6 450/122/6 449/120/6
f 217/121/6 216/123/6 451/124/6 450/122/6
f 216/123/6 215/125/6 452/126/6 451/124/6
f 215/125/6 214/127/6 453/128/6 452/126/6
f 214/127/6 213/129/6 454/130/6 453/128/6
f 213/129/6 212/131/6 455/132/6 454/130/6
f 212/131/6 211/133/6 456/134/6 455/132/6
f 211/133/6 210/135/6 457/136/6 456/134/6
f 210/135/6 209/137/6 458/138/6 457/136/6
f 209/137/6 208/139/6 459/140/6 458/138/6
f 208/139/6 207/141/6 460/142/6 459/140/6
f 207/141/6 206/143/6 461/144/6 460/142/6
f 206/143/6 205/145/6 462/146/6 461/144/6
f 205/145/6 204/147/6 463/148/6 462/146/6
f 204/147/6 203/149/6 464/150/6 463/148/6
f 203/149/6 202/151/6 465/152/6 464/150/6
f 202/151/6 201/153/6 466/154/6 465/152/6
f 201/153/6 200/155/6 467/156/6 466/154/6
f 200/155/6 199/157/6 468/158/6 467/156/6
f 199/157/6 198/159/6 469/160/6 468/158/6
f 198/159/6 197/161/6 470/162/6 469/160/6
f 197/161/6 196/163/6 471/164/6 470/162/6
f 196/163/6 195/165/6 472/166/6 471/164/6
f 195/165/6 194/167/6 473/168/6 472/166/6
f 194/167/6 193/169/6 474/170/6 473/168/6
f 193/169/6 192/171/6 475/172/6 474/170/6
f 192/171/6 191/173/6 476/174/6 475/172/6
f 191/173/6 190/175/6 477/176/6 476/174/6
f 190/175/6 189/177/6 478/178/6 477/176/6
f 189/177/6 188/179/6 479/180/6 478/178/6
f 188/179/6 187/181/6 480/182/6 479/180/6
f 187/181/6 186/183/6 481/184/6 480/182/6
f 186/183/6 185/185/6 482/186/6 481/184/6
f 185/185/6 184/187/6 483/188/6 482/186/6
f 184/187/6 183/189/6 484/190/6 483/188/6
f 183/189/6 182/191/6 485/192/6 484/190/6
f 182/191/6 181/193/6 486/194/6 485/192/6
f 181/193/6 180/195/6 487/196/6 486/194/6
f 180/195/6 179/197/6 488/198/6 487/196/6
f 179/197/6 178/199/6 489/200/6 488/198/6
f 178/199/6 177/201/6 490/202/6 489/200/6
f 177/201/6 176/203/6 491/204/6 490/202/6
f 176/203/6 175/205/6 492/206/6 491/204/6
f 175/205/6 174/207/6 493/208/6 492/206/6
f 174/207/6 173/209/6 494/210/6 493/208/6
f 173/209/6 172/211/6 495/212/6 494/210/6
f 172/211/6 171/213/6 496/214/6 495/212/6
f 171/213/6 170/215/6 497/216/6 496/214/6
f 170/215/6 169/217/6 498/218/6 497/216/6
f 169/217/6 168/219/6 499/220/6 498/218/6
f 168/219/6 167/221/6 500/222/6 499/220/6
f 167/221/6 166/223/6 501/224/6 500/222/6
f 166/223/6 165/225/6 502/226/6 501/224/6
f 165/225/6 164/227/6 503/228/6 502/226/6
f 164/227/6 163/229/6 504/230/6 503/228/6
f 163/229/6 162/231/6 505/232/6 504/230/6
f 162/231/6 161/233/6 506/234/6 505/232/6
f 161/233/6 160/235/6 507/236/6 506/234/6
f 160/235/6 159/237/6 508/238/6 507/236/6
f 159/237/6 158/239/6 509/240/6 508/238/6
f 158/239/6 157/241/6 510/242/6 509/240/6
f 157/241/6 156/243/6 511/244/6 510/242/6
f 156/243/6 155/245/6 512/246/6 511/244/6
f 155/245/6 154/247/6 513/248/6 512/246/6
f 154/247/6 153/249/6 514/250/6 513/248/6
f 153/249/6 152/251/6 515/252/6 514/250/6
f 152/251/6 151/253/6 516/254/6 515/252/6
f 151/253/6 150/255/6 517/256/6 516/254/6
f 150/255/6 149/257/6 518/258/6 517/256/6
f 149/257/6 148/259/6 519/260/6 518/258/6
f 148/259/6 147/261/6 520/262/6 519/260/6
f 147/261/6 146/263/6 521/264/6 520/262/6
f 146/263/6 145/265/6 522/266/6 521/264/6
f 145/265/6 144/267/6 523/268/6 522/266/6
f 144/267/6 143/269/6 524/270/6 523/268/6
f 143/269/6 142/271/6 525/272/6 524/270/6
f 142/271/6 141/273/6 526/274/6 525/272/6
f 141/273/6 140/275/6 527/276/6 526/274/6
f 140/275/6 139/16/6 528/19/6 527/276/6
f 3/277/5 138/278/5 269/279/5 1/280/5
f 138/278/5 137/281/5 270/282/5 269/279/5
f 137/281/5 136/283/5 271/284/5 270/282/5
f 136/283/5 135/285/5 272/286/5 271/284/5
f 135/285/5 134/287/5 273/288/5 272/286/5
f 134/287/5 133/289/5 274/290/5 273/288/5
f 133/289/5 132/291/5 275/292/5 274/290/5
f 132/291/5 131/293/5 276/294/5 275/292/5
f 131/293/5 130/295/5 277/296/5 276/294/5
f 130/295/5 129/297/5 278/298/5 277/296/5
f 129/297/5 128/299/5 279/300/5 278/298/5
f 128/299/5 127/301/5 280/302/5 279/300/5
f 127/301/5 126/303/5 281/304/5 280/302/5
f 126/303/5 125/305/5 282/306/5 281/304/5
f 125/305/5 124/307/5 283/308/5 282/306/5
f 124/307/5 123/309/5 284/310/5 283/308/5
f 123/309/5 122/311/5 285/312/5 284/310/5
f 122/311/5 121/313/5 286/314/5 285/312/5
f 121/313/5 120/315/5 287/316/5 286/314/5
f 120/315/5 119/317/5 288/318/5 287/316/5
f 119/317/5 118/319/5 289/320/5 288/318/5
f 118/319/5 117/321/5 290/322/5 289/320/5
f 117/321/5 116/323/5 291/324/5 290/322/5
f 116/323/5 115/325/5 292/326/5 291/324/5
f 115/325/5 114/327/5 293/328/5 292/326/5
f 114/327/5 113/329/5 294/330/5 293/328/5
f 113/329/5 112/331/5 295/332/5 294/330/5
f 112/331/5 111/333/5 296/334/5 295/332/5
f 111/333/5 110/335/5 297/336/5 296/334/5
f 110/335/5 109/337/5 298/338/5 297/336/5
f 109/337/5 108/339/5 299/340/5 298/338/5
f 108/339/5 107/341/5 300/342/5 299/340/5
f 107/341/5 106/343/5 301/344/5 300/342/5
f 106/343/5 105/345/5 302/346/5 301/344/5
f 105/345/5 104/347/5 303/348/5 302/346/5
f 104/347/5 103/349/5 304/350/5 303/348/5
f 103/349/5 102/351/5 305/352/5 304/350/5
f 102/351/5 101/353/5 306/354/5 305/352/5
f 101/353/5 100/355/5 307/356/5 306/354/5
f 100/355/5 99/357/5 308/358/5 307/356/5
f 99/357/5 98/359/5 309/360/5 308/358/5
f 98/359/5 97/361/5 310/362/5 309/360/5
f 97/361/5 96/363/5 311/364/5 310/362/5
f 96/363/5 95/365/5 312/366/5 311/364/5
f 95/365/5 94/367/5 313/368/5 312/366/5
f 94/367/5 93/369/5 314/370/5 313/368/5
f 93/369/5 92/371/5 315/372/5 314/370/5
f 92/371/5 91/373/5 316/374/5 315/372/5
f 91/373/5 90/375/5 317/376/5 316/374/5
f 90/375/5 89/377/5 318/378/5 317/376/5
f 89/377/5 88/379/5 319/380/5 318/378/5
f 88/379/5 87/381/5 320/382/5 319/380/5
f 87/381/5 86/383/5 321/384/5 320/382/5
f 86/383/5 85/385/5 322/386/5 321/384/5
f 85/385/5 84/387/5 323/388/5 322/386/5
f 84/387/5 83/389/5 324/390/5 323/388/5
f 83/389/5 82/391/5 325/392/5 324/390/5
f 82/391/5 81/393/5 326/394/5 325/392/5
f 81/393/5 80/395/5 327/396/5 326/394/5
f 80/395/5 79/397/5 328/398/5 327/396/5
f 79/397/5 78/399/5 329/400/5 328/398/5
f 78/399/5 77/401/5 330/402/5 329/400/5
f 77/401/5 76/403/5 331/404/5 330/402/5
f 76/403/5 75/405/5 332/406/5 331/404/5
f 75/405/5 74/407/5 333/408/5 332/406/5
f 74/407/5 73/409/5 334/410/5 333/408/5
f 73/409/5 72/411/5 335/412/5 334/410/5
f 72/411/5 71/413/5 336/414/5 335/412/5
f 71/413/5 70/415/5 337/416/5 336/414/5
f 70/415/5 69/417/5 338/418/5 337/416/5
f 69/417/5 68/419/5 339/420/5 338/418/5
f 68/419/5 67/421/5 340/422/5 339/420/5
f 67/421/5 66/423/5 341/424/5 340/422/5
f 66/423/5 65/425/5 342/426/5 341/424/5
f 65/425/5 64/427/5 343/428/5 342/426/5
f 64/427/5 63/429/5 344/430/5 343/428/5
f 63/429/5 62/431/5 345/432/5 344/430/5
f 62/431/5 61/433/5 346/434/5 345/432/5
f 61/433/5 60/435/5 347/436/5 346/434/5
f 60/435/5 59/437/5 348/438/5 347/436/5
f 59/437/5 58/439/5 349/440/5 348/438/5
f 58/439/5 57/441/5 350/442/5 349/440/5
f 57/441/5 56/443/5 351/444/5 350/442/5
f 56/443/5 55/445/5 352/446/5 351/444/5
f 55/445/5 54/447/5 353/448/5 352/446/5
f 54/447/5 53/449/5 354/450/5 353/448/5
f 53/449/5 52/451/5 355/452/5 354/450/5
f 52/451/5 51/453/5 356/454/5 355/452/5
f 51/453/5 50/455/5 357/456/5 356/454/5
f 50/455/5 49/457/5 358/458/5 357/456/5
f 49/457/5 48/459/5 359/460/5 358/458/5
f 48/459/5 47/461/5 360/462/5 359/460/5
f 47/461/5 46/463/5 361/464/5 360/462/5
f 46/463/5 45/465/5 362/466/5 361/464/5
f 45/465/5 44/467/5 363/468/5 362/466/5
f 44/467/5 43/469/5 364/470/5 363/468/5
f 43/469/5 42/471/5 365/472/5 364/470/5
f 42/471/5 41/473/5 366/474/5 365/472/5
f 41/473/5 40/475/5 367/476/5 366/474/5
f 40/475/5 39/477/5 368/478/5 367/476/5
f 39/477/5 38/479/5 369/480/5 368/478/5
f 38/479/5 37/481/5 370/482/5 369/480/5
f 37/481/5 36/483/5 371/484/5 370/482/5
f 36/483/5 35/485/5 372/486/5 371/484/5
f 35/485/5 34/487/5 373/488/5 372/486/5
f 34/487/5 33/489/5 374/490/5 373/488/5
f 33/489/5 32/491/5 375/492/5 374/490/5
f 32/491/5 31/493/5 376/494/5 375/492/5
f 31/493/5 30/495/5 377/496/5 376/494/5
f 30/495/5 29/497/5 378/498/5 377/496/5
f 29/497/5 28/499/5 379/500/5 378/498/5
f 28/499/5 27/501/5 380/502/5 379/500/5
f 27/501/5 26/503/5 381/504/5 380/502/5
f 26/503/5 25/505/5 382/506/5 381/504/5
f 25/505/5 24/507/5 383/508/5 382/506/5
f 24/507/5 23/509/5 384/510/5 383/508/5
f 23/509/5 22/511/5 385/512/5 384/510/5
f 22/511/5 21/513/5 386/514/5 385/512/5
f 21/513/5 20/515/5 387/516/5 386/514/5
f 20/515/5 19/517/5 388/518/5 387/516/5
f 19/517/5 18/519/5 389/520/5 388/518/5
f 18/519/5 17/521/5 390/522/5 389/520/5
f 17/521/5 16/523/5 391/524/5 390/522/5
f 16/523/5 15/525/5 392/526/5 391/524/5
f 15/525/5 14/527/5 393/528/5 392/526/5
f 14/527/5 13/529/5 394/530/5 393/528/5
f 13/529/5 12/531/5 395/532/5 394/530/5
f 12/531/5 11/533/5 396/534/5 395/532/5
f 11/533/5 10/535/5 397/536/5 396/534/5
f 10/535/5 9/5/5 398/15/5 397/536/5
f 5/10/7 6/9/7 399/20/7 398/15/7
f 398/15/8 399/20/8 400/537/8 397/538/8
f 397/538/9 400/537/9 401/539/9 396/540/9
f 396/540/10 401/539/10 402/541/10 395/542/10
f 395/542/11 402/541/11 403/543/11 394/544/11
f 394/544/12 403/543/12 404/545/12 393/546/12
f 393/546/13 404/545/13 405/547/13 392/548/13
f 392/548/14 405/547/14 406/549/14 391/550/14
f 391/550/15 406/549/15 407/551/15 390/552/15
f 390/552/16 407/551/16 408/553/16 389/554/16
f 389/554/17 408/553/17 409/555/17 388/556/17
f 388/556/18 409/555/18 410/557/18 387/558/18
f 387/558/19 410/557/19 411/559/19 386/560/19
f 386/560/20 411/559/20 412/561/20 385/562/20
f 385/562/21 412/561/21 413/563/21 384/564/21
f 384/564/22 413/563/22 414/565/22 383/566/22
f 383/566/23 414/565/23 415/567/23 382/568/23
f 382/568/24 415/567/24 416/569/24 381/570/24
f 381/570/25 416/569/25 417/571/25 380/572/25
f 380/572/26 417/571/26 418/573/26 379/574/26
f 379/574/27 418/573/27 419/575/27 378/576/27
f 378/576/28 419/575/28 420/577/28 377/578/28
f 377/578/29 420/577/29 421/579/29 376/580/29
f 376/580/30 421/579/30 422/581/30 375/582/30
f 375/582/31 422/581/31 423/583/31 374/584/31
f 374/584/32 423/583/32 424/585/32 373/586/32
f 373/586/33 424/585/33 425/587/33 372/588/33
f 372/588/34 425/587/34 426/589/34 371/590/34
f 371/590/35 426/589/35 427/591/35 370/592/35
f 370/592/36 427/591/36 428/593/36 369/594/36
f 369/594/37 428/593/37 429/595/37 368/596/37
f 368/596/38 429/595/38 430/597/38 367/598/38
f 367/598/39 430/597/39 431/599/39 366/600/39
f 366/600/40 431/599/40 432/601/40 365/602/40
f 365/602/41 432/601/41 433/603/41 364/604/41
f 364/604/42 433/603/42 434/605/42 363/606/42
f 363/606/43 434/605/43 435/607/43 362/608/43
f 362/608/44 435/607/44 436/609/44 361/610/44
f 361/610/45 436/609/45 437/611/45 360/612/45
f 360/612/46 437/611/46 438/613/46 359/614/46
f 359/614/47 438/613/47 439/615/47 358/616/47
f 358/616/48 439/615/48 440/617/48 357/618/48
f 357/618/49 440/617/49 441/619/49 356/620/49
f 356/620/50 441/619/50 442/621/50 355/622/50
f 355/622/51 442/621/51 443/623/51 354/624/51
f 354/624/52 443/623/52 444/625/52 353/626/52
f 353/626/53 444/625/53 445/627/53 352/628/53
f 352/628/54 445/627/54 446/629/54 351/630/54
f 351/630/55 446/629/55 447/631/55 350/632/55
f 350/632/56 447/631/56 448/633/56 349/634/56
f 349/634/57 448/633/57 449/635/57 348/636/57
f 348/636/58 449/635/58 450/637/58 347/638/58
f 347/638/59 450/637/59 451/639/59 346/640/59
f 346/640/60 451/639/60 452/641/60 345/642/60
f 345/642/61 452/641/61 453/643/61 344/644/61
f 344/644/62 453/643/62 454/645/62 343/646/62
f 343/646/63 454/645/63 455/647/63 342/648/63
f 342/648/64 455/647/64 456/649/64 341/650/64
f 341/650/65 456/649/65 457/651/65 340/652/65
f 340/652/66 457/651/66 458/653/66 339/654/66
f 339/654/67 458/653/67 459/655/67 338/656/67
f 338/656/68 459/655/68 460/657/68 337/658/68
f 337/658/69 460/657/69 461/659/69 336/660/69
f 336/660/70 461/659/70 462/661/70 335/662/70
f 335/662/71 462/661/71 463/663/71 334/664/71
f 334/664/72 463/663/72 464/665/72 333/666/72
f 333/666/73 464/665/73 465/667/73 332/668/73
f 332/668/74 465/667/74 466/669/74 331/670/74
f 331/670/75 466/669/75 467/671/75 330/672/75
f 330/672/76 467/671/76 468/673/76 329/674/76
f 329/674/77 468/673/77 469/675/77 328/676/77
f 328/676/78 469/675/78 470/677/78 327/678/78
f 327/678/79 470/677/79 471/679/79 326/680/79
f 326/680/80 471/679/80 472/681/80 325/682/80
f 325/682/81 472/681/81 473/683/81 324/684/81
f 324/684/82 473/683/82 474/685/82 323/686/82
f 323/686/83 474/685/83 475/687/83 322/688/83
f 322/688/84 475/687/84 476/689/84 321/690/84
f 321/690/85 476/689/85 477/691/85 320/692/85
f 320/692/86 477/691/86 478/693/86 319/694/86
f 319/694/87 478/693/87 479/695/87 318/696/87
f 318/696/88 479/695/88 480/697/88 317/698/88
f 317/698/89 480/697/89 481/699/89 316/700/89
f 316/700/90 481/699/90 482/701/90 315/702/90
f 315/702/91 482/701/91 483/703/91 314/704/91
f 314/704/92 483/703/92 484/705/92 313/706/92
f 313/706/93 484/705/93 485/707/93 312/708/93
f 312/708/94 485/707/94 486/709/94 311/710/94
f 311/710/95 486/709/95 487/711/95 310/712/95
f 310/712/96 487/711/96 488/713/96 309/714/96
f 309/714/97 488/713/97 489/715/97 308/716/97
f 308/716/98 489/715/98 490/717/98 307/718/98
f 307/718/99 490/717/99 491/719/99 306/720/99
f 306/720/100 491/719/100 492/721/100 305/722/100
f 305/722/101 492/721/101 493/723/101 304/724/101
f 304/724/102 493/723/102 494/725/102 303/726/102
f 303/726/103 494/725/103 495/727/103 302/728/103
f 302/728/104 495/727/104 496/729/104 301/730/104
f 301/730/105 496/729/105 497/731/105 300/732/105
f 300/732/106 497/731/106 498/733/106 299/734/106
f 299/734/107 498/733/107 499/735/107 298/736/107
f 298/736/108 499/735/108 500/737/108 297/738/108
f 297/738/109 500/737/109 501/739/109 296/740/109
f 296/740/110 501/739/110 502/741/110 295/742/110
f 295/742/111 502/741/111 503/743/111 294/744/111
f 294/744/112 503/743/112 504/745/112 293/746/112
f 293/746/113 504/745/113 505/747/113 292/748/113
f 292/748/114 505/747/114 506/749/114 291/750/114
f 291/750/115 506/749/115 507/751/115 290/752/115
f 290/752/116 507/751/116 508/753/116 289/754/116
f 289/754/117 508/753/117 509/755/117 288/756/117
f 288/756/118 509/755/118 510/757/118 287/758/118
f 287/758/119 510/757/119 511/759/119 286/760/119
f 286/760/120 511/759/120 512/761/120 285/762/120
f 285/762/121 512/761/121 513/763/121 284/764/121
f 284/764/122 513/763/122 514/765/122 283/766/122
f 283/766/123 514/765/123 515/767/123 282/768/123
f 282/768/124 515/767/124 516/769/124 281/770/124
f 281/770/125 516/769/125 517/771/125 280/772/125
f 280/772/126 517/771/126 518/773/126 279/774/126
f 279/774/127 518/773/127 519/775/127 278/776/127
f 278/776/128 519/775/128 520/777/128 277/778/128
f 277/778/129 520/777/129 521/779/129 276/780/129
f 276/780/130 521/779/130 522/781/130 275/782/130
f 275/782/131 522/781/131 523/783/131 274/784/131
f 274/784/132 523/783/132 524/785/132 273/786/132
f 273/786/133 524/785/133 525/787/133 272/788/133
f 272/788/134 525/787/134 526/789/134 271/790/134
f 271/790/135 526/789/135 527/791/135 270/792/135
f 270/792/136 527/791/136 528/12/136 269/11/136
f 3/4/137 4/3/137 139/793/137 138/794/137
f 138/794/138 139/793/138 140/795/138 137/796/138
f 137/796/139 140/795/139 141/797/139 136/798/139
f 136/798/140 141/797/140 142/799/140 135/800/140
f 135/800/141 142/799/141 143/801/141 134/802/141
f 134/802/142 143/801/142 144/803/142 133/804/142
f 133/804/143 144/803/143 145/805/143 132/806/143
f 132/806/144 145/805/144 146/807/144 131/808/144
f 131/808/145 146/807/145 147/809/145 130/810/145
f 130/810/146 147/809/146 148/811/146 129/812/146
f 129/812/147 148/811/147 149/813/147 128/814/147
f 128/814/148 149/813/148 150/815/148 127/816/148
f 127/816/149 150/815/149 151/817/149 126/818/149
f 126/818/150 151/817/150 152/819/150 125/820/150
f 125/820/151 152/819/151 153/821/151 124/822/151
f 124/822/152 153/821/152 154/823/152 123/824/152
f 123/824/153 154/823/153 155/825/153 122/826/153
f 122/826/154 155/825/154 156/827/154 121/828/154
f 121/828/155 156/827/155 157/829/155 120/830/155
f 120/830/156 157/829/156 158/831/156 119/832/156
f 119/832/157 158/831/157 159/833/157 118/834/157
f 118/834/158 159/833/158 160/835/158 117/836/158
f 117/836/159 160/835/159 161/837/159 116/838/159
f 116/838/160 161/837/160 162/839/160 115/840/160
f 115/840/161 162/839/161 163/841/161 114/842/161
f 114/842/162 163/841/162 164/843/162 113/844/162
f 113/844/163 164/843/163 165/845/163 112/846/163
f 112/846/164 165/845/164 166/847/164 111/848/164
f 111/848/165 166/847/165 167/849/165 110/850/165
f 110/850/166 167/849/166 168/851/166 109/852/166
f 109/852/167 168/851/167 169/853/167 108/854/167
f 108/854/168 169/853/168 170/855/168 107/856/168
f 107/856/169 170/855/169 171/857/169 106/858/169
f 106/858/170 171/857/170 172/859/170 105/860/170
f 105/860/171 172/859/171 173/861/171 104/862/171
f 104/862/172 173/861/172 174/863/172 103/864/172
f 103/864/173 174/863/173 175/865/173 102/866/173
f 102/866/174 175/865/174 176/867/174 101/868/174
f 101/868/175 176/867/175 177/869/175 100/870/175
f 100/870/176 177/869/176 178/871/176 99/872/176
f 99/872/177 178/871/177 179/873/177 98/874/177
f 98/874/178 179/873/178 180/875/178 97/876/178
f 97/876/179 180/875/179 181/877/179 96/878/179
f 96/878/180 181/877/180 182/879/180 95/880/180
f 95/880/181 182/879/181 183/881/181 94/882/181
f 94/882/182 183/881/182 184/883/182 93/884/182
f 93/884/183 184/883/183 185/885/183 92/886/183
f 92/886/184 185/885/184 186/887/184 91/888/184
f 91/888/185 186/887/185 187/889/185 90/890/185
f 90/890/186 187/889/186 188/891/186 89/892/186
f 89/892/187 188/891/187 189/893/187 88/894/187
f 88/894/188 189/893/188 190/895/188 87/896/188
f 87/896/189 190/895/189 191/897/189 86/898/189
f 86/898/190 191/897/190 192/899/190 85/900/190
f 85/900/191 192/899/191 193/901/191 84/902/191
f 84/902/192 193/901/192 194/903/192 83/904/192
f 83/904/193 194/903/193 195/905/193 82/906/193
f 82/906/194 195/905/194 196/907/194 81/908/194
f 81/908/195 196/907/195 197/909/195 80/910/195
f 80/910/196 197/909/196 198/911/196 79/912/196
f 79/912/197 198/911/197 199/913/197 78/914/197
f 78/914/198 199/913/198 200/915/198 77/916/198
f 77/916/199 200/915/199 201/917/199 76/918/199
f 76/918/200 201/917/200 202/919/200 75/920/200
f 75/920/201 202/919/201 203/921/201 74/922/201
f 74/922/202 203/921/202 204/923/202 73/924/202
f 73/924/203 204/923/203 205/925/203 72/926/203
f 72/926/204 205/925/204 206/927/204 71/928/204
f 71/928/205 206/927/205 207/929/205 70/930/205
f 70/930/206 207/929/206 208/931/206 69/932/206
f 69/932/207 208/931/207 209/933/207 68/934/207
f 68/934/208 209/933/208 210/935/208 67/936/208
f 67/936/209 210/935/209 211/937/209 66/938/209
f 66/938/210 211/937/210 212/939/210 65/940/210
f 65/940/211 212/939/211 213/941/211 64/942/211
f 64/942/212 213/941/212 214/943/212 63/944/212
f 63/944/213 214/943/213 215/945/213 62/946/213
f 62/946/214 215/945/214 216/947/214 61/948/214
f 61/948/215 216/947/215 217/949/215 60/950/215
f 60/950/216 217/949/216 218/951/216 59/952/216
f 59/952/217 218/951/217 219/953/217 58/954/217
f 58/954/218 219/953/218 220/955/218 57/956/218
f 57/956/219 220/955/219 221/957/219 56/958/219
f 56/958/220 221/957/220 222/959/220 55/960/220
f 55/960/221 222/959/221 223/961/221 54/962/221
f 54/962/222 223/961/222 224/963/222 53/964/222
f 53/964/223 224/963/223 225/965/223 52/966/223
f 52/966/224 225/965/224 226/967/224 51/968/224
f 51/968/225 226/967/225 227/969/225 50/970/225
f 50/970/226 227/969/226 228/971/226 49/972/226
f 49/972/227 228/971/227 229/973/227 48/974/227
f 48/974/228 229/973/228 230/975/228 47/976/228
f 47/976/229 230/975/229 231/977/229 46/978/229
f 46/978/230 231/977/230 232/979/230 45/980/230
f 45/980/231 232/979/231 233/981/231 44/982/231
f 44/982/232 233/981/232 234/983/232 43/984/232
f 43/984/233 234/983/233 235/985/233 42/986/233
f 42/986/234 235/985/234 236/987/234 41/988/234
f 41/988/235 236/987/235 237/989/235 40/990/235
f 40/990/236 237/989/236 238/991/236 39/992/236
f 39/992/237 238/991/237 239/993/237 38/994/237
f 38/994/238 239/993/238 240/995/238 37/996/238
f 37/996/239 240/995/239 241/997/239 36/998/239
f 36/998/240 241/997/240 242/999/240 35/1000/240
f 35/1000/241 242/999/241 243/1001/241 34/1002/241
f 34/1002/242 243/1001/242 244/1003/242 33/1004/242
f 33/1004/243 244/1003/243 245/1005/243 32/1006/243
f 32/1006/244 245/1005/244 246/1007/244 31/1008/244
f 31/1008/245 246/1007/245 247/1009/245 30/1010/245
f 30/1010/246 247/1009/246 248/1011/246 29/1012/246
f 29/1012/247 248/1011/247 249/1013/247 28/1014/247
f 28/1014/248 249/1013/248 250/1015/248 27/1016/248
f 27/1016/249 250/1015/249 251/1017/249 26/1018/249
f 26/1018/250 251/1017/250 252/1019/250 25/1020/250
f 25/1020/251 252/1019/251 253/1021/251 24/1022/251
f 24/1022/252 253/1021/252 254/1023/252 23/1024/252
f 23/1024/253 254/1023/253 255/1025/253 22/1026/253
f 22/1026/254 255/1025/254 256/1027/254 21/1028/254
f 21/1028/255 256/1027/255 257/1029/255 20/1030/255
f 20/1030/256 257/1029/256 258/1031/256 19/1032/256
f 19/1032/257 258/1031/257 259/1033/257 18/1034/257
f 18/1034/258 259/1033/258 260/1035/258 17/1036/258
f 17/1036/259 260/1035/259 261/1037/259 16/1038/259
f 16/1038/260 261/1037/260 262/1039/260 15/1040/260
f 15/1040/261 262/1039/261 263/1041/261 14/1042/261
f 14/1042/262 263/1041/262 264/1043/262 13/1044/262
f 13/1044/263 264/1043/263 265/1045/263 12/1046/263
f 12/1046/264 265/1045/264 266/1047/264 11/1048/264
f 11/1048/265 266/1047/265 267/1049/265 10/1050/265
f 10/1050/266 267/1049/266 268/6/266 9/5/266
