# Blender 4.2.3 LTS
# www.blender.org
mtllib Angle45Curve1.mtl
o Cube.001
v -24.275675 7.555314 -9.000000
v -24.275675 7.555313 9.000000
v -20.740139 11.090847 -8.999999
v -20.740139 11.090847 9.000001
v 24.275675 7.555314 -9.000000
v 24.275675 7.555313 9.000000
v 20.740139 11.090847 -8.999999
v 20.740139 11.090847 9.000001
v 20.489964 10.843654 -9.000000
v 20.236843 10.599478 -9.000000
v 19.980810 10.358352 -9.000000
v 19.721907 10.120316 -9.000000
v 19.460165 9.885399 -9.000000
v 19.195629 9.653641 -9.000000
v 18.928329 9.425069 -9.000000
v 18.658310 9.199720 -9.000000
v 18.385607 8.977622 -9.000000
v 18.110264 8.758813 -9.000000
v 17.832312 8.543319 -9.000000
v 17.551800 8.331176 -9.000000
v 17.268761 8.122409 -9.000000
v 16.983244 7.917053 -9.000000
v 16.695280 7.715134 -9.000000
v 16.404919 7.516681 -9.000000
v 16.112198 7.321726 -9.000000
v 15.817161 7.130294 -9.000000
v 15.519849 6.942414 -9.000000
v 15.220307 6.758112 -9.000000
v 14.918574 6.577415 -9.000000
v 14.614698 6.400349 -9.000000
v 14.308722 6.226939 -9.000000
v 14.000687 6.057210 -9.000000
v 13.690639 5.891186 -9.000000
v 13.378622 5.728894 -9.000000
v 13.064682 5.570354 -9.000000
v 12.748865 5.415589 -9.000000
v 12.431213 5.264624 -9.000000
v 12.111776 5.117475 -9.000000
v 11.790596 4.974171 -9.000000
v 11.467720 4.834725 -9.000000
v 11.143197 4.699162 -9.000000
v 10.817070 4.567500 -9.000000
v 10.489388 4.439756 -9.000000
v 10.160199 4.315953 -9.000000
v 9.829550 4.196105 -9.000000
v 9.497486 4.080229 -9.000000
v 9.164056 3.968344 -9.000000
v 8.829309 3.860466 -9.000000
v 8.493294 3.756608 -9.000000
v 8.156056 3.656788 -9.000000
v 7.817647 3.561018 -9.000000
v 7.478113 3.469313 -9.000000
v 7.137504 3.381685 -9.000000
v 6.795868 3.298147 -9.000000
v 6.453256 3.218713 -9.000000
v 6.109715 3.143391 -9.000000
v 5.765297 3.072195 -9.000000
v 5.420050 3.005133 -9.000000
v 5.074022 2.942217 -9.000000
v 4.727266 2.883452 -9.000000
v 4.379830 2.828852 -9.000000
v 4.031765 2.778420 -9.000000
v 3.683120 2.732166 -9.000000
v 3.333945 2.690094 -9.000000
v 2.984291 2.652215 -9.000000
v 2.634208 2.618529 -9.000000
v 2.283746 2.589043 -9.000000
v 1.932955 2.563761 -9.000000
v 1.581887 2.542690 -9.000000
v 1.230591 2.525827 -9.000000
v 0.879119 2.513179 -9.000000
v 0.527520 2.504745 -9.000000
v 0.175845 2.500529 -9.000000
v -0.175855 2.500529 -9.000000
v -0.527530 2.504745 -9.000000
v -0.879129 2.513179 -9.000000
v -1.230602 2.525827 -9.000000
v -1.581898 2.542690 -9.000000
v -1.932966 2.563763 -9.000000
v -2.283756 2.589045 -9.000000
v -2.634218 2.618529 -9.000000
v -2.984302 2.652215 -9.000000
v -3.333955 2.690096 -9.000000
v -3.683130 2.732166 -9.000000
v -4.031776 2.778422 -9.000000
v -4.379841 2.828854 -9.000000
v -4.727277 2.883454 -9.000000
v -5.074033 2.942218 -9.000000
v -5.420060 3.005135 -9.000000
v -5.765308 3.072196 -9.000000
v -6.109726 3.143393 -9.000000
v -6.453267 3.218715 -9.000000
v -6.795879 3.298149 -9.000000
v -7.137514 3.381688 -9.000000
v -7.478124 3.469315 -9.000000
v -7.817657 3.561021 -9.000000
v -8.156067 3.656791 -9.000000
v -8.493304 3.756612 -9.000000
v -8.829321 3.860469 -9.000000
v -9.164067 3.968348 -9.000000
v -9.497497 4.080233 -9.000000
v -9.829559 4.196108 -9.000000
v -10.160209 4.315956 -9.000000
v -10.489399 4.439762 -9.000000
v -10.817080 4.567503 -9.000000
v -11.143207 4.699165 -9.000000
v -11.467730 4.834729 -9.000000
v -11.790606 4.974174 -9.000000
v -12.111786 5.117481 -9.000000
v -12.431223 5.264627 -9.000000
v -12.748875 5.415595 -9.000000
v -13.064693 5.570360 -9.000000
v -13.378632 5.728899 -9.000000
v -13.690648 5.891192 -9.000000
v -14.000697 6.057216 -9.000000
v -14.308730 6.226944 -9.000000
v -14.614708 6.400354 -9.000000
v -14.918583 6.577420 -9.000000
v -15.220316 6.758118 -9.000000
v -15.519857 6.942420 -9.000000
v -15.817167 7.130300 -9.000000
v -16.112206 7.321731 -9.000000
v -16.404926 7.516687 -9.000000
v -16.695288 7.715137 -9.000000
v -16.983248 7.917057 -9.000000
v -17.268768 8.122412 -9.000000
v -17.551805 8.331180 -9.000000
v -17.832317 8.543324 -9.000000
v -18.110268 8.758817 -9.000000
v -18.385612 8.977628 -9.000000
v -18.658316 9.199723 -9.000000
v -18.928335 9.425073 -9.000000
v -19.195635 9.653645 -9.000000
v -19.460169 9.885403 -9.000000
v -19.721907 10.120319 -9.000000
v -19.980814 10.358355 -9.000000
v -20.236843 10.599478 -9.000000
v -20.489964 10.843654 -9.000000
v -20.489964 10.843654 9.000000
v -20.236843 10.599478 9.000000
v -19.980810 10.358352 9.000000
v -19.721907 10.120316 9.000000
v -19.460165 9.885399 9.000000
v -19.195629 9.653641 9.000000
v -18.928329 9.425069 9.000000
v -18.658310 9.199720 9.000000
v -18.385607 8.977622 9.000000
v -18.110264 8.758813 9.000000
v -17.832312 8.543319 9.000000
v -17.551800 8.331176 9.000000
v -17.268761 8.122409 9.000000
v -16.983244 7.917052 9.000000
v -16.695280 7.715133 9.000000
v -16.404919 7.516680 9.000000
v -16.112198 7.321725 9.000000
v -15.817161 7.130293 9.000000
v -15.519849 6.942413 9.000000
v -15.220307 6.758111 9.000000
v -14.918574 6.577414 9.000000
v -14.614698 6.400348 9.000000
v -14.308722 6.226938 9.000000
v -14.000687 6.057209 9.000000
v -13.690639 5.891185 9.000000
v -13.378622 5.728893 9.000000
v -13.064682 5.570354 9.000000
v -12.748865 5.415588 9.000000
v -12.431213 5.264623 9.000000
v -12.111776 5.117474 9.000000
v -11.790596 4.974170 9.000000
v -11.467720 4.834724 9.000000
v -11.143197 4.699161 9.000000
v -10.817070 4.567499 9.000000
v -10.489388 4.439755 9.000000
v -10.160199 4.315952 9.000000
v -9.829550 4.196104 9.000000
v -9.497486 4.080228 9.000000
v -9.164056 3.968343 9.000000
v -8.829309 3.860465 9.000000
v -8.493294 3.756607 9.000000
v -8.156056 3.656787 9.000000
v -7.817647 3.561017 9.000000
v -7.478113 3.469312 9.000000
v -7.137504 3.381684 9.000000
v -6.795868 3.298146 9.000000
v -6.453256 3.218712 9.000000
v -6.109715 3.143390 9.000000
v -5.765297 3.072194 9.000000
v -5.420050 3.005132 9.000000
v -5.074022 2.942216 9.000000
v -4.727266 2.883451 9.000000
v -4.379830 2.828851 9.000000
v -4.031765 2.778419 9.000000
v -3.683120 2.732165 9.000000
v -3.333945 2.690093 9.000000
v -2.984291 2.652214 9.000000
v -2.634208 2.618528 9.000000
v -2.283746 2.589042 9.000000
v -1.932955 2.563760 9.000000
v -1.581887 2.542689 9.000000
v -1.230591 2.525826 9.000000
v -0.879119 2.513178 9.000000
v -0.527520 2.504744 9.000000
v -0.175845 2.500528 9.000000
v 0.175855 2.500528 9.000000
v 0.527530 2.504744 9.000000
v 0.879129 2.513178 9.000000
v 1.230602 2.525826 9.000000
v 1.581898 2.542689 9.000000
v 1.932966 2.563762 9.000000
v 2.283756 2.589044 9.000000
v 2.634218 2.618528 9.000000
v 2.984302 2.652214 9.000000
v 3.333955 2.690095 9.000000
v 3.683130 2.732165 9.000000
v 4.031776 2.778421 9.000000
v 4.379841 2.828853 9.000000
v 4.727277 2.883453 9.000000
v 5.074033 2.942217 9.000000
v 5.420060 3.005134 9.000000
v 5.765308 3.072196 9.000000
v 6.109726 3.143392 9.000000
v 6.453267 3.218714 9.000000
v 6.795879 3.298148 9.000000
v 7.137514 3.381687 9.000000
v 7.478124 3.469314 9.000000
v 7.817657 3.561020 9.000000
v 8.156067 3.656790 9.000000
v 8.493304 3.756611 9.000000
v 8.829321 3.860468 9.000000
v 9.164067 3.968347 9.000000
v 9.497497 4.080232 9.000000
v 9.829559 4.196107 9.000000
v 10.160209 4.315955 9.000000
v 10.489399 4.439761 9.000000
v 10.817080 4.567502 9.000000
v 11.143207 4.699164 9.000000
v 11.467730 4.834728 9.000000
v 11.790606 4.974173 9.000000
v 12.111786 5.117480 9.000000
v 12.431223 5.264626 9.000000
v 12.748875 5.415594 9.000000
v 13.064693 5.570359 9.000000
v 13.378632 5.728898 9.000000
v 13.690648 5.891191 9.000000
v 14.000697 6.057215 9.000000
v 14.308730 6.226943 9.000000
v 14.614708 6.400353 9.000000
v 14.918583 6.577419 9.000000
v 15.220316 6.758117 9.000000
v 15.519857 6.942419 9.000000
v 15.817167 7.130299 9.000000
v 16.112206 7.321730 9.000000
v 16.404926 7.516686 9.000000
v 16.695288 7.715137 9.000000
v 16.983248 7.917056 9.000000
v 17.268768 8.122412 9.000000
v 17.551805 8.331180 9.000000
v 17.832317 8.543324 9.000000
v 18.110268 8.758817 9.000000
v 18.385612 8.977628 9.000000
v 18.658316 9.199723 9.000000
v 18.928335 9.425073 9.000000
v 19.195635 9.653645 9.000000
v 19.460169 9.885403 9.000000
v 19.721907 10.120319 9.000000
v 19.980814 10.358355 9.000000
v 20.236843 10.599478 9.000000
v 20.489964 10.843654 9.000000
v -23.982851 7.265982 -9.000000
v -23.686581 6.980181 -9.000000
v -23.386902 6.697951 -9.000000
v -23.083862 6.419337 -9.000000
v -22.777504 6.144375 -9.000000
v -22.467873 5.873109 -9.000000
v -22.155008 5.605574 -9.000000
v -21.838959 5.341810 -9.000000
v -21.519768 5.081851 -9.000000
v -21.197487 4.825742 -9.000000
v -20.872154 4.573513 -9.000000
v -20.543823 4.325207 -9.000000
v -20.212536 4.080851 -9.000000
v -19.878345 3.840488 -9.000000
v -19.541294 3.604148 -9.000000
v -19.201435 3.371866 -9.000000
v -18.858814 3.143676 -9.000000
v -18.513483 2.919612 -9.000000
v -18.165489 2.699704 -9.000000
v -17.814886 2.483985 -9.000000
v -17.461716 2.272485 -9.000000
v -17.106041 2.065234 -9.000000
v -16.747902 1.862263 -9.000000
v -16.387358 1.663602 -9.000000
v -16.024458 1.469276 -9.000000
v -15.659252 1.279317 -9.000000
v -15.291796 1.093752 -9.000000
v -14.922141 0.912604 -9.000000
v -14.550341 0.735904 -9.000000
v -14.176447 0.563672 -9.000000
v -13.800517 0.395938 -9.000000
v -13.422603 0.232722 -9.000000
v -13.042757 0.074049 -9.000000
v -12.661036 -0.080057 -9.000000
v -12.277496 -0.229577 -9.000000
v -11.892190 -0.374485 -9.000000
v -11.505176 -0.514764 -9.000000
v -11.116506 -0.650392 -9.000000
v -10.726236 -0.781350 -9.000000
v -10.334426 -0.907618 -9.000000
v -9.941131 -1.029180 -9.000000
v -9.546405 -1.146017 -9.000000
v -9.150307 -1.258113 -9.000000
v -8.752892 -1.365451 -9.000000
v -8.354221 -1.468017 -9.000000
v -7.954348 -1.565794 -9.000000
v -7.553330 -1.658769 -9.000000
v -7.151228 -1.746931 -9.000000
v -6.748097 -1.830264 -9.000000
v -6.343996 -1.908758 -9.000000
v -5.938982 -1.982400 -9.000000
v -5.533114 -2.051181 -9.000000
v -5.126452 -2.115089 -9.000000
v -4.719052 -2.174118 -9.000000
v -4.310975 -2.228257 -9.000000
v -3.902276 -2.277501 -9.000000
v -3.493017 -2.321837 -9.000000
v -3.083256 -2.361265 -9.000000
v -2.673052 -2.395778 -9.000000
v -2.262463 -2.425370 -9.000000
v -1.851548 -2.450033 -9.000000
v -1.440368 -2.469770 -9.000000
v -1.028980 -2.484575 -9.000000
v -0.617445 -2.494446 -9.000000
v -0.205821 -2.499382 -9.000000
v 0.205833 -2.499382 -9.000000
v 0.617457 -2.494446 -9.000000
v 1.028993 -2.484575 -9.000000
v 1.440381 -2.469770 -9.000000
v 1.851561 -2.450033 -9.000000
v 2.262475 -2.425367 -9.000000
v 2.673064 -2.395776 -9.000000
v 3.083268 -2.361265 -9.000000
v 3.493030 -2.321837 -9.000000
v 3.902289 -2.277499 -9.000000
v 4.310987 -2.228257 -9.000000
v 4.719065 -2.174116 -9.000000
v 5.126464 -2.115087 -9.000000
v 5.533128 -2.051179 -9.000000
v 5.938995 -1.982398 -9.000000
v 6.344008 -1.908756 -9.000000
v 6.748109 -1.830263 -9.000000
v 7.151240 -1.746930 -9.000000
v 7.553343 -1.658767 -9.000000
v 7.954361 -1.565792 -9.000000
v 8.354234 -1.468012 -9.000000
v 8.752906 -1.365448 -9.000000
v 9.150319 -1.258108 -9.000000
v 9.546417 -1.146013 -9.000000
v 9.941142 -1.029176 -9.000000
v 10.334439 -0.907614 -9.000000
v 10.726250 -0.781346 -9.000000
v 11.116516 -0.650388 -9.000000
v 11.505186 -0.514760 -9.000000
v 11.892202 -0.374481 -9.000000
v 12.277508 -0.229571 -9.000000
v 12.661048 -0.080053 -9.000000
v 13.042768 0.074053 -9.000000
v 13.422613 0.232726 -9.000000
v 13.800528 0.395942 -9.000000
v 14.176459 0.563678 -9.000000
v 14.550351 0.735908 -9.000000
v 14.922152 0.912611 -9.000000
v 15.291807 1.093758 -9.000000
v 15.659264 1.279323 -9.000000
v 16.024467 1.469282 -9.000000
v 16.387369 1.663608 -9.000000
v 16.747913 1.862269 -9.000000
v 17.106052 2.065241 -9.000000
v 17.461727 2.272491 -9.000000
v 17.814896 2.483991 -9.000000
v 18.165501 2.699710 -9.000000
v 18.513491 2.919619 -9.000000
v 18.858822 3.143683 -9.000000
v 19.201445 3.371872 -9.000000
v 19.541302 3.604153 -9.000000
v 19.878351 3.840492 -9.000000
v 20.212543 4.080855 -9.000000
v 20.543827 4.325210 -9.000000
v 20.872158 4.573519 -9.000000
v 21.197493 4.825746 -9.000000
v 21.519775 5.081858 -9.000000
v 21.838966 5.341814 -9.000000
v 22.155014 5.605578 -9.000000
v 22.467878 5.873113 -9.000000
v 22.777508 6.144380 -9.000000
v 23.083866 6.419341 -9.000000
v 23.386906 6.697956 -9.000000
v 23.686581 6.980181 -9.000000
v 23.982851 7.265982 -9.000000
v 23.982851 7.265981 9.000000
v 23.686581 6.980180 9.000000
v 23.386902 6.697950 9.000000
v 23.083862 6.419336 9.000000
v 22.777504 6.144374 9.000000
v 22.467873 5.873108 9.000000
v 22.155008 5.605573 9.000000
v 21.838959 5.341809 9.000000
v 21.519768 5.081851 9.000000
v 21.197487 4.825741 9.000000
v 20.872154 4.573512 9.000000
v 20.543823 4.325206 9.000000
v 20.212536 4.080850 9.000000
v 19.878345 3.840487 9.000000
v 19.541294 3.604147 9.000000
v 19.201435 3.371865 9.000000
v 18.858814 3.143675 9.000000
v 18.513483 2.919611 9.000000
v 18.165489 2.699703 9.000000
v 17.814886 2.483984 9.000000
v 17.461716 2.272484 9.000000
v 17.106041 2.065233 9.000000
v 16.747902 1.862263 9.000000
v 16.387358 1.663601 9.000000
v 16.024458 1.469275 9.000000
v 15.659252 1.279317 9.000000
v 15.291796 1.093751 9.000000
v 14.922141 0.912604 9.000000
v 14.550341 0.735903 9.000000
v 14.176447 0.563671 9.000000
v 13.800517 0.395937 9.000000
v 13.422603 0.232721 9.000000
v 13.042757 0.074048 9.000000
v 12.661036 -0.080058 9.000000
v 12.277496 -0.229578 9.000000
v 11.892190 -0.374486 9.000000
v 11.505176 -0.514765 9.000000
v 11.116506 -0.650393 9.000000
v 10.726236 -0.781351 9.000000
v 10.334426 -0.907619 9.000000
v 9.941131 -1.029181 9.000000
v 9.546405 -1.146018 9.000000
v 9.150307 -1.258113 9.000000
v 8.752892 -1.365451 9.000000
v 8.354221 -1.468017 9.000000
v 7.954348 -1.565795 9.000000
v 7.553330 -1.658770 9.000000
v 7.151228 -1.746932 9.000000
v 6.748097 -1.830265 9.000000
v 6.343996 -1.908759 9.000000
v 5.938982 -1.982401 9.000000
v 5.533114 -2.051182 9.000000
v 5.126452 -2.115090 9.000000
v 4.719052 -2.174119 9.000000
v 4.310975 -2.228258 9.000000
v 3.902276 -2.277502 9.000000
v 3.493017 -2.321838 9.000000
v 3.083256 -2.361266 9.000000
v 2.673052 -2.395779 9.000000
v 2.262463 -2.425370 9.000000
v 1.851548 -2.450034 9.000000
v 1.440368 -2.469771 9.000000
v 1.028980 -2.484576 9.000000
v 0.617445 -2.494447 9.000000
v 0.205821 -2.499382 9.000000
v -0.205833 -2.499382 9.000000
v -0.617457 -2.494447 9.000000
v -1.028993 -2.484576 9.000000
v -1.440381 -2.469771 9.000000
v -1.851561 -2.450034 9.000000
v -2.262475 -2.425368 9.000000
v -2.673064 -2.395777 9.000000
v -3.083268 -2.361266 9.000000
v -3.493030 -2.321838 9.000000
v -3.902289 -2.277500 9.000000
v -4.310987 -2.228258 9.000000
v -4.719065 -2.174117 9.000000
v -5.126464 -2.115088 9.000000
v -5.533128 -2.051180 9.000000
v -5.938995 -1.982398 9.000000
v -6.344008 -1.908757 9.000000
v -6.748109 -1.830263 9.000000
v -7.151240 -1.746930 9.000000
v -7.553343 -1.658768 9.000000
v -7.954361 -1.565793 9.000000
v -8.354234 -1.468013 9.000000
v -8.752906 -1.365449 9.000000
v -9.150319 -1.258109 9.000000
v -9.546417 -1.146014 9.000000
v -9.941142 -1.029177 9.000000
v -10.334439 -0.907615 9.000000
v -10.726250 -0.781347 9.000000
v -11.116516 -0.650389 9.000000
v -11.505186 -0.514761 9.000000
v -11.892202 -0.374482 9.000000
v -12.277508 -0.229572 9.000000
v -12.661048 -0.080054 9.000000
v -13.042768 0.074052 9.000000
v -13.422613 0.232725 9.000000
v -13.800528 0.395941 9.000000
v -14.176459 0.563677 9.000000
v -14.550351 0.735907 9.000000
v -14.922152 0.912610 9.000000
v -15.291807 1.093757 9.000000
v -15.659264 1.279323 9.000000
v -16.024467 1.469281 9.000000
v -16.387369 1.663607 9.000000
v -16.747913 1.862269 9.000000
v -17.106052 2.065240 9.000000
v -17.461727 2.272490 9.000000
v -17.814896 2.483990 9.000000
v -18.165501 2.699709 9.000000
v -18.513491 2.919618 9.000000
v -18.858822 3.143682 9.000000
v -19.201445 3.371871 9.000000
v -19.541302 3.604152 9.000000
v -19.878351 3.840491 9.000000
v -20.212543 4.080854 9.000000
v -20.543827 4.325209 9.000000
v -20.872158 4.573518 9.000000
v -21.197493 4.825745 9.000000
v -21.519775 5.081857 9.000000
v -21.838966 5.341813 9.000000
v -22.155014 5.605577 9.000000
v -22.467878 5.873112 9.000000
v -22.777508 6.144379 9.000000
v -23.083866 6.419340 9.000000
v -23.386906 6.697955 9.000000
v -23.686581 6.980180 9.000000
v -23.982851 7.265981 9.000000
vn -0.7071 0.7071 -0.0000
vn -0.7029 0.7113 -0.0000
vn 0.7071 0.7071 -0.0000
vn -0.7029 -0.7113 -0.0000
vn -0.0000 -0.0000 -1.0000
vn -0.0000 -0.0000 1.0000
vn 0.7029 -0.7113 -0.0000
vn 0.6943 -0.7197 -0.0000
vn 0.6856 -0.7280 -0.0000
vn 0.6768 -0.7362 -0.0000
vn 0.6679 -0.7442 -0.0000
vn 0.6590 -0.7522 -0.0000
vn 0.6499 -0.7600 -0.0000
vn 0.6407 -0.7678 -0.0000
vn 0.6315 -0.7754 -0.0000
vn 0.6222 -0.7829 -0.0000
vn 0.6127 -0.7903 -0.0000
vn 0.6032 -0.7976 -0.0000
vn 0.5936 -0.8048 -0.0000
vn 0.5839 -0.8118 -0.0000
vn 0.5741 -0.8188 -0.0000
vn 0.5643 -0.8256 -0.0000
vn 0.5543 -0.8323 -0.0000
vn 0.5443 -0.8389 -0.0000
vn 0.5342 -0.8454 -0.0000
vn 0.5240 -0.8517 -0.0000
vn 0.5138 -0.8579 -0.0000
vn 0.5035 -0.8640 -0.0000
vn 0.4931 -0.8700 -0.0000
vn 0.4826 -0.8758 -0.0000
vn 0.4721 -0.8816 -0.0000
vn 0.4615 -0.8872 -0.0000
vn 0.4508 -0.8926 -0.0000
vn 0.4400 -0.8980 -0.0000
vn 0.4292 -0.9032 -0.0000
vn 0.4184 -0.9083 -0.0000
vn 0.4075 -0.9132 -0.0000
vn 0.3965 -0.9180 -0.0000
vn 0.3855 -0.9227 -0.0000
vn 0.3744 -0.9273 -0.0000
vn 0.3632 -0.9317 -0.0000
vn 0.3520 -0.9360 -0.0000
vn 0.3408 -0.9401 -0.0000
vn 0.3295 -0.9442 -0.0000
vn 0.3181 -0.9480 -0.0000
vn 0.3067 -0.9518 -0.0000
vn 0.2953 -0.9554 -0.0000
vn 0.2838 -0.9589 -0.0000
vn 0.2723 -0.9622 -0.0000
vn 0.2608 -0.9654 -0.0000
vn 0.2492 -0.9685 -0.0000
vn 0.2375 -0.9714 -0.0000
vn 0.2259 -0.9742 -0.0000
vn 0.2142 -0.9768 -0.0000
vn 0.2024 -0.9793 -0.0000
vn 0.1907 -0.9817 -0.0000
vn 0.1789 -0.9839 -0.0000
vn 0.1671 -0.9859 -0.0000
vn 0.1552 -0.9879 -0.0000
vn 0.1434 -0.9897 -0.0000
vn 0.1315 -0.9913 -0.0000
vn 0.1196 -0.9928 -0.0000
vn 0.1077 -0.9942 -0.0000
vn 0.0958 -0.9954 -0.0000
vn 0.0838 -0.9965 -0.0000
vn 0.0719 -0.9974 -0.0000
vn 0.0599 -0.9982 -0.0000
vn 0.0479 -0.9989 -0.0000
vn 0.0360 -0.9994 -0.0000
vn 0.0240 -0.9997 -0.0000
vn 0.0120 -0.9999 -0.0000
vn -0.0000 -1.0000 -0.0000
vn -0.0120 -0.9999 -0.0000
vn -0.0240 -0.9997 -0.0000
vn -0.0360 -0.9994 -0.0000
vn -0.0479 -0.9989 -0.0000
vn -0.0599 -0.9982 -0.0000
vn -0.0719 -0.9974 -0.0000
vn -0.0838 -0.9965 -0.0000
vn -0.0958 -0.9954 -0.0000
vn -0.1077 -0.9942 -0.0000
vn -0.1196 -0.9928 -0.0000
vn -0.1315 -0.9913 -0.0000
vn -0.1434 -0.9897 -0.0000
vn -0.1552 -0.9879 -0.0000
vn -0.1671 -0.9859 -0.0000
vn -0.1789 -0.9839 -0.0000
vn -0.1907 -0.9817 -0.0000
vn -0.2024 -0.9793 -0.0000
vn -0.2142 -0.9768 -0.0000
vn -0.2259 -0.9742 -0.0000
vn -0.2375 -0.9714 -0.0000
vn -0.2492 -0.9685 -0.0000
vn -0.2608 -0.9654 -0.0000
vn -0.2723 -0.9622 -0.0000
vn -0.2838 -0.9589 -0.0000
vn -0.2953 -0.9554 -0.0000
vn -0.3067 -0.9518 -0.0000
vn -0.3181 -0.9480 -0.0000
vn -0.3295 -0.9442 -0.0000
vn -0.3408 -0.9401 -0.0000
vn -0.3520 -0.9360 -0.0000
vn -0.3632 -0.9317 -0.0000
vn -0.3744 -0.9273 -0.0000
vn -0.3855 -0.9227 -0.0000
vn -0.3965 -0.9180 -0.0000
vn -0.4075 -0.9132 -0.0000
vn -0.4184 -0.9083 -0.0000
vn -0.4292 -0.9032 -0.0000
vn -0.4400 -0.8980 -0.0000
vn -0.4508 -0.8926 -0.0000
vn -0.4615 -0.8872 -0.0000
vn -0.4721 -0.8816 -0.0000
vn -0.4826 -0.8758 -0.0000
vn -0.4931 -0.8700 -0.0000
vn -0.5035 -0.8640 -0.0000
vn -0.5138 -0.8579 -0.0000
vn -0.5240 -0.8517 -0.0000
vn -0.5342 -0.8454 -0.0000
vn -0.5443 -0.8389 -0.0000
vn -0.5543 -0.8323 -0.0000
vn -0.5643 -0.8256 -0.0000
vn -0.5741 -0.8188 -0.0000
vn -0.5839 -0.8118 -0.0000
vn -0.5936 -0.8048 -0.0000
vn -0.6032 -0.7976 -0.0000
vn -0.6127 -0.7903 -0.0000
vn -0.6222 -0.7829 -0.0000
vn -0.6315 -0.7754 -0.0000
vn -0.6407 -0.7678 -0.0000
vn -0.6499 -0.7600 -0.0000
vn -0.6590 -0.7522 -0.0000
vn -0.6679 -0.7442 -0.0000
vn -0.6768 -0.7362 -0.0000
vn -0.6856 -0.7280 -0.0000
vn -0.6943 -0.7197 -0.0000
vn 0.7029 0.7113 -0.0000
vn 0.6943 0.7197 -0.0000
vn 0.6856 0.7280 -0.0000
vn 0.6768 0.7362 -0.0000
vn 0.6679 0.7442 -0.0000
vn 0.6590 0.7522 -0.0000
vn 0.6499 0.7600 -0.0000
vn 0.6407 0.7678 -0.0000
vn 0.6315 0.7754 -0.0000
vn 0.6222 0.7829 -0.0000
vn 0.6127 0.7903 -0.0000
vn 0.6032 0.7976 -0.0000
vn 0.5936 0.8048 -0.0000
vn 0.5839 0.8118 -0.0000
vn 0.5741 0.8188 -0.0000
vn 0.5643 0.8256 -0.0000
vn 0.5543 0.8323 -0.0000
vn 0.5443 0.8389 -0.0000
vn 0.5342 0.8454 -0.0000
vn 0.5240 0.8517 -0.0000
vn 0.5138 0.8579 -0.0000
vn 0.5035 0.8640 -0.0000
vn 0.4931 0.8700 -0.0000
vn 0.4826 0.8758 -0.0000
vn 0.4721 0.8816 -0.0000
vn 0.4615 0.8872 -0.0000
vn 0.4508 0.8926 -0.0000
vn 0.4400 0.8980 -0.0000
vn 0.4292 0.9032 -0.0000
vn 0.4184 0.9083 -0.0000
vn 0.4075 0.9132 -0.0000
vn 0.3965 0.9180 -0.0000
vn 0.3855 0.9227 -0.0000
vn 0.3744 0.9273 -0.0000
vn 0.3632 0.9317 -0.0000
vn 0.3520 0.9360 -0.0000
vn 0.3408 0.9401 -0.0000
vn 0.3295 0.9442 -0.0000
vn 0.3181 0.9480 -0.0000
vn 0.3067 0.9518 -0.0000
vn 0.2953 0.9554 -0.0000
vn 0.2838 0.9589 -0.0000
vn 0.2723 0.9622 -0.0000
vn 0.2608 0.9654 -0.0000
vn 0.2492 0.9685 -0.0000
vn 0.2375 0.9714 -0.0000
vn 0.2259 0.9742 -0.0000
vn 0.2142 0.9768 -0.0000
vn 0.2024 0.9793 -0.0000
vn 0.1907 0.9817 -0.0000
vn 0.1789 0.9839 -0.0000
vn 0.1671 0.9859 -0.0000
vn 0.1552 0.9879 -0.0000
vn 0.1434 0.9897 -0.0000
vn 0.1315 0.9913 -0.0000
vn 0.1196 0.9928 -0.0000
vn 0.1077 0.9942 -0.0000
vn 0.0958 0.9954 -0.0000
vn 0.0838 0.9965 -0.0000
vn 0.0719 0.9974 -0.0000
vn 0.0599 0.9982 -0.0000
vn 0.0479 0.9988 -0.0000
vn 0.0360 0.9994 -0.0000
vn 0.0240 0.9997 -0.0000
vn 0.0120 0.9999 -0.0000
vn -0.0000 1.0000 -0.0000
vn -0.0120 0.9999 -0.0000
vn -0.0240 0.9997 -0.0000
vn -0.0360 0.9994 -0.0000
vn -0.0479 0.9988 -0.0000
vn -0.0599 0.9982 -0.0000
vn -0.0719 0.9974 -0.0000
vn -0.0838 0.9965 -0.0000
vn -0.0958 0.9954 -0.0000
vn -0.1077 0.9942 -0.0000
vn -0.1196 0.9928 -0.0000
vn -0.1315 0.9913 -0.0000
vn -0.1434 0.9897 -0.0000
vn -0.1552 0.9879 -0.0000
vn -0.1671 0.9859 -0.0000
vn -0.1789 0.9839 -0.0000
vn -0.1907 0.9817 -0.0000
vn -0.2024 0.9793 -0.0000
vn -0.2142 0.9768 -0.0000
vn -0.2259 0.9742 -0.0000
vn -0.2375 0.9714 -0.0000
vn -0.2492 0.9685 -0.0000
vn -0.2608 0.9654 -0.0000
vn -0.2723 0.9622 -0.0000
vn -0.2838 0.9589 -0.0000
vn -0.2953 0.9554 -0.0000
vn -0.3067 0.9518 -0.0000
vn -0.3181 0.9480 -0.0000
vn -0.3295 0.9442 -0.0000
vn -0.3408 0.9401 -0.0000
vn -0.3520 0.9360 -0.0000
vn -0.3632 0.9317 -0.0000
vn -0.3744 0.9273 -0.0000
vn -0.3855 0.9227 -0.0000
vn -0.3965 0.9180 -0.0000
vn -0.4075 0.9132 -0.0000
vn -0.4184 0.9083 -0.0000
vn -0.4292 0.9032 -0.0000
vn -0.4400 0.8980 -0.0000
vn -0.4508 0.8926 -0.0000
vn -0.4615 0.8872 -0.0000
vn -0.4721 0.8816 -0.0000
vn -0.4826 0.8758 -0.0000
vn -0.4931 0.8700 -0.0000
vn -0.5035 0.8640 -0.0000
vn -0.5138 0.8579 -0.0000
vn -0.5240 0.8517 -0.0000
vn -0.5342 0.8454 -0.0000
vn -0.5443 0.8389 -0.0000
vn -0.5543 0.8323 -0.0000
vn -0.5643 0.8256 -0.0000
vn -0.5741 0.8188 -0.0000
vn -0.5839 0.8118 -0.0000
vn -0.5936 0.8048 -0.0000
vn -0.6032 0.7976 -0.0000
vn -0.6127 0.7903 -0.0000
vn -0.6222 0.7829 -0.0000
vn -0.6315 0.7754 -0.0000
vn -0.6407 0.7678 -0.0000
vn -0.6499 0.7600 -0.0000
vn -0.6590 0.7522 -0.0000
vn -0.6679 0.7442 -0.0000
vn -0.6768 0.7362 -0.0000
vn -0.6856 0.7280 -0.0000
vn -0.6943 0.7197 -0.0000
vt 0.375000 0.000000
vt 0.625000 0.000000
vt 0.625000 0.250000
vt 0.375000 0.250000
vt 0.374046 0.499046
vt 0.625954 0.499046
vt 0.625000 0.500000
vt 0.375000 0.500000
vt 0.625000 0.750000
vt 0.375000 0.750000
vt 0.375000 0.998092
vt 0.625000 0.998092
vt 0.625000 1.000000
vt 0.375000 1.000000
vt 0.374046 0.750954
vt 0.873092 0.500000
vt 0.875000 0.500000
vt 0.875000 0.750000
vt 0.873092 0.750000
vt 0.625954 0.750954
vt 0.628817 0.500000
vt 0.628817 0.750000
vt 0.630725 0.500000
vt 0.630725 0.750000
vt 0.632634 0.500000
vt 0.632634 0.750000
vt 0.634542 0.500000
vt 0.634542 0.750000
vt 0.636450 0.500000
vt 0.636450 0.750000
vt 0.638359 0.500000
vt 0.638359 0.750000
vt 0.640267 0.500000
vt 0.640267 0.750000
vt 0.642175 0.500000
vt 0.642176 0.750000
vt 0.644084 0.500000
vt 0.644084 0.750000
vt 0.645992 0.500000
vt 0.645993 0.750000
vt 0.647901 0.500000
vt 0.647901 0.750000
vt 0.649809 0.500000
vt 0.649809 0.750000
vt 0.651717 0.500000
vt 0.651718 0.750000
vt 0.653626 0.500000
vt 0.653626 0.750000
vt 0.655534 0.500000
vt 0.655535 0.750000
vt 0.657443 0.500000
vt 0.657443 0.750000
vt 0.659351 0.500000
vt 0.659351 0.750000
vt 0.661259 0.500000
vt 0.661260 0.750000
vt 0.663168 0.500000
vt 0.663168 0.750000
vt 0.665076 0.500000
vt 0.665076 0.750000
vt 0.666985 0.500000
vt 0.666985 0.750000
vt 0.668893 0.500000
vt 0.668893 0.750000
vt 0.670801 0.500000
vt 0.670802 0.750000
vt 0.672710 0.500000
vt 0.672710 0.750000
vt 0.674618 0.500000
vt 0.674618 0.750000
vt 0.676527 0.500000
vt 0.676527 0.750000
vt 0.678435 0.500000
vt 0.678435 0.750000
vt 0.680343 0.500000
vt 0.680344 0.750000
vt 0.682252 0.500000
vt 0.682252 0.750000
vt 0.684160 0.500000
vt 0.684160 0.750000
vt 0.686069 0.500000
vt 0.686069 0.750000
vt 0.687977 0.500000
vt 0.687977 0.750000
vt 0.689885 0.500000
vt 0.689885 0.750000
vt 0.691794 0.500000
vt 0.691794 0.750000
vt 0.693702 0.500000
vt 0.693702 0.750000
vt 0.695611 0.500000
vt 0.695611 0.750000
vt 0.697519 0.500000
vt 0.697519 0.750000
vt 0.699427 0.500000
vt 0.699427 0.750000
vt 0.701336 0.500000
vt 0.701336 0.750000
vt 0.703244 0.500000
vt 0.703244 0.750000
vt 0.705153 0.500000
vt 0.705153 0.750000
vt 0.707061 0.500000
vt 0.707061 0.750000
vt 0.708969 0.500000
vt 0.708969 0.750000
vt 0.710878 0.500000
vt 0.710878 0.750000
vt 0.712786 0.500000
vt 0.712786 0.750000
vt 0.714695 0.500000
vt 0.714695 0.750000
vt 0.716603 0.500000
vt 0.716603 0.750000
vt 0.718512 0.500000
vt 0.718511 0.750000
vt 0.720420 0.500000
vt 0.720420 0.750000
vt 0.722328 0.500000
vt 0.722328 0.750000
vt 0.724237 0.500000
vt 0.724237 0.750000
vt 0.726145 0.500000
vt 0.726145 0.750000
vt 0.728054 0.500000
vt 0.728053 0.750000
vt 0.729962 0.500000
vt 0.729962 0.750000
vt 0.731870 0.500000
vt 0.731870 0.750000
vt 0.733779 0.500000
vt 0.733779 0.750000
vt 0.735687 0.500000
vt 0.735687 0.750000
vt 0.737595 0.500000
vt 0.737595 0.750000
vt 0.739504 0.500000
vt 0.739504 0.750000
vt 0.741412 0.500000
vt 0.741412 0.750000
vt 0.743321 0.500000
vt 0.743321 0.750000
vt 0.745229 0.500000
vt 0.745229 0.750000
vt 0.747137 0.500000
vt 0.747137 0.750000
vt 0.749046 0.500000
vt 0.749046 0.750000
vt 0.750954 0.500000
vt 0.750954 0.750000
vt 0.752863 0.500000
vt 0.752862 0.750000
vt 0.754771 0.500000
vt 0.754771 0.750000
vt 0.756679 0.500000
vt 0.756679 0.750000
vt 0.758588 0.500000
vt 0.758588 0.750000
vt 0.760496 0.500000
vt 0.760496 0.750000
vt 0.762405 0.500000
vt 0.762405 0.750000
vt 0.764313 0.500000
vt 0.764313 0.750000
vt 0.766221 0.500000
vt 0.766221 0.750000
vt 0.768130 0.500000
vt 0.768130 0.750000
vt 0.770038 0.500000
vt 0.770038 0.750000
vt 0.771946 0.500000
vt 0.771947 0.750000
vt 0.773855 0.500000
vt 0.773855 0.750000
vt 0.775763 0.500000
vt 0.775763 0.750000
vt 0.777672 0.500000
vt 0.777672 0.750000
vt 0.779580 0.500000
vt 0.779580 0.750000
vt 0.781488 0.500000
vt 0.781489 0.750000
vt 0.783397 0.500000
vt 0.783397 0.750000
vt 0.785305 0.500000
vt 0.785305 0.750000
vt 0.787214 0.500000
vt 0.787214 0.750000
vt 0.789122 0.500000
vt 0.789122 0.750000
vt 0.791030 0.500000
vt 0.791031 0.750000
vt 0.792939 0.500000
vt 0.792939 0.750000
vt 0.794847 0.500000
vt 0.794848 0.750000
vt 0.796756 0.500000
vt 0.796756 0.750000
vt 0.798664 0.500000
vt 0.798664 0.750000
vt 0.800572 0.500000
vt 0.800573 0.750000
vt 0.802481 0.500000
vt 0.802481 0.750000
vt 0.804389 0.500000
vt 0.804389 0.750000
vt 0.806298 0.500000
vt 0.806298 0.750000
vt 0.808206 0.500000
vt 0.808206 0.750000
vt 0.810114 0.500000
vt 0.810115 0.750000
vt 0.812023 0.500000
vt 0.812023 0.750000
vt 0.813931 0.500000
vt 0.813931 0.750000
vt 0.815840 0.500000
vt 0.815840 0.750000
vt 0.817748 0.500000
vt 0.817748 0.750000
vt 0.819656 0.500000
vt 0.819657 0.750000
vt 0.821565 0.500000
vt 0.821565 0.750000
vt 0.823473 0.500000
vt 0.823473 0.750000
vt 0.825382 0.500000
vt 0.825382 0.750000
vt 0.827290 0.500000
vt 0.827290 0.750000
vt 0.829198 0.500000
vt 0.829199 0.750000
vt 0.831107 0.500000
vt 0.831107 0.750000
vt 0.833015 0.500000
vt 0.833015 0.750000
vt 0.834924 0.500000
vt 0.834924 0.750000
vt 0.836832 0.500000
vt 0.836832 0.750000
vt 0.838740 0.500000
vt 0.838741 0.750000
vt 0.840649 0.500000
vt 0.840649 0.750000
vt 0.842557 0.500000
vt 0.842557 0.750000
vt 0.844465 0.500000
vt 0.844466 0.750000
vt 0.846374 0.500000
vt 0.846374 0.750000
vt 0.848282 0.500000
vt 0.848283 0.750000
vt 0.850191 0.500000
vt 0.850191 0.750000
vt 0.852099 0.500000
vt 0.852099 0.750000
vt 0.854008 0.500000
vt 0.854008 0.750000
vt 0.855916 0.500000
vt 0.855916 0.750000
vt 0.857824 0.500000
vt 0.857825 0.750000
vt 0.859733 0.500000
vt 0.859733 0.750000
vt 0.861641 0.500000
vt 0.861641 0.750000
vt 0.863550 0.500000
vt 0.863550 0.750000
vt 0.865458 0.500000
vt 0.865458 0.750000
vt 0.867366 0.500000
vt 0.867367 0.750000
vt 0.869275 0.500000
vt 0.869275 0.750000
vt 0.871183 0.500000
vt 0.871183 0.750000
vt 0.125000 0.500000
vt 0.126908 0.500000
vt 0.126908 0.750000
vt 0.125000 0.750000
vt 0.128817 0.500000
vt 0.128817 0.750000
vt 0.130725 0.500000
vt 0.130725 0.750000
vt 0.132634 0.500000
vt 0.132634 0.750000
vt 0.134542 0.500000
vt 0.134542 0.750000
vt 0.136450 0.500000
vt 0.136450 0.750000
vt 0.138359 0.500000
vt 0.138359 0.750000
vt 0.140267 0.500000
vt 0.140267 0.750000
vt 0.142176 0.500000
vt 0.142176 0.750000
vt 0.144084 0.500000
vt 0.144084 0.750000
vt 0.145992 0.500000
vt 0.145992 0.750000
vt 0.147901 0.500000
vt 0.147901 0.750000
vt 0.149809 0.500000
vt 0.149809 0.750000
vt 0.151718 0.500000
vt 0.151718 0.750000
vt 0.153626 0.500000
vt 0.153626 0.750000
vt 0.155534 0.500000
vt 0.155534 0.750000
vt 0.157443 0.500000
vt 0.157443 0.750000
vt 0.159351 0.500000
vt 0.159351 0.750000
vt 0.161260 0.500000
vt 0.161260 0.750000
vt 0.163168 0.500000
vt 0.163168 0.750000
vt 0.165076 0.500000
vt 0.165076 0.750000
vt 0.166985 0.500000
vt 0.166985 0.750000
vt 0.168893 0.500000
vt 0.168893 0.750000
vt 0.170802 0.500000
vt 0.170802 0.750000
vt 0.172710 0.500000
vt 0.172710 0.750000
vt 0.174618 0.500000
vt 0.174618 0.750000
vt 0.176527 0.500000
vt 0.176527 0.750000
vt 0.178435 0.500000
vt 0.178435 0.750000
vt 0.180344 0.500000
vt 0.180344 0.750000
vt 0.182252 0.500000
vt 0.182252 0.750000
vt 0.184160 0.500000
vt 0.184160 0.750000
vt 0.186069 0.500000
vt 0.186069 0.750000
vt 0.187977 0.500000
vt 0.187977 0.750000
vt 0.189886 0.500000
vt 0.189885 0.750000
vt 0.191794 0.500000
vt 0.191794 0.750000
vt 0.193702 0.500000
vt 0.193702 0.750000
vt 0.195611 0.500000
vt 0.195611 0.750000
vt 0.197519 0.500000
vt 0.197519 0.750000
vt 0.199428 0.500000
vt 0.199427 0.750000
vt 0.201336 0.500000
vt 0.201336 0.750000
vt 0.203244 0.500000
vt 0.203244 0.750000
vt 0.205153 0.500000
vt 0.205153 0.750000
vt 0.207061 0.500000
vt 0.207061 0.750000
vt 0.208970 0.500000
vt 0.208969 0.750000
vt 0.210878 0.500000
vt 0.210878 0.750000
vt 0.212786 0.500000
vt 0.212786 0.750000
vt 0.214695 0.500000
vt 0.214695 0.750000
vt 0.216603 0.500000
vt 0.216603 0.750000
vt 0.218511 0.500000
vt 0.218511 0.750000
vt 0.220420 0.500000
vt 0.220420 0.750000
vt 0.222328 0.500000
vt 0.222328 0.750000
vt 0.224237 0.500000
vt 0.224237 0.750000
vt 0.226145 0.500000
vt 0.226145 0.750000
vt 0.228053 0.500000
vt 0.228053 0.750000
vt 0.229962 0.500000
vt 0.229962 0.750000
vt 0.231870 0.500000
vt 0.231870 0.750000
vt 0.233779 0.500000
vt 0.233779 0.750000
vt 0.235687 0.500000
vt 0.235687 0.750000
vt 0.237595 0.500000
vt 0.237595 0.750000
vt 0.239504 0.500000
vt 0.239504 0.750000
vt 0.241412 0.500000
vt 0.241412 0.750000
vt 0.243321 0.500000
vt 0.243321 0.750000
vt 0.245229 0.500000
vt 0.245229 0.750000
vt 0.247137 0.500000
vt 0.247137 0.750000
vt 0.249046 0.500000
vt 0.249046 0.750000
vt 0.250954 0.500000
vt 0.250954 0.750000
vt 0.252863 0.500000
vt 0.252863 0.750000
vt 0.254771 0.500000
vt 0.254771 0.750000
vt 0.256679 0.500000
vt 0.256679 0.750000
vt 0.258588 0.500000
vt 0.258588 0.750000
vt 0.260496 0.500000
vt 0.260496 0.750000
vt 0.262405 0.500000
vt 0.262405 0.750000
vt 0.264313 0.500000
vt 0.264313 0.750000
vt 0.266221 0.500000
vt 0.266221 0.750000
vt 0.268130 0.500000
vt 0.268130 0.750000
vt 0.270038 0.500000
vt 0.270038 0.750000
vt 0.271947 0.500000
vt 0.271946 0.750000
vt 0.273855 0.500000
vt 0.273855 0.750000
vt 0.275763 0.500000
vt 0.275763 0.750000
vt 0.277672 0.500000
vt 0.277672 0.750000
vt 0.279580 0.500000
vt 0.279580 0.750000
vt 0.281489 0.500000
vt 0.281488 0.750000
vt 0.283397 0.500000
vt 0.283397 0.750000
vt 0.285305 0.500000
vt 0.285305 0.750000
vt 0.287214 0.500000
vt 0.287214 0.750000
vt 0.289122 0.500000
vt 0.289122 0.750000
vt 0.291031 0.500000
vt 0.291030 0.750000
vt 0.292939 0.500000
vt 0.292939 0.750000
vt 0.294847 0.500000
vt 0.294847 0.750000
vt 0.296756 0.500000
vt 0.296756 0.750000
vt 0.298664 0.500000
vt 0.298664 0.750000
vt 0.300573 0.500000
vt 0.300572 0.750000
vt 0.302481 0.500000
vt 0.302481 0.750000
vt 0.304389 0.500000
vt 0.304389 0.750000
vt 0.306298 0.500000
vt 0.306298 0.750000
vt 0.308206 0.500000
vt 0.308206 0.750000
vt 0.310115 0.500000
vt 0.310114 0.750000
vt 0.312023 0.500000
vt 0.312023 0.750000
vt 0.313931 0.500000
vt 0.313931 0.750000
vt 0.315840 0.500000
vt 0.315840 0.750000
vt 0.317748 0.500000
vt 0.317748 0.750000
vt 0.319656 0.500000
vt 0.319656 0.750000
vt 0.321565 0.500000
vt 0.321565 0.750000
vt 0.323473 0.500000
vt 0.323473 0.750000
vt 0.325382 0.500000
vt 0.325382 0.750000
vt 0.327290 0.500000
vt 0.327290 0.750000
vt 0.329198 0.500000
vt 0.329198 0.750000
vt 0.331107 0.500000
vt 0.331107 0.750000
vt 0.333015 0.500000
vt 0.333015 0.750000
vt 0.334924 0.500000
vt 0.334924 0.750000
vt 0.336832 0.500000
vt 0.336832 0.750000
vt 0.338740 0.500000
vt 0.338740 0.750000
vt 0.340649 0.500000
vt 0.340649 0.750000
vt 0.342557 0.500000
vt 0.342557 0.750000
vt 0.344466 0.500000
vt 0.344466 0.750000
vt 0.346374 0.500000
vt 0.346374 0.750000
vt 0.348282 0.500000
vt 0.348282 0.750000
vt 0.350191 0.500000
vt 0.350191 0.750000
vt 0.352099 0.500000
vt 0.352099 0.750000
vt 0.354008 0.500000
vt 0.354008 0.750000
vt 0.355916 0.500000
vt 0.355916 0.750000
vt 0.357824 0.500000
vt 0.357824 0.750000
vt 0.359733 0.500000
vt 0.359733 0.750000
vt 0.361641 0.500000
vt 0.361641 0.750000
vt 0.363550 0.500000
vt 0.363550 0.750000
vt 0.365458 0.500000
vt 0.365458 0.750000
vt 0.367366 0.500000
vt 0.367366 0.750000
vt 0.369275 0.500000
vt 0.369275 0.750000
vt 0.371183 0.500000
vt 0.371183 0.750000
vt 0.625000 0.753817
vt 0.375000 0.753817
vt 0.625000 0.755725
vt 0.375000 0.755725
vt 0.625000 0.757634
vt 0.375000 0.757634
vt 0.625000 0.759542
vt 0.375000 0.759542
vt 0.625000 0.761451
vt 0.375000 0.761450
vt 0.625000 0.763359
vt 0.375000 0.763359
vt 0.625000 0.765267
vt 0.375000 0.765267
vt 0.625000 0.767176
vt 0.375000 0.767175
vt 0.625000 0.769084
vt 0.375000 0.769084
vt 0.625000 0.770993
vt 0.375000 0.770992
vt 0.625000 0.772901
vt 0.375000 0.772901
vt 0.625000 0.774809
vt 0.375000 0.774809
vt 0.625000 0.776718
vt 0.375000 0.776717
vt 0.625000 0.778626
vt 0.375000 0.778626
vt 0.625000 0.780535
vt 0.375000 0.780534
vt 0.625000 0.782443
vt 0.375000 0.782443
vt 0.625000 0.784352
vt 0.375000 0.784351
vt 0.625000 0.786260
vt 0.375000 0.786259
vt 0.625000 0.788168
vt 0.375000 0.788168
vt 0.625000 0.790077
vt 0.375000 0.790076
vt 0.625000 0.791985
vt 0.375000 0.791985
vt 0.625000 0.793894
vt 0.375000 0.793893
vt 0.625000 0.795802
vt 0.375000 0.795801
vt 0.625000 0.797710
vt 0.375000 0.797710
vt 0.625000 0.799619
vt 0.375000 0.799618
vt 0.625000 0.801527
vt 0.375000 0.801527
vt 0.625000 0.803436
vt 0.375000 0.803435
vt 0.625000 0.805344
vt 0.375000 0.805343
vt 0.625000 0.807252
vt 0.375000 0.807252
vt 0.625000 0.809161
vt 0.375000 0.809160
vt 0.625000 0.811069
vt 0.375000 0.811069
vt 0.625000 0.812978
vt 0.375000 0.812977
vt 0.625000 0.814886
vt 0.375000 0.814885
vt 0.625000 0.816794
vt 0.375000 0.816794
vt 0.625000 0.818703
vt 0.375000 0.818702
vt 0.625000 0.820611
vt 0.375000 0.820611
vt 0.625000 0.822520
vt 0.375000 0.822519
vt 0.625000 0.824428
vt 0.375000 0.824427
vt 0.625000 0.826336
vt 0.375000 0.826336
vt 0.625000 0.828245
vt 0.375000 0.828244
vt 0.625000 0.830153
vt 0.375000 0.830153
vt 0.625000 0.832062
vt 0.375000 0.832061
vt 0.625000 0.833970
vt 0.375000 0.833969
vt 0.625000 0.835878
vt 0.375000 0.835878
vt 0.625000 0.837787
vt 0.375000 0.837786
vt 0.625000 0.839695
vt 0.375000 0.839694
vt 0.625000 0.841604
vt 0.375000 0.841603
vt 0.625000 0.843512
vt 0.375000 0.843511
vt 0.625000 0.845420
vt 0.375000 0.845420
vt 0.625000 0.847329
vt 0.375000 0.847328
vt 0.625000 0.849237
vt 0.375000 0.849236
vt 0.625000 0.851145
vt 0.375000 0.851145
vt 0.625000 0.853054
vt 0.375000 0.853053
vt 0.625000 0.854962
vt 0.375000 0.854962
vt 0.625000 0.856871
vt 0.375000 0.856870
vt 0.625000 0.858779
vt 0.375000 0.858778
vt 0.625000 0.860687
vt 0.375000 0.860687
vt 0.625000 0.862596
vt 0.375000 0.862595
vt 0.625000 0.864504
vt 0.375000 0.864504
vt 0.625000 0.866413
vt 0.375000 0.866412
vt 0.625000 0.868321
vt 0.375000 0.868320
vt 0.625000 0.870229
vt 0.375000 0.870229
vt 0.625000 0.872138
vt 0.375000 0.872137
vt 0.625000 0.874046
vt 0.375000 0.874046
vt 0.625000 0.875955
vt 0.375000 0.875954
vt 0.625000 0.877863
vt 0.375000 0.877862
vt 0.625000 0.879771
vt 0.375000 0.879771
vt 0.625000 0.881680
vt 0.375000 0.881679
vt 0.625000 0.883588
vt 0.375000 0.883588
vt 0.625000 0.885496
vt 0.375000 0.885496
vt 0.625000 0.887405
vt 0.375000 0.887404
vt 0.625000 0.889313
vt 0.375000 0.889313
vt 0.625000 0.891222
vt 0.375000 0.891221
vt 0.625000 0.893130
vt 0.375000 0.893129
vt 0.625000 0.895038
vt 0.375000 0.895038
vt 0.625000 0.896947
vt 0.375000 0.896946
vt 0.625000 0.898855
vt 0.375000 0.898855
vt 0.625000 0.900764
vt 0.375000 0.900763
vt 0.625000 0.902672
vt 0.375000 0.902672
vt 0.625000 0.904580
vt 0.375000 0.904580
vt 0.625000 0.906489
vt 0.375000 0.906488
vt 0.625000 0.908397
vt 0.375000 0.908397
vt 0.625000 0.910306
vt 0.375000 0.910305
vt 0.625000 0.912214
vt 0.375000 0.912214
vt 0.625000 0.914122
vt 0.375000 0.914122
vt 0.625000 0.916031
vt 0.375000 0.916030
vt 0.625000 0.917939
vt 0.375000 0.917939
vt 0.625000 0.919848
vt 0.375000 0.919847
vt 0.625000 0.921756
vt 0.375000 0.921756
vt 0.625000 0.923664
vt 0.375000 0.923664
vt 0.625000 0.925573
vt 0.375000 0.925572
vt 0.625000 0.927481
vt 0.375000 0.927481
vt 0.625000 0.929390
vt 0.375000 0.929389
vt 0.625000 0.931298
vt 0.375000 0.931297
vt 0.625000 0.933206
vt 0.375000 0.933206
vt 0.625000 0.935115
vt 0.375000 0.935114
vt 0.625000 0.937023
vt 0.375000 0.937023
vt 0.625000 0.938931
vt 0.375000 0.938931
vt 0.625000 0.940840
vt 0.375000 0.940839
vt 0.625000 0.942748
vt 0.375000 0.942748
vt 0.625000 0.944657
vt 0.375000 0.944656
vt 0.625000 0.946565
vt 0.375000 0.946565
vt 0.625000 0.948473
vt 0.375000 0.948473
vt 0.625000 0.950382
vt 0.375000 0.950382
vt 0.625000 0.952290
vt 0.375000 0.952290
vt 0.625000 0.954199
vt 0.375000 0.954198
vt 0.625000 0.956107
vt 0.375000 0.956107
vt 0.625000 0.958015
vt 0.375000 0.958015
vt 0.625000 0.959924
vt 0.375000 0.959924
vt 0.625000 0.961832
vt 0.375000 0.961832
vt 0.625000 0.963741
vt 0.375000 0.963740
vt 0.625000 0.965649
vt 0.375000 0.965649
vt 0.625000 0.967557
vt 0.375000 0.967557
vt 0.625000 0.969466
vt 0.375000 0.969465
vt 0.625000 0.971374
vt 0.375000 0.971374
vt 0.625000 0.973283
vt 0.375000 0.973282
vt 0.625000 0.975191
vt 0.375000 0.975191
vt 0.625000 0.977099
vt 0.375000 0.977099
vt 0.625000 0.979008
vt 0.375000 0.979007
vt 0.625000 0.980916
vt 0.375000 0.980916
vt 0.625000 0.982824
vt 0.375000 0.982824
vt 0.625000 0.984733
vt 0.375000 0.984733
vt 0.625000 0.986641
vt 0.375000 0.986641
vt 0.625000 0.988550
vt 0.375000 0.988550
vt 0.625000 0.990458
vt 0.375000 0.990458
vt 0.625000 0.992366
vt 0.375000 0.992366
vt 0.625000 0.994275
vt 0.375000 0.994275
vt 0.625000 0.996183
vt 0.375000 0.996183
vt 0.625000 0.251908
vt 0.375000 0.251908
vt 0.625000 0.253817
vt 0.375000 0.253817
vt 0.625000 0.255725
vt 0.375000 0.255725
vt 0.625000 0.257634
vt 0.375000 0.257634
vt 0.625000 0.259542
vt 0.375000 0.259542
vt 0.625000 0.261450
vt 0.375000 0.261450
vt 0.625000 0.263359
vt 0.375000 0.263359
vt 0.625000 0.265267
vt 0.375000 0.265267
vt 0.625000 0.267176
vt 0.375000 0.267176
vt 0.625000 0.269084
vt 0.375000 0.269084
vt 0.625000 0.270992
vt 0.375000 0.270992
vt 0.625000 0.272901
vt 0.375000 0.272901
vt 0.625000 0.274809
vt 0.375000 0.274809
vt 0.625000 0.276717
vt 0.375000 0.276717
vt 0.625000 0.278626
vt 0.375000 0.278626
vt 0.625000 0.280534
vt 0.375000 0.280534
vt 0.625000 0.282443
vt 0.375000 0.282443
vt 0.625000 0.284351
vt 0.375000 0.284351
vt 0.625000 0.286259
vt 0.375000 0.286259
vt 0.625000 0.288168
vt 0.375000 0.288168
vt 0.625000 0.290076
vt 0.375000 0.290076
vt 0.625000 0.291985
vt 0.375000 0.291985
vt 0.625000 0.293893
vt 0.375000 0.293893
vt 0.625000 0.295801
vt 0.375000 0.295801
vt 0.625000 0.297710
vt 0.375000 0.297710
vt 0.625000 0.299618
vt 0.375000 0.299618
vt 0.625000 0.301527
vt 0.375000 0.301527
vt 0.625000 0.303435
vt 0.375000 0.303435
vt 0.625000 0.305343
vt 0.375000 0.305343
vt 0.625000 0.307252
vt 0.375000 0.307252
vt 0.625000 0.309160
vt 0.375000 0.309160
vt 0.625000 0.311069
vt 0.375000 0.311069
vt 0.625000 0.312977
vt 0.375000 0.312977
vt 0.625000 0.314885
vt 0.375000 0.314885
vt 0.625000 0.316794
vt 0.375000 0.316794
vt 0.625000 0.318702
vt 0.375000 0.318702
vt 0.625000 0.320610
vt 0.375000 0.320611
vt 0.625000 0.322519
vt 0.375000 0.322519
vt 0.625000 0.324427
vt 0.375000 0.324427
vt 0.625000 0.326336
vt 0.375000 0.326336
vt 0.625000 0.328244
vt 0.375000 0.328244
vt 0.625000 0.330152
vt 0.375000 0.330153
vt 0.625000 0.332061
vt 0.375000 0.332061
vt 0.625000 0.333969
vt 0.375000 0.333969
vt 0.625000 0.335878
vt 0.375000 0.335878
vt 0.625000 0.337786
vt 0.375000 0.337786
vt 0.625000 0.339694
vt 0.375000 0.339695
vt 0.625000 0.341603
vt 0.375000 0.341603
vt 0.625000 0.343511
vt 0.375000 0.343511
vt 0.625000 0.345420
vt 0.375000 0.345420
vt 0.625000 0.347328
vt 0.375000 0.347328
vt 0.625000 0.349236
vt 0.375000 0.349237
vt 0.625000 0.351145
vt 0.375000 0.351145
vt 0.625000 0.353053
vt 0.375000 0.353053
vt 0.625000 0.354962
vt 0.375000 0.354962
vt 0.625000 0.356870
vt 0.375000 0.356870
vt 0.625000 0.358778
vt 0.375000 0.358779
vt 0.625000 0.360687
vt 0.375000 0.360687
vt 0.625000 0.362595
vt 0.375000 0.362595
vt 0.625000 0.364504
vt 0.375000 0.364504
vt 0.625000 0.366412
vt 0.375000 0.366412
vt 0.625000 0.368320
vt 0.375000 0.368320
vt 0.625000 0.370229
vt 0.375000 0.370229
vt 0.625000 0.372137
vt 0.375000 0.372137
vt 0.625000 0.374045
vt 0.375000 0.374046
vt 0.625000 0.375954
vt 0.375000 0.375954
vt 0.625000 0.377862
vt 0.375000 0.377862
vt 0.625000 0.379771
vt 0.375000 0.379771
vt 0.625000 0.381679
vt 0.375000 0.381679
vt 0.625000 0.383587
vt 0.375000 0.383588
vt 0.625000 0.385496
vt 0.375000 0.385496
vt 0.625000 0.387404
vt 0.375000 0.387404
vt 0.625000 0.389313
vt 0.375000 0.389313
vt 0.625000 0.391221
vt 0.375000 0.391221
vt 0.625000 0.393129
vt 0.375000 0.393130
vt 0.625000 0.395038
vt 0.375000 0.395038
vt 0.625000 0.396946
vt 0.375000 0.396946
vt 0.625000 0.398855
vt 0.375000 0.398855
vt 0.625000 0.400763
vt 0.375000 0.400763
vt 0.625000 0.402671
vt 0.375000 0.402672
vt 0.625000 0.404580
vt 0.375000 0.404580
vt 0.625000 0.406488
vt 0.375000 0.406488
vt 0.625000 0.408397
vt 0.375000 0.408397
vt 0.625000 0.410305
vt 0.375000 0.410305
vt 0.625000 0.412213
vt 0.375000 0.412214
vt 0.625000 0.414122
vt 0.375000 0.414122
vt 0.625000 0.416030
vt 0.375000 0.416030
vt 0.625000 0.417939
vt 0.375000 0.417939
vt 0.625000 0.419847
vt 0.375000 0.419847
vt 0.625000 0.421755
vt 0.375000 0.421756
vt 0.625000 0.423664
vt 0.375000 0.423664
vt 0.625000 0.425572
vt 0.375000 0.425572
vt 0.625000 0.427481
vt 0.375000 0.427481
vt 0.625000 0.429389
vt 0.375000 0.429389
vt 0.625000 0.431297
vt 0.375000 0.431298
vt 0.625000 0.433206
vt 0.375000 0.433206
vt 0.625000 0.435114
vt 0.375000 0.435114
vt 0.625000 0.437023
vt 0.375000 0.437023
vt 0.625000 0.438931
vt 0.375000 0.438931
vt 0.625000 0.440839
vt 0.375000 0.440840
vt 0.625000 0.442748
vt 0.375000 0.442748
vt 0.625000 0.444656
vt 0.375000 0.444656
vt 0.625000 0.446565
vt 0.375000 0.446565
vt 0.625000 0.448473
vt 0.375000 0.448473
vt 0.625000 0.450381
vt 0.375000 0.450382
vt 0.625000 0.452290
vt 0.375000 0.452290
vt 0.625000 0.454198
vt 0.375000 0.454198
vt 0.625000 0.456107
vt 0.375000 0.456107
vt 0.625000 0.458015
vt 0.375000 0.458015
vt 0.625000 0.459923
vt 0.375000 0.459924
vt 0.625000 0.461832
vt 0.375000 0.461832
vt 0.625000 0.463740
vt 0.375000 0.463740
vt 0.625000 0.465649
vt 0.375000 0.465649
vt 0.625000 0.467557
vt 0.375000 0.467557
vt 0.625000 0.469465
vt 0.375000 0.469466
vt 0.625000 0.471374
vt 0.375000 0.471374
vt 0.625000 0.473282
vt 0.375000 0.473282
vt 0.625000 0.475191
vt 0.375000 0.475191
vt 0.625000 0.477099
vt 0.375000 0.477099
vt 0.625000 0.479008
vt 0.375000 0.479008
vt 0.625000 0.480916
vt 0.375000 0.480916
vt 0.625000 0.482824
vt 0.375000 0.482824
vt 0.625000 0.484733
vt 0.375000 0.484733
vt 0.625000 0.486641
vt 0.375000 0.486641
vt 0.625000 0.488550
vt 0.375000 0.488550
vt 0.625000 0.490458
vt 0.375000 0.490458
vt 0.625000 0.492366
vt 0.375000 0.492366
vt 0.625000 0.494275
vt 0.375000 0.494275
vt 0.625000 0.496183
vt 0.375000 0.496183
s 0
f 1/1/1 2/2/1 4/3/1 3/4/1
f 9/5/2 268/6/2 8/7/2 7/8/2
f 7/8/3 8/7/3 6/9/3 5/10/3
f 269/11/4 528/12/4 2/13/4 1/14/4
f 9/5/5 7/8/5 5/10/5 398/15/5
f 139/16/6 4/17/6 2/18/6 528/19/6
f 8/7/6 268/6/6 399/20/6 6/9/6
f 268/6/6 267/21/6 400/22/6 399/20/6
f 267/21/6 266/23/6 401/24/6 400/22/6
f 266/23/6 265/25/6 402/26/6 401/24/6
f 265/25/6 264/27/6 403/28/6 402/26/6
f 264/27/6 263/29/6 404/30/6 403/28/6
f 263/29/6 262/31/6 405/32/6 404/30/6
f 262/31/6 261/33/6 406/34/6 405/32/6
f 261/33/6 260/35/6 407/36/6 406/34/6
f 260/35/6 259/37/6 408/38/6 407/36/6
f 259/37/6 258/39/6 409/40/6 408/38/6
f 258/39/6 257/41/6 410/42/6 409/40/6
f 257/41/6 256/43/6 411/44/6 410/42/6
f 256/43/6 255/45/6 412/46/6 411/44/6
f 255/45/6 254/47/6 413/48/6 412/46/6
f 254/47/6 253/49/6 414/50/6 413/48/6
f 253/49/6 252/51/6 415/52/6 414/50/6
f 252/51/6 251/53/6 416/54/6 415/52/6
f 251/53/6 250/55/6 417/56/6 416/54/6
f 250/55/6 249/57/6 418/58/6 417/56/6
f 249/57/6 248/59/6 419/60/6 418/58/6
f 248/59/6 247/61/6 420/62/6 419/60/6
f 247/61/6 246/63/6 421/64/6 420/62/6
f 246/63/6 245/65/6 422/66/6 421/64/6
f 245/65/6 244/67/6 423/68/6 422/66/6
f 244/67/6 243/69/6 424/70/6 423/68/6
f 243/69/6 242/71/6 425/72/6 424/70/6
f 242/71/6 241/73/6 426/74/6 425/72/6
f 241/73/6 240/75/6 427/76/6 426/74/6
f 240/75/6 239/77/6 428/78/6 427/76/6
f 239/77/6 238/79/6 429/80/6 428/78/6
f 238/79/6 237/81/6 430/82/6 429/80/6
f 237/81/6 236/83/6 431/84/6 430/82/6
f 236/83/6 235/85/6 432/86/6 431/84/6
f 235/85/6 234/87/6 433/88/6 432/86/6
f 234/87/6 233/89/6 434/90/6 433/88/6
f 233/89/6 232/91/6 435/92/6 434/90/6
f 232/91/6 231/93/6 436/94/6 435/92/6
f 231/93/6 230/95/6 437/96/6 436/94/6
f 230/95/6 229/97/6 438/98/6 437/96/6
f 229/97/6 228/99/6 439/100/6 438/98/6
f 228/99/6 227/101/6 440/102/6 439/100/6
f 227/101/6 226/103/6 441/104/6 440/102/6
f 226/103/6 225/105/6 442/106/6 441/104/6
f 225/105/6 224/107/6 443/108/6 442/106/6
f 224/107/6 223/109/6 444/110/6 443/108/6
f 223/109/6 222/111/6 445/112/6 444/110/6
f 222/111/6 221/113/6 446/114/6 445/112/6
f 221/113/6 220/115/6 447/116/6 446/114/6
f 220/115/6 219/117/6 448/118/6 447/116/6
f 219/117/6 218/119/6 449/120/6 448/118/6
f 218/119/6 217/121/6 450/122/6 449/120/6
f 217/121/6 216/123/6 451/124/6 450/122/6
f 216/123/6 215/125/6 452/126/6 451/124/6
f 215/125/6 214/127/6 453/128/6 452/126/6
f 214/127/6 213/129/6 454/130/6 453/128/6
f 213/129/6 212/131/6 455/132/6 454/130/6
f 212/131/6 211/133/6 456/134/6 455/132/6
f 211/133/6 210/135/6 457/136/6 456/134/6
f 210/135/6 209/137/6 458/138/6 457/136/6
f 209/137/6 208/139/6 459/140/6 458/138/6
f 208/139/6 207/141/6 460/142/6 459/140/6
f 207/141/6 206/143/6 461/144/6 460/142/6
f 206/143/6 205/145/6 462/146/6 461/144/6
f 205/145/6 204/147/6 463/148/6 462/146/6
f 204/147/6 203/149/6 464/150/6 463/148/6
f 203/149/6 202/151/6 465/152/6 464/150/6
f 202/151/6 201/153/6 466/154/6 465/152/6
f 201/153/6 200/155/6 467/156/6 466/154/6
f 200/155/6 199/157/6 468/158/6 467/156/6
f 199/157/6 198/159/6 469/160/6 468/158/6
f 198/159/6 197/161/6 470/162/6 469/160/6
f 197/161/6 196/163/6 471/164/6 470/162/6
f 196/163/6 195/165/6 472/166/6 471/164/6
f 195/165/6 194/167/6 473/168/6 472/166/6
f 194/167/6 193/169/6 474/170/6 473/168/6
f 193/169/6 192/171/6 475/172/6 474/170/6
f 192/171/6 191/173/6 476/174/6 475/172/6
f 191/173/6 190/175/6 477/176/6 476/174/6
f 190/175/6 189/177/6 478/178/6 477/176/6
f 189/177/6 188/179/6 479/180/6 478/178/6
f 188/179/6 187/181/6 480/182/6 479/180/6
f 187/181/6 186/183/6 481/184/6 480/182/6
f 186/183/6 185/185/6 482/186/6 481/184/6
f 185/185/6 184/187/6 483/188/6 482/186/6
f 184/187/6 183/189/6 484/190/6 483/188/6
f 183/189/6 182/191/6 485/192/6 484/190/6
f 182/191/6 181/193/6 486/194/6 485/192/6
f 181/193/6 180/195/6 487/196/6 486/194/6
f 180/195/6 179/197/6 488/198/6 487/196/6
f 179/197/6 178/199/6 489/200/6 488/198/6
f 178/199/6 177/201/6 490/202/6 489/200/6
f 177/201/6 176/203/6 491/204/6 490/202/6
f 176/203/6 175/205/6 492/206/6 491/204/6
f 175/205/6 174/207/6 493/208/6 492/206/6
f 174/207/6 173/209/6 494/210/6 493/208/6
f 173/209/6 172/211/6 495/212/6 494/210/6
f 172/211/6 171/213/6 496/214/6 495/212/6
f 171/213/6 170/215/6 497/216/6 496/214/6
f 170/215/6 169/217/6 498/218/6 497/216/6
f 169/217/6 168/219/6 499/220/6 498/218/6
f 168/219/6 167/221/6 500/222/6 499/220/6
f 167/221/6 166/223/6 501/224/6 500/222/6
f 166/223/6 165/225/6 502/226/6 501/224/6
f 165/225/6 164/227/6 503/228/6 502/226/6
f 164/227/6 163/229/6 504/230/6 503/228/6
f 163/229/6 162/231/6 505/232/6 504/230/6
f 162/231/6 161/233/6 506/234/6 505/232/6
f 161/233/6 160/235/6 507/236/6 506/234/6
f 160/235/6 159/237/6 508/238/6 507/236/6
f 159/237/6 158/239/6 509/240/6 508/238/6
f 158/239/6 157/241/6 510/242/6 509/240/6
f 157/241/6 156/243/6 511/244/6 510/242/6
f 156/243/6 155/245/6 512/246/6 511/244/6
f 155/245/6 154/247/6 513/248/6 512/246/6
f 154/247/6 153/249/6 514/250/6 513/248/6
f 153/249/6 152/251/6 515/252/6 514/250/6
f 152/251/6 151/253/6 516/254/6 515/252/6
f 151/253/6 150/255/6 517/256/6 516/254/6
f 150/255/6 149/257/6 518/258/6 517/256/6
f 149/257/6 148/259/6 519/260/6 518/258/6
f 148/259/6 147/261/6 520/262/6 519/260/6
f 147/261/6 146/263/6 521/264/6 520/262/6
f 146/263/6 145/265/6 522/266/6 521/264/6
f 145/265/6 144/267/6 523/268/6 522/266/6
f 144/267/6 143/269/6 524/270/6 523/268/6
f 143/269/6 142/271/6 525/272/6 524/270/6
f 142/271/6 141/273/6 526/274/6 525/272/6
f 141/273/6 140/275/6 527/276/6 526/274/6
f 140/275/6 139/16/6 528/19/6 527/276/6
f 3/277/5 138/278/5 269/279/5 1/280/5
f 138/278/5 137/281/5 270/282/5 269/279/5
f 137/281/5 136/283/5 271/284/5 270/282/5
f 136/283/5 135/285/5 272/286/5 271/284/5
f 135/285/5 134/287/5 273/288/5 272/286/5
f 134/287/5 133/289/5 274/290/5 273/288/5
f 133/289/5 132/291/5 275/292/5 274/290/5
f 132/291/5 131/293/5 276/294/5 275/292/5
f 131/293/5 130/295/5 277/296/5 276/294/5
f 130/295/5 129/297/5 278/298/5 277/296/5
f 129/297/5 128/299/5 279/300/5 278/298/5
f 128/299/5 127/301/5 280/302/5 279/300/5
f 127/301/5 126/303/5 281/304/5 280/302/5
f 126/303/5 125/305/5 282/306/5 281/304/5
f 125/305/5 124/307/5 283/308/5 282/306/5
f 124/307/5 123/309/5 284/310/5 283/308/5
f 123/309/5 122/311/5 285/312/5 284/310/5
f 122/311/5 121/313/5 286/314/5 285/312/5
f 121/313/5 120/315/5 287/316/5 286/314/5
f 120/315/5 119/317/5 288/318/5 287/316/5
f 119/317/5 118/319/5 289/320/5 288/318/5
f 118/319/5 117/321/5 290/322/5 289/320/5
f 117/321/5 116/323/5 291/324/5 290/322/5
f 116/323/5 115/325/5 292/326/5 291/324/5
f 115/325/5 114/327/5 293/328/5 292/326/5
f 114/327/5 113/329/5 294/330/5 293/328/5
f 113/329/5 112/331/5 295/332/5 294/330/5
f 112/331/5 111/333/5 296/334/5 295/332/5
f 111/333/5 110/335/5 297/336/5 296/334/5
f 110/335/5 109/337/5 298/338/5 297/336/5
f 109/337/5 108/339/5 299/340/5 298/338/5
f 108/339/5 107/341/5 300/342/5 299/340/5
f 107/341/5 106/343/5 301/344/5 300/342/5
f 106/343/5 105/345/5 302/346/5 301/344/5
f 105/345/5 104/347/5 303/348/5 302/346/5
f 104/347/5 103/349/5 304/350/5 303/348/5
f 103/349/5 102/351/5 305/352/5 304/350/5
f 102/351/5 101/353/5 306/354/5 305/352/5
f 101/353/5 100/355/5 307/356/5 306/354/5
f 100/355/5 99/357/5 308/358/5 307/356/5
f 99/357/5 98/359/5 309/360/5 308/358/5
f 98/359/5 97/361/5 310/362/5 309/360/5
f 97/361/5 96/363/5 311/364/5 310/362/5
f 96/363/5 95/365/5 312/366/5 311/364/5
f 95/365/5 94/367/5 313/368/5 312/366/5
f 94/367/5 93/369/5 314/370/5 313/368/5
f 93/369/5 92/371/5 315/372/5 314/370/5
f 92/371/5 91/373/5 316/374/5 315/372/5
f 91/373/5 90/375/5 317/376/5 316/374/5
f 90/375/5 89/377/5 318/378/5 317/376/5
f 89/377/5 88/379/5 319/380/5 318/378/5
f 88/379/5 87/381/5 320/382/5 319/380/5
f 87/381/5 86/383/5 321/384/5 320/382/5
f 86/383/5 85/385/5 322/386/5 321/384/5
f 85/385/5 84/387/5 323/388/5 322/386/5
f 84/387/5 83/389/5 324/390/5 323/388/5
f 83/389/5 82/391/5 325/392/5 324/390/5
f 82/391/5 81/393/5 326/394/5 325/392/5
f 81/393/5 80/395/5 327/396/5 326/394/5
f 80/395/5 79/397/5 328/398/5 327/396/5
f 79/397/5 78/399/5 329/400/5 328/398/5
f 78/399/5 77/401/5 330/402/5 329/400/5
f 77/401/5 76/403/5 331/404/5 330/402/5
f 76/403/5 75/405/5 332/406/5 331/404/5
f 75/405/5 74/407/5 333/408/5 332/406/5
f 74/407/5 73/409/5 334/410/5 333/408/5
f 73/409/5 72/411/5 335/412/5 334/410/5
f 72/411/5 71/413/5 336/414/5 335/412/5
f 71/413/5 70/415/5 337/416/5 336/414/5
f 70/415/5 69/417/5 338/418/5 337/416/5
f 69/417/5 68/419/5 339/420/5 338/418/5
f 68/419/5 67/421/5 340/422/5 339/420/5
f 67/421/5 66/423/5 341/424/5 340/422/5
f 66/423/5 65/425/5 342/426/5 341/424/5
f 65/425/5 64/427/5 343/428/5 342/426/5
f 64/427/5 63/429/5 344/430/5 343/428/5
f 63/429/5 62/431/5 345/432/5 344/430/5
f 62/431/5 61/433/5 346/434/5 345/432/5
f 61/433/5 60/435/5 347/436/5 346/434/5
f 60/435/5 59/437/5 348/438/5 347/436/5
f 59/437/5 58/439/5 349/440/5 348/438/5
f 58/439/5 57/441/5 350/442/5 349/440/5
f 57/441/5 56/443/5 351/444/5 350/442/5
f 56/443/5 55/445/5 352/446/5 351/444/5
f 55/445/5 54/447/5 353/448/5 352/446/5
f 54/447/5 53/449/5 354/450/5 353/448/5
f 53/449/5 52/451/5 355/452/5 354/450/5
f 52/451/5 51/453/5 356/454/5 355/452/5
f 51/453/5 50/455/5 357/456/5 356/454/5
f 50/455/5 49/457/5 358/458/5 357/456/5
f 49/457/5 48/459/5 359/460/5 358/458/5
f 48/459/5 47/461/5 360/462/5 359/460/5
f 47/461/5 46/463/5 361/464/5 360/462/5
f 46/463/5 45/465/5 362/466/5 361/464/5
f 45/465/5 44/467/5 363/468/5 362/466/5
f 44/467/5 43/469/5 364/470/5 363/468/5
f 43/469/5 42/471/5 365/472/5 364/470/5
f 42/471/5 41/473/5 366/474/5 365/472/5
f 41/473/5 40/475/5 367/476/5 366/474/5
f 40/475/5 39/477/5 368/478/5 367/476/5
f 39/477/5 38/479/5 369/480/5 368/478/5
f 38/479/5 37/481/5 370/482/5 369/480/5
f 37/481/5 36/483/5 371/484/5 370/482/5
f 36/483/5 35/485/5 372/486/5 371/484/5
f 35/485/5 34/487/5 373/488/5 372/486/5
f 34/487/5 33/489/5 374/490/5 373/488/5
f 33/489/5 32/491/5 375/492/5 374/490/5
f 32/491/5 31/493/5 376/494/5 375/492/5
f 31/493/5 30/495/5 377/496/5 376/494/5
f 30/495/5 29/497/5 378/498/5 377/496/5
f 29/497/5 28/499/5 379/500/5 378/498/5
f 28/499/5 27/501/5 380/502/5 379/500/5
f 27/501/5 26/503/5 381/504/5 380/502/5
f 26/503/5 25/505/5 382/506/5 381/504/5
f 25/505/5 24/507/5 383/508/5 382/506/5
f 24/507/5 23/509/5 384/510/5 383/508/5
f 23/509/5 22/511/5 385/512/5 384/510/5
f 22/511/5 21/513/5 386/514/5 385/512/5
f 21/513/5 20/515/5 387/516/5 386/514/5
f 20/515/5 19/517/5 388/518/5 387/516/5
f 19/517/5 18/519/5 389/520/5 388/518/5
f 18/519/5 17/521/5 390/522/5 389/520/5
f 17/521/5 16/523/5 391/524/5 390/522/5
f 16/523/5 15/525/5 392/526/5 391/524/5
f 15/525/5 14/527/5 393/528/5 392/526/5
f 14/527/5 13/529/5 394/530/5 393/528/5
f 13/529/5 12/531/5 395/532/5 394/530/5
f 12/531/5 11/533/5 396/534/5 395/532/5
f 11/533/5 10/535/5 397/536/5 396/534/5
f 10/535/5 9/5/5 398/15/5 397/536/5
f 5/10/7 6/9/7 399/20/7 398/15/7
f 398/15/8 399/20/8 400/537/8 397/538/8
f 397/538/9 400/537/9 401/539/9 396/540/9
f 396/540/10 401/539/10 402/541/10 395/542/10
f 395/542/11 402/541/11 403/543/11 394/544/11
f 394/544/12 403/543/12 404/545/12 393/546/12
f 393/546/13 404/545/13 405/547/13 392/548/13
f 392/548/14 405/547/14 406/549/14 391/550/14
f 391/550/15 406/549/15 407/551/15 390/552/15
f 390/552/16 407/551/16 408/553/16 389/554/16
f 389/554/17 408/553/17 409/555/17 388/556/17
f 388/556/18 409/555/18 410/557/18 387/558/18
f 387/558/19 410/557/19 411/559/19 386/560/19
f 386/560/20 411/559/20 412/561/20 385/562/20
f 385/562/21 412/561/21 413/563/21 384/564/21
f 384/564/22 413/563/22 414/565/22 383/566/22
f 383/566/23 414/565/23 415/567/23 382/568/23
f 382/568/24 415/567/24 416/569/24 381/570/24
f 381/570/25 416/569/25 417/571/25 380/572/25
f 380/572/26 417/571/26 418/573/26 379/574/26
f 379/574/27 418/573/27 419/575/27 378/576/27
f 378/576/28 419/575/28 420/577/28 377/578/28
f 377/578/29 420/577/29 421/579/29 376/580/29
f 376/580/30 421/579/30 422/581/30 375/582/30
f 375/582/31 422/581/31 423/583/31 374/584/31
f 374/584/32 423/583/32 424/585/32 373/586/32
f 373/586/33 424/585/33 425/587/33 372/588/33
f 372/588/34 425/587/34 426/589/34 371/590/34
f 371/590/35 426/589/35 427/591/35 370/592/35
f 370/592/36 427/591/36 428/593/36 369/594/36
f 369/594/37 428/593/37 429/595/37 368/596/37
f 368/596/38 429/595/38 430/597/38 367/598/38
f 367/598/39 430/597/39 431/599/39 366/600/39
f 366/600/40 431/599/40 432/601/40 365/602/40
f 365/602/41 432/601/41 433/603/41 364/604/41
f 364/604/42 433/603/42 434/605/42 363/606/42
f 363/606/43 434/605/43 435/607/43 362/608/43
f 362/608/44 435/607/44 436/609/44 361/610/44
f 361/610/45 436/609/45 437/611/45 360/612/45
f 360/612/46 437/611/46 438/613/46 359/614/46
f 359/614/47 438/613/47 439/615/47 358/616/47
f 358/616/48 439/615/48 440/617/48 357/618/48
f 357/618/49 440/617/49 441/619/49 356/620/49
f 356/620/50 441/619/50 442/621/50 355/622/50
f 355/622/51 442/621/51 443/623/51 354/624/51
f 354/624/52 443/623/52 444/625/52 353/626/52
f 353/626/53 444/625/53 445/627/53 352/628/53
f 352/628/54 445/627/54 446/629/54 351/630/54
f 351/630/55 446/629/55 447/631/55 350/632/55
f 350/632/56 447/631/56 448/633/56 349/634/56
f 349/634/57 448/633/57 449/635/57 348/636/57
f 348/636/58 449/635/58 450/637/58 347/638/58
f 347/638/59 450/637/59 451/639/59 346/640/59
f 346/640/60 451/639/60 452/641/60 345/642/60
f 345/642/61 452/641/61 453/643/61 344/644/61
f 344/644/62 453/643/62 454/645/62 343/646/62
f 343/646/63 454/645/63 455/647/63 342/648/63
f 342/648/64 455/647/64 456/649/64 341/650/64
f 341/650/65 456/649/65 457/651/65 340/652/65
f 340/652/66 457/651/66 458/653/66 339/654/66
f 339/654/67 458/653/67 459/655/67 338/656/67
f 338/656/68 459/655/68 460/657/68 337/658/68
f 337/658/69 460/657/69 461/659/69 336/660/69
f 336/660/70 461/659/70 462/661/70 335/662/70
f 335/662/71 462/661/71 463/663/71 334/664/71
f 334/664/72 463/663/72 464/665/72 333/666/72
f 333/666/73 464/665/73 465/667/73 332/668/73
f 332/668/74 465/667/74 466/669/74 331/670/74
f 331/670/75 466/669/75 467/671/75 330/672/75
f 330/672/76 467/671/76 468/673/76 329/674/76
f 329/674/77 468/673/77 469/675/77 328/676/77
f 328/676/78 469/675/78 470/677/78 327/678/78
f 327/678/79 470/677/79 471/679/79 326/680/79
f 326/680/80 471/679/80 472/681/80 325/682/80
f 325/682/81 472/681/81 473/683/81 324/684/81
f 324/684/82 473/683/82 474/685/82 323/686/82
f 323/686/83 474/685/83 475/687/83 322/688/83
f 322/688/84 475/687/84 476/689/84 321/690/84
f 321/690/85 476/689/85 477/691/85 320/692/85
f 320/692/86 477/691/86 478/693/86 319/694/86
f 319/694/87 478/693/87 479/695/87 318/696/87
f 318/696/88 479/695/88 480/697/88 317/698/88
f 317/698/89 480/697/89 481/699/89 316/700/89
f 316/700/90 481/699/90 482/701/90 315/702/90
f 315/702/91 482/701/91 483/703/91 314/704/91
f 314/704/92 483/703/92 484/705/92 313/706/92
f 313/706/93 484/705/93 485/707/93 312/708/93
f 312/708/94 485/707/94 486/709/94 311/710/94
f 311/710/95 486/709/95 487/711/95 310/712/95
f 310/712/96 487/711/96 488/713/96 309/714/96
f 309/714/97 488/713/97 489/715/97 308/716/97
f 308/716/98 489/715/98 490/717/98 307/718/98
f 307/718/99 490/717/99 491/719/99 306/720/99
f 306/720/100 491/719/100 492/721/100 305/722/100
f 305/722/101 492/721/101 493/723/101 304/724/101
f 304/724/102 493/723/102 494/725/102 303/726/102
f 303/726/103 494/725/103 495/727/103 302/728/103
f 302/728/104 495/727/104 496/729/104 301/730/104
f 301/730/105 496/729/105 497/731/105 300/732/105
f 300/732/106 497/731/106 498/733/106 299/734/106
f 299/734/107 498/733/107 499/735/107 298/736/107
f 298/736/108 499/735/108 500/737/108 297/738/108
f 297/738/109 500/737/109 501/739/109 296/740/109
f 296/740/110 501/739/110 502/741/110 295/742/110
f 295/742/111 502/741/111 503/743/111 294/744/111
f 294/744/112 503/743/112 504/745/112 293/746/112
f 293/746/113 504/745/113 505/747/113 292/748/113
f 292/748/114 505/747/114 506/749/114 291/750/114
f 291/750/115 506/749/115 507/751/115 290/752/115
f 290/752/116 507/751/116 508/753/116 289/754/116
f 289/754/117 508/753/117 509/755/117 288/756/117
f 288/756/118 509/755/118 510/757/118 287/758/118
f 287/758/119 510/757/119 511/759/119 286/760/119
f 286/760/120 511/759/120 512/761/120 285/762/120
f 285/762/121 512/761/121 513/763/121 284/764/121
f 284/764/122 513/763/122 514/765/122 283/766/122
f 283/766/123 514/765/123 515/767/123 282/768/123
f 282/768/124 515/767/124 516/769/124 281/770/124
f 281/770/125 516/769/125 517/771/125 280/772/125
f 280/772/126 517/771/126 518/773/126 279/774/126
f 279/774/127 518/773/127 519/775/127 278/776/127
f 278/776/128 519/775/128 520/777/128 277/778/128
f 277/778/129 520/777/129 521/779/129 276/780/129
f 276/780/130 521/779/130 522/781/130 275/782/130
f 275/782/131 522/781/131 523/783/131 274/784/131
f 274/784/132 523/783/132 524/785/132 273/786/132
f 273/786/133 524/785/133 525/787/133 272/788/133
f 272/788/134 525/787/134 526/789/134 271/790/134
f 271/790/135 526/789/135 527/791/135 270/792/135
f 270/792/136 527/791/136 528/12/136 269/11/136
f 3/4/137 4/3/137 139/793/137 138/794/137
f 138/794/138 139/793/138 140/795/138 137/796/138
f 137/796/139 140/795/139 141/797/139 136/798/139
f 136/798/140 141/797/140 142/799/140 135/800/140
f 135/800/141 142/799/141 143/801/141 134/802/141
f 134/802/142 143/801/142 144/803/142 133/804/142
f 133/804/143 144/803/143 145/805/143 132/806/143
f 132/806/144 145/805/144 146/807/144 131/808/144
f 131/808/145 146/807/145 147/809/145 130/810/145
f 130/810/146 147/809/146 148/811/146 129/812/146
f 129/812/147 148/811/147 149/813/147 128/814/147
f 128/814/148 149/813/148 150/815/148 127/816/148
f 127/816/149 150/815/149 151/817/149 126/818/149
f 126/818/150 151/817/150 152/819/150 125/820/150
f 125/820/151 152/819/151 153/821/151 124/822/151
f 124/822/152 153/821/152 154/823/152 123/824/152
f 123/824/153 154/823/153 155/825/153 122/826/153
f 122/826/154 155/825/154 156/827/154 121/828/154
f 121/828/155 156/827/155 157/829/155 120/830/155
f 120/830/156 157/829/156 158/831/156 119/832/156
f 119/832/157 158/831/157 159/833/157 118/834/157
f 118/834/158 159/833/158 160/835/158 117/836/158
f 117/836/159 160/835/159 161/837/159 116/838/159
f 116/838/160 161/837/160 162/839/160 115/840/160
f 115/840/161 162/839/161 163/841/161 114/842/161
f 114/842/162 163/841/162 164/843/162 113/844/162
f 113/844/163 164/843/163 165/845/163 112/846/163
f 112/846/164 165/845/164 166/847/164 111/848/164
f 111/848/165 166/847/165 167/849/165 110/850/165
f 110/850/166 167/849/166 168/851/166 109/852/166
f 109/852/167 168/851/167 169/853/167 108/854/167
f 108/854/168 169/853/168 170/855/168 107/856/168
f 107/856/169 170/855/169 171/857/169 106/858/169
f 106/858/170 171/857/170 172/859/170 105/860/170
f 105/860/171 172/859/171 173/861/171 104/862/171
f 104/862/172 173/861/172 174/863/172 103/864/172
f 103/864/173 174/863/173 175/865/173 102/866/173
f 102/866/174 175/865/174 176/867/174 101/868/174
f 101/868/175 176/867/175 177/869/175 100/870/175
f 100/870/176 177/869/176 178/871/176 99/872/176
f 99/872/177 178/871/177 179/873/177 98/874/177
f 98/874/178 179/873/178 180/875/178 97/876/178
f 97/876/179 180/875/179 181/877/179 96/878/179
f 96/878/180 181/877/180 182/879/180 95/880/180
f 95/880/181 182/879/181 183/881/181 94/882/181
f 94/882/182 183/881/182 184/883/182 93/884/182
f 93/884/183 184/883/183 185/885/183 92/886/183
f 92/886/184 185/885/184 186/887/184 91/888/184
f 91/888/185 186/887/185 187/889/185 90/890/185
f 90/890/186 187/889/186 188/891/186 89/892/186
f 89/892/187 188/891/187 189/893/187 88/894/187
f 88/894/188 189/893/188 190/895/188 87/896/188
f 87/896/189 190/895/189 191/897/189 86/898/189
f 86/898/190 191/897/190 192/899/190 85/900/190
f 85/900/191 192/899/191 193/901/191 84/902/191
f 84/902/192 193/901/192 194/903/192 83/904/192
f 83/904/193 194/903/193 195/905/193 82/906/193
f 82/906/194 195/905/194 196/907/194 81/908/194
f 81/908/195 196/907/195 197/909/195 80/910/195
f 80/910/196 197/909/196 198/911/196 79/912/196
f 79/912/197 198/911/197 199/913/197 78/914/197
f 78/914/198 199/913/198 200/915/198 77/916/198
f 77/916/199 200/915/199 201/917/199 76/918/199
f 76/918/200 201/917/200 202/919/200 75/920/200
f 75/920/201 202/919/201 203/921/201 74/922/201
f 74/922/202 203/921/202 204/923/202 73/924/202
f 73/924/203 204/923/203 205/925/203 72/926/203
f 72/926/204 205/925/204 206/927/204 71/928/204
f 71/928/205 206/927/205 207/929/205 70/930/205
f 70/930/206 207/929/206 208/931/206 69/932/206
f 69/932/207 208/931/207 209/933/207 68/934/207
f 68/934/208 209/933/208 210/935/208 67/936/208
f 67/936/209 210/935/209 211/937/209 66/938/209
f 66/938/210 211/937/210 212/939/210 65/940/210
f 65/940/211 212/939/211 213/941/211 64/942/211
f 64/942/212 213/941/212 214/943/212 63/944/212
f 63/944/213 214/943/213 215/945/213 62/946/213
f 62/946/214 215/945/214 216/947/214 61/948/214
f 61/948/215 216/947/215 217/949/215 60/950/215
f 60/950/216 217/949/216 218/951/216 59/952/216
f 59/952/217 218/951/217 219/953/217 58/954/217
f 58/954/218 219/953/218 220/955/218 57/956/218
f 57/956/219 220/955/219 221/957/219 56/958/219
f 56/958/220 221/957/220 222/959/220 55/960/220
f 55/960/221 222/959/221 223/961/221 54/962/221
f 54/962/222 223/961/222 224/963/222 53/964/222
f 53/964/223 224/963/223 225/965/223 52/966/223
f 52/966/224 225/965/224 226/967/224 51/968/224
f 51/968/225 226/967/225 227/969/225 50/970/225
f 50/970/226 227/969/226 228/971/226 49/972/226
f 49/972/227 228/971/227 229/973/227 48/974/227
f 48/974/228 229/973/228 230/975/228 47/976/228
f 47/976/229 230/975/229 231/977/229 46/978/229
f 46/978/230 231/977/230 232/979/230 45/980/230
f 45/980/231 232/979/231 233/981/231 44/982/231
f 44/982/232 233/981/232 234/983/232 43/984/232
f 43/984/233 234/983/233 235/985/233 42/986/233
f 42/986/234 235/985/234 236/987/234 41/988/234
f 41/988/235 236/987/235 237/989/235 40/990/235
f 40/990/236 237/989/236 238/991/236 39/992/236
f 39/992/237 238/991/237 239/993/237 38/994/237
f 38/994/238 239/993/238 240/995/238 37/996/238
f 37/996/239 240/995/239 241/997/239 36/998/239
f 36/998/240 241/997/240 242/999/240 35/1000/240
f 35/1000/241 242/999/241 243/1001/241 34/1002/241
f 34/1002/242 243/1001/242 244/1003/242 33/1004/242
f 33/1004/243 244/1003/243 245/1005/243 32/1006/243
f 32/1006/244 245/1005/244 246/1007/244 31/1008/244
f 31/1008/245 246/1007/245 247/1009/245 30/1010/245
f 30/1010/246 247/1009/246 248/1011/246 29/1012/246
f 29/1012/247 248/1011/247 249/1013/247 28/1014/247
f 28/1014/248 249/1013/248 250/1015/248 27/1016/248
f 27/1016/249 250/1015/249 251/1017/249 26/1018/249
f 26/1018/250 251/1017/250 252/1019/250 25/1020/250
f 25/1020/251 252/1019/251 253/1021/251 24/1022/251
f 24/1022/252 253/1021/252 254/1023/252 23/1024/252
f 23/1024/253 254/1023/253 255/1025/253 22/1026/253
f 22/1026/254 255/1025/254 256/1027/254 21/1028/254
f 21/1028/255 256/1027/255 257/1029/255 20/1030/255
f 20/1030/256 257/1029/256 258/1031/256 19/1032/256
f 19/1032/257 258/1031/257 259/1033/257 18/1034/257
f 18/1034/258 259/1033/258 260/1035/258 17/1036/258
f 17/1036/259 260/1035/259 261/1037/259 16/1038/259
f 16/1038/260 261/1037/260 262/1039/260 15/1040/260
f 15/1040/261 262/1039/261 263/1041/261 14/1042/261
f 14/1042/262 263/1041/262 264/1043/262 13/1044/262
f 13/1044/263 264/1043/263 265/1045/263 12/1046/263
f 12/1046/264 265/1045/264 266/1047/264 11/1048/264
f 11/1048/265 266/1047/265 267/1049/265 10/1050/265
f 10/1050/266 267/1049/266 268/6/266 9/5/266
