# Blender 4.2.3 LTS
# www.blender.org
mtllib JumpFrontLong.mtl.mtl
o Plane
v -1.000000 -9.000000 -0.000000
v 1.000000 -9.000000 -0.000000
v -1.000000 9.000000 0.000000
v 1.000000 9.000000 0.000000
v -1.000000 -9.000000 1.000000
v -1.000000 9.000000 1.000000
vn -0.0000 -0.0000 -1.0000
vn -1.0000 -0.0000 -0.0000
vn 0.4472 -0.0000 0.8944
vn -0.0000 1.0000 -0.0000
vn -0.0000 -1.0000 -0.0000
vt 0.000000 0.000000
vt 0.000000 1.000000
vt 1.000000 1.000000
vt 1.000000 0.000000
s 0
f 1/1/1 3/2/1 4/3/1 2/4/1
f 6/1/2 3/2/2 1/1/2 5/1/2
f 4/3/3 6/1/3 5/1/3 2/4/3
f 3/2/4 6/1/4 4/3/4
f 2/4/5 5/1/5 1/1/5
